<?xml version="1.0" encoding="UTF-8" standalone="no"?>
<!DOCTYPE svg PUBLIC "-//W3C//DTD SVG 1.1//EN"
 "http://www.w3.org/Graphics/SVG/1.1/DTD/svg11.dtd">
<!-- Generated by graphviz version 14.1.3 (20260303.0454)
 -->
<!-- Title: G Pages: 1 -->
<svg width="1225pt" height="814pt"
 viewBox="0.00 0.00 1225.00 814.00" xmlns="http://www.w3.org/2000/svg" xmlns:xlink="http://www.w3.org/1999/xlink">
<g id="graph0" class="graph" transform="scale(1 1) rotate(0) translate(4 810.28)">
<title>G</title><style>.edge>path:hover{stroke-width:8}</style>
<polygon fill="white" stroke="none" points="-4,4 -4,-810.28 1220.58,-810.28 1220.58,4 -4,4"/>
<!-- core -->
<g id="node1" class="node">
<title>core</title><style>.edge>path:hover{stroke-width:8}</style>
<ellipse fill="#f91010" stroke="black" cx="38.31" cy="-519.51" rx="27" ry="18"/>
<text xml:space="preserve" text-anchor="middle" x="38.31" y="-515.64" font-family="Helvetica,sans-Serif" font-size="10.00" fill="#ffffff">core</text>
</g>
<!-- entities_bullet -->
<g id="node6" class="node">
<title>entities_bullet</title><style>.edge>path:hover{stroke-width:8}</style>
<ellipse fill="#a39228" stroke="black" cx="508.11" cy="-514.51" rx="35.71" ry="21.57"/>
<text xml:space="preserve" text-anchor="middle" x="508.11" y="-516.26" font-family="Helvetica,sans-Serif" font-size="10.00" fill="#000000">entities.</text>
<text xml:space="preserve" text-anchor="middle" x="508.11" y="-505.01" font-family="Helvetica,sans-Serif" font-size="10.00" fill="#000000">bullet</text>
</g>
<!-- core&#45;&gt;entities_bullet -->
<g id="edge1" class="edge">
<title>core&#45;&gt;entities_bullet</title><style>.edge>path:hover{stroke-width:8}</style>
<path fill="none" stroke="black" d="M193.76,-676.51C251.34,-698.29 254.39,-628.13 308.89,-599.51 354.79,-575.41 369.72,-577.06 417.31,-556.51 434.68,-549.01 453.69,-540.21 469.73,-532.61"/>
<polygon fill="#f91010" stroke="black" points="470.91,-535.92 478.43,-528.46 467.89,-529.61 470.91,-535.92"/>
<path fill="none" stroke="black" d="M113.62,-560.51C150.48,-571.94 126.62,-608.54 149.62,-639.51 164.49,-659.52 168.81,-666.79 191.76,-676.51"/>
</g>
<!-- entities_enemy -->
<g id="node7" class="node">
<title>entities_enemy</title><style>.edge>path:hover{stroke-width:8}</style>
<ellipse fill="#918430" stroke="black" cx="840.24" cy="-662.51" rx="47.19" ry="18"/>
<text xml:space="preserve" text-anchor="middle" x="840.24" y="-658.64" font-family="Helvetica,sans-Serif" font-size="10.00" fill="#ffffff">entities.enemy</text>
</g>
<!-- core&#45;&gt;entities_enemy -->
<g id="edge2" class="edge">
<title>core&#45;&gt;entities_enemy</title><style>.edge>path:hover{stroke-width:8}</style>
<path fill="none" stroke="black" d="M345.6,-748.51C380.02,-759.43 382.25,-720.51 416.31,-708.51"/>
<path fill="none" stroke="black" d="M193.76,-676.51C261.79,-705.33 273.17,-726.17 343.6,-748.51"/>
</g>
<!-- entities_entity -->
<g id="node8" class="node">
<title>entities_entity</title><style>.edge>path:hover{stroke-width:8}</style>
<ellipse fill="#b89f09" stroke="black" cx="344.6" cy="-285.51" rx="35.71" ry="21.57"/>
<text xml:space="preserve" text-anchor="middle" x="344.6" y="-287.26" font-family="Helvetica,sans-Serif" font-size="10.00" fill="#000000">entities.</text>
<text xml:space="preserve" text-anchor="middle" x="344.6" y="-276.01" font-family="Helvetica,sans-Serif" font-size="10.00" fill="#000000">entity</text>
</g>
<!-- core&#45;&gt;entities_entity -->
<g id="edge3" class="edge">
<title>core&#45;&gt;entities_entity</title><style>.edge>path:hover{stroke-width:8}</style>
<path fill="none" stroke="black" d="M113.62,-392.51C145.95,-348.02 192.73,-407.59 235.89,-373.51 269.06,-347.33 229.64,-285.25 271.89,-285.51"/>
</g>
<!-- entities_player -->
<g id="node9" class="node">
<title>entities_player</title><style>.edge>path:hover{stroke-width:8}</style>
<ellipse fill="#8a7d2e" stroke="black" cx="840.24" cy="-515.51" rx="35.71" ry="21.57"/>
<text xml:space="preserve" text-anchor="middle" x="840.24" y="-517.26" font-family="Helvetica,sans-Serif" font-size="10.00" fill="#ffffff">entities.</text>
<text xml:space="preserve" text-anchor="middle" x="840.24" y="-506.01" font-family="Helvetica,sans-Serif" font-size="10.00" fill="#ffffff">player</text>
</g>
<!-- core&#45;&gt;entities_player -->
<g id="edge4" class="edge">
<title>core&#45;&gt;entities_player</title><style>.edge>path:hover{stroke-width:8}</style>
<path fill="none" stroke="black" d="M757.06,-540.51C772.05,-541.92 788.01,-538.32 801.84,-533.45"/>
<polygon fill="#f91010" stroke="black" points="802.94,-536.78 811,-529.89 800.41,-530.25 802.94,-536.78"/>
<path fill="none" stroke="black" d="M113.62,-560.51C160.15,-573.64 404.77,-489.88 453.31,-483.51 570.88,-468.1 616.19,-431.31 720.06,-488.51 744.68,-502.07 728.07,-537.9 756.06,-540.51"/>
</g>
<!-- gameplay_weapon -->
<g id="node11" class="node">
<title>gameplay_weapon</title><style>.edge>path:hover{stroke-width:8}</style>
<ellipse fill="#409c1b" stroke="black" cx="677.98" cy="-400.51" rx="42.07" ry="21.57"/>
<text xml:space="preserve" text-anchor="middle" x="677.98" y="-402.26" font-family="Helvetica,sans-Serif" font-size="10.00" fill="#ffffff">gameplay.</text>
<text xml:space="preserve" text-anchor="middle" x="677.98" y="-391.01" font-family="Helvetica,sans-Serif" font-size="10.00" fill="#ffffff">weapon</text>
</g>
<!-- core&#45;&gt;gameplay_weapon -->
<g id="edge5" class="edge">
<title>core&#45;&gt;gameplay_weapon</title><style>.edge>path:hover{stroke-width:8}</style>
<path fill="none" stroke="black" d="M113.62,-560.51C148.18,-571.23 121.72,-510.54 149.62,-487.51 276.6,-382.73 345.33,-360.03 507.11,-390.51"/>
<path fill="none" stroke="black" d="M57.23,-532.71C71.46,-542.38 92.27,-554.77 112.62,-560.51"/>
</g>
<!-- main_py -->
<g id="node12" class="node">
<title>main_py</title><style>.edge>path:hover{stroke-width:8}</style>
<ellipse fill="#356350" stroke="black" cx="1186.7" cy="-578.51" rx="29.88" ry="18"/>
<text xml:space="preserve" text-anchor="middle" x="1186.7" y="-574.64" font-family="Helvetica,sans-Serif" font-size="10.00" fill="#ffffff">main.py</text>
</g>
<!-- core&#45;&gt;main_py -->
<g id="edge6" class="edge">
<title>core&#45;&gt;main_py</title><style>.edge>path:hover{stroke-width:8}</style>
<path fill="none" stroke="black" d="M417.31,-784.51C456.7,-790.95 467.3,-781.63 507.11,-784.51"/>
</g>
<!-- physics_collision -->
<g id="node14" class="node">
<title>physics_collision</title><style>.edge>path:hover{stroke-width:8}</style>
<ellipse fill="#4981ac" stroke="black" cx="192.76" cy="-342.51" rx="37.3" ry="21.57"/>
<text xml:space="preserve" text-anchor="middle" x="192.76" y="-344.26" font-family="Helvetica,sans-Serif" font-size="10.00" fill="#ffffff">physics.</text>
<text xml:space="preserve" text-anchor="middle" x="192.76" y="-333.01" font-family="Helvetica,sans-Serif" font-size="10.00" fill="#ffffff">collision</text>
</g>
<!-- core&#45;&gt;physics_collision -->
<g id="edge7" class="edge">
<title>core&#45;&gt;physics_collision</title><style>.edge>path:hover{stroke-width:8}</style>
<path fill="none" stroke="black" d="M113.62,-392.51C123.38,-379.09 137.93,-368.38 151.84,-360.36"/>
<polygon fill="#f91010" stroke="black" points="153.31,-363.55 160.45,-355.72 149.98,-357.39 153.31,-363.55"/>
</g>
<!-- render_renderable -->
<g id="node16" class="node">
<title>render_renderable</title><style>.edge>path:hover{stroke-width:8}</style>
<ellipse fill="#6549ac" stroke="black" cx="192.76" cy="-172.51" rx="43.13" ry="21.57"/>
<text xml:space="preserve" text-anchor="middle" x="192.76" y="-174.26" font-family="Helvetica,sans-Serif" font-size="10.00" fill="#ffffff">render.</text>
<text xml:space="preserve" text-anchor="middle" x="192.76" y="-163.01" font-family="Helvetica,sans-Serif" font-size="10.00" fill="#ffffff">renderable</text>
</g>
<!-- core&#45;&gt;render_renderable -->
<g id="edge8" class="edge">
<title>core&#45;&gt;render_renderable</title><style>.edge>path:hover{stroke-width:8}</style>
<path fill="none" stroke="black" d="M48.58,-502.44C64.91,-472.56 98.41,-412.08 112.62,-392.51"/>
<path fill="none" stroke="black" d="M113.62,-392.51C163.89,-323.34 104.03,-275.86 149.62,-203.51 151.3,-200.85 153.3,-198.34 155.5,-195.98"/>
<polygon fill="#f91010" stroke="black" points="157.43,-198.96 162.47,-189.64 152.72,-193.79 157.43,-198.96"/>
</g>
<!-- systems_enemy_spawner -->
<g id="node18" class="node">
<title>systems_enemy_spawner</title><style>.edge>path:hover{stroke-width:8}</style>
<ellipse fill="#6b2e62" stroke="black" cx="1022.13" cy="-578.51" rx="61.7" ry="21.57"/>
<text xml:space="preserve" text-anchor="middle" x="1022.13" y="-580.26" font-family="Helvetica,sans-Serif" font-size="10.00" fill="#ffffff">systems.</text>
<text xml:space="preserve" text-anchor="middle" x="1022.13" y="-569.01" font-family="Helvetica,sans-Serif" font-size="10.00" fill="#ffffff">enemy_spawner</text>
</g>
<!-- core&#45;&gt;systems_enemy_spawner -->
<g id="edge9" class="edge">
<title>core&#45;&gt;systems_enemy_spawner</title><style>.edge>path:hover{stroke-width:8}</style>
<path fill="none" stroke="black" d="M345.6,-748.51C380.25,-755.1 381.34,-779.99 416.31,-784.51"/>
<path fill="none" stroke="black" d="M417.31,-784.51C434.33,-786.72 436.75,-775.04 453.31,-770.51 516.57,-753.2 533.33,-746.51 598.91,-746.51 598.91,-746.51 598.91,-746.51 757.06,-746.51 859.11,-746.51 953.55,-656.09 996.62,-607.92"/>
<polygon fill="#f91010" stroke="black" points="999.09,-610.41 1003.06,-600.59 993.83,-605.8 999.09,-610.41"/>
</g>
<!-- core_time -->
<g id="node2" class="node">
<title>core_time</title><style>.edge>path:hover{stroke-width:8}</style>
<ellipse fill="#f31616" stroke="black" cx="344.6" cy="-626.51" rx="33.43" ry="18"/>
<text xml:space="preserve" text-anchor="middle" x="344.6" y="-622.64" font-family="Helvetica,sans-Serif" font-size="10.00" fill="#ffffff">core.time</text>
</g>
<!-- core_time&#45;&gt;entities_bullet -->
<g id="edge10" class="edge">
<title>core_time&#45;&gt;entities_bullet</title><style>.edge>path:hover{stroke-width:8}</style>
<path fill="none" stroke="black" d="M417.31,-670.51C462.03,-671.64 430.3,-614.88 453.31,-576.51 460.87,-563.91 471.07,-551.4 480.55,-540.95"/>
<polygon fill="#f31616" stroke="black" points="482.96,-543.5 487.25,-533.81 477.85,-538.71 482.96,-543.5"/>
<path fill="none" stroke="black" d="M360.78,-642.62C374.08,-654.95 394.63,-669.97 416.31,-670.51"/>
</g>
<!-- core_time&#45;&gt;entities_enemy -->
<g id="edge11" class="edge">
<title>core_time&#45;&gt;entities_enemy</title><style>.edge>path:hover{stroke-width:8}</style>
<path fill="none" stroke="black" d="M417.31,-670.51C457.21,-671.52 469.97,-655.89 507.11,-670.51"/>
</g>
<!-- core_time&#45;&gt;entities_player -->
<g id="edge12" class="edge">
<title>core_time&#45;&gt;entities_player</title><style>.edge>path:hover{stroke-width:8}</style>
<path fill="none" stroke="black" d="M509.11,-590.51C594.42,-517.97 644.43,-531.55 756.06,-540.51"/>
</g>
<!-- core_time&#45;&gt;gameplay_weapon -->
<g id="edge13" class="edge">
<title>core_time&#45;&gt;gameplay_weapon</title><style>.edge>path:hover{stroke-width:8}</style>
<path fill="none" stroke="black" d="M509.11,-590.51C532.86,-570.32 546.62,-572.09 562.91,-545.51 600.32,-484.48 531.99,-413.95 598.91,-388.51"/>
<path fill="none" stroke="black" d="M417.31,-670.51C444.03,-671.19 486.75,-607.83 507.11,-590.51"/>
</g>
<!-- core_time&#45;&gt;main_py -->
<g id="edge14" class="edge">
<title>core_time&#45;&gt;main_py</title><style>.edge>path:hover{stroke-width:8}</style>
<path fill="none" stroke="black" d="M599.91,-784.51C725.66,-809.64 776.42,-824.7 887.43,-760.51 911.77,-746.44 896.38,-716.16 923.43,-708.51"/>
<path fill="none" stroke="black" d="M417.31,-670.51C441.13,-671.11 576.05,-777.8 598.91,-784.51"/>
</g>
<!-- core_time&#45;&gt;systems_enemy_spawner -->
<g id="edge15" class="edge">
<title>core_time&#45;&gt;systems_enemy_spawner</title><style>.edge>path:hover{stroke-width:8}</style>
<path fill="none" stroke="black" d="M509.11,-590.51C550.92,-554.87 702.5,-566.24 756.06,-578.51"/>
</g>
<!-- core_vector -->
<g id="node3" class="node">
<title>core_vector</title><style>.edge>path:hover{stroke-width:8}</style>
<ellipse fill="#f91010" stroke="black" cx="38.31" cy="-424.51" rx="38.31" ry="18"/>
<text xml:space="preserve" text-anchor="middle" x="38.31" y="-420.64" font-family="Helvetica,sans-Serif" font-size="10.00" fill="#ffffff">core.vector</text>
</g>
<!-- core_vector&#45;&gt;entities_bullet -->
<g id="edge16" class="edge">
<title>core_vector&#45;&gt;entities_bullet</title><style>.edge>path:hover{stroke-width:8}</style>
<path fill="none" stroke="black" d="M113.62,-342.51C128.41,-327.44 130.68,-364.19 149.62,-373.51 258.22,-426.93 329.26,-344.44 416.31,-428.51"/>
</g>
<!-- core_vector&#45;&gt;entities_enemy -->
<g id="edge17" class="edge">
<title>core_vector&#45;&gt;entities_enemy</title><style>.edge>path:hover{stroke-width:8}</style>
<path fill="none" stroke="black" d="M53.33,-441.42C73.4,-465.12 112.06,-508.98 149.62,-541.51 255.33,-633.08 284.41,-754.98 416.31,-708.51"/>
<path fill="none" stroke="black" d="M417.31,-708.51C458.13,-693.96 464.07,-665.45 507.11,-670.51"/>
</g>
<!-- core_vector&#45;&gt;entities_entity -->
<g id="edge18" class="edge">
<title>core_vector&#45;&gt;entities_entity</title><style>.edge>path:hover{stroke-width:8}</style>
<path fill="none" stroke="black" d="M272.89,-235.51C288.76,-240.17 304.04,-250.05 316.31,-259.81"/>
<polygon fill="#f91010" stroke="black" points="314,-262.44 323.91,-266.19 318.5,-257.08 314,-262.44"/>
</g>
<!-- core_vector&#45;&gt;entities_player -->
<g id="edge19" class="edge">
<title>core_vector&#45;&gt;entities_player</title><style>.edge>path:hover{stroke-width:8}</style>
<path fill="none" stroke="black" d="M417.31,-84.51C480.3,-65.97 507.55,-74.21 562.91,-109.51 600.98,-133.79 765.26,-395.89 820.81,-485.6"/>
<polygon fill="#f91010" stroke="black" points="817.7,-487.23 825.94,-493.89 823.65,-483.55 817.7,-487.23"/>
</g>
<!-- core_vector&#45;&gt;gameplay_weapon -->
<g id="edge20" class="edge">
<title>core_vector&#45;&gt;gameplay_weapon</title><style>.edge>path:hover{stroke-width:8}</style>
<path fill="none" stroke="black" d="M272.89,-235.51C322.96,-250.21 464.78,-222 507.11,-252.51"/>
</g>
<!-- core_vector&#45;&gt;main_py -->
<g id="edge21" class="edge">
<title>core_vector&#45;&gt;main_py</title><style>.edge>path:hover{stroke-width:8}</style>
<path fill="none" stroke="black" d="M678.98,-27.51C695.21,-39.72 707.72,-31.39 720.06,-47.51 772.01,-115.43 704.84,-168.04 756.06,-236.51"/>
<path fill="none" stroke="black" d="M599.91,-8.51C633,-20.75 648.79,-6.31 676.98,-27.51"/>
<path fill="none" stroke="black" d="M1120.82,-578.51C1128.68,-577.98 1137.07,-577.74 1145.14,-577.67"/>
<polygon fill="#f91010" stroke="black" points="1145.09,-581.17 1155.09,-577.68 1145.1,-574.17 1145.09,-581.17"/>
<path fill="none" stroke="black" d="M841.24,-388.51C861.16,-396.47 868.87,-391.76 887.43,-402.51 958.08,-443.44 951.31,-486.17 1021.13,-528.51"/>
<path fill="none" stroke="black" d="M113.62,-342.51C174.79,-275.47 80.02,-199.76 149.62,-141.51 179.03,-116.91 204.3,-119.78 235.89,-141.51 272.75,-166.87 229.06,-222.58 271.89,-235.51"/>
<path fill="none" stroke="black" d="M1023.13,-528.51C1048.33,-541.31 1059.11,-533.78 1083.82,-547.51 1102.28,-557.77 1098.76,-579.94 1119.82,-578.51"/>
<path fill="none" stroke="black" d="M54.03,-407.71C68.71,-391.03 91.99,-364.79 112.62,-342.51"/>
<path fill="none" stroke="black" d="M417.31,-84.51C439.43,-78.44 433.52,-59.12 453.31,-47.51 511.1,-13.62 536.08,14.72 598.91,-8.51"/>
<path fill="none" stroke="black" d="M272.89,-235.51C313.61,-246.8 281.21,-179.44 308.89,-147.51 345.15,-105.7 362.43,-97.15 416.31,-84.51"/>
<path fill="none" stroke="black" d="M757.06,-236.51C803.05,-298.01 776.12,-344.76 839.24,-388.51"/>
</g>
<!-- core_vector&#45;&gt;physics_collision -->
<g id="edge22" class="edge">
<title>core_vector&#45;&gt;physics_collision</title><style>.edge>path:hover{stroke-width:8}</style>
<path fill="none" stroke="black" d="M113.62,-342.51C122.43,-333.54 135.09,-331.06 147.67,-331.55"/>
<polygon fill="#f91010" stroke="black" points="147.27,-335.03 157.57,-332.58 147.99,-328.07 147.27,-335.03"/>
</g>
<!-- core_vector&#45;&gt;render_renderable -->
<g id="edge23" class="edge">
<title>core_vector&#45;&gt;render_renderable</title><style>.edge>path:hover{stroke-width:8}</style>
<path fill="none" stroke="black" d="M113.62,-342.51C158.31,-296.96 113.86,-256.36 149.62,-203.51 151.39,-200.9 153.45,-198.43 155.69,-196.11"/>
<polygon fill="#f91010" stroke="black" points="157.62,-199.09 162.73,-189.81 152.95,-193.87 157.62,-199.09"/>
</g>
<!-- core_vector&#45;&gt;systems_enemy_spawner -->
<g id="edge24" class="edge">
<title>core_vector&#45;&gt;systems_enemy_spawner</title><style>.edge>path:hover{stroke-width:8}</style>
<path fill="none" stroke="black" d="M757.06,-312.51C780.81,-348.45 767.77,-367.64 793.06,-402.51 800.17,-412.33 950.54,-535.51 960.43,-542.51 966.14,-546.55 972.32,-550.58 978.48,-554.41"/>
<polygon fill="#f91010" stroke="black" points="976.41,-557.24 986.78,-559.43 980.04,-551.25 976.41,-557.24"/>
<path fill="none" stroke="black" d="M599.91,-8.51C624.08,-14.05 709.61,-174.03 720.06,-196.51 742.79,-245.47 727.67,-266.6 756.06,-312.51"/>
</g>
<!-- core_window -->
<g id="node4" class="node">
<title>core_window</title><style>.edge>path:hover{stroke-width:8}</style>
<ellipse fill="#db2f2f" stroke="black" cx="192.76" cy="-514.51" rx="41.86" ry="18"/>
<text xml:space="preserve" text-anchor="middle" x="192.76" y="-510.64" font-family="Helvetica,sans-Serif" font-size="10.00" fill="#ffffff">core.window</text>
</g>
<!-- core_window&#45;&gt;entities_bullet -->
<g id="edge25" class="edge">
<title>core_window&#45;&gt;entities_bullet</title><style>.edge>path:hover{stroke-width:8}</style>
<path fill="none" stroke="black" d="M272.89,-504.51C334.92,-475.72 416.43,-489.03 465.12,-501.58"/>
<polygon fill="#db2f2f" stroke="black" points="464.14,-504.94 474.71,-504.17 465.97,-498.18 464.14,-504.94"/>
</g>
<!-- core_window&#45;&gt;entities_entity -->
<g id="edge26" class="edge">
<title>core_window&#45;&gt;entities_entity</title><style>.edge>path:hover{stroke-width:8}</style>
<path fill="none" stroke="black" d="M205.27,-496.92C230.8,-457.91 292.4,-363.76 324.08,-315.35"/>
<polygon fill="#db2f2f" stroke="black" points="326.98,-317.31 329.53,-307.02 321.12,-313.47 326.98,-317.31"/>
</g>
<!-- core_window&#45;&gt;entities_player -->
<g id="edge27" class="edge">
<title>core_window&#45;&gt;entities_player</title><style>.edge>path:hover{stroke-width:8}</style>
<path fill="none" stroke="black" d="M272.89,-504.51C360.96,-460.82 361.52,-411.73 453.31,-376.51 500.03,-358.59 636.71,-320.82 676.98,-350.51"/>
<path fill="none" stroke="black" d="M234.39,-511.7C246.6,-510.22 259.93,-507.96 271.89,-504.51"/>
</g>
<!-- core_window&#45;&gt;main_py -->
<g id="edge28" class="edge">
<title>core_window&#45;&gt;main_py</title><style>.edge>path:hover{stroke-width:8}</style>
<path fill="none" stroke="black" d="M222.31,-527.49C227.14,-530.39 231.88,-533.75 235.89,-537.51 280.28,-579.23 266.3,-609.96 308.89,-653.51 382.72,-729.01 402.07,-773.7 507.11,-784.51"/>
<path fill="none" stroke="black" d="M509.11,-784.51C548.92,-787.4 560.18,-774.87 598.91,-784.51"/>
</g>
<!-- entities -->
<g id="node5" class="node">
<title>entities</title><style>.edge>path:hover{stroke-width:8}</style>
<ellipse fill="#f9d810" stroke="black" cx="344.6" cy="-174.51" rx="28.11" ry="18"/>
<text xml:space="preserve" text-anchor="middle" x="344.6" y="-170.64" font-family="Helvetica,sans-Serif" font-size="10.00" fill="#000000">entities</text>
</g>
<!-- entities&#45;&gt;gameplay_weapon -->
<g id="edge29" class="edge">
<title>entities&#45;&gt;gameplay_weapon</title><style>.edge>path:hover{stroke-width:8}</style>
<path fill="none" stroke="black" d="M417.31,-122.51C467.98,-111.46 417.11,-196.37 453.31,-233.51 471.01,-251.67 486.54,-237.68 507.11,-252.51"/>
<path fill="none" stroke="black" d="M509.11,-252.51C529.68,-267.34 541.91,-257.3 562.91,-271.51 583,-285.1 578.95,-298.74 598.91,-312.51"/>
<path fill="none" stroke="black" d="M599.91,-312.51C623.05,-328.48 617.2,-343.54 635.91,-364.51 639.04,-368.02 642.49,-371.51 646.02,-374.87"/>
<polygon fill="#f9d810" stroke="black" points="643.43,-377.25 653.19,-381.38 648.14,-372.06 643.43,-377.25"/>
</g>
<!-- entities&#45;&gt;main_py -->
<g id="edge30" class="edge">
<title>entities&#45;&gt;main_py</title><style>.edge>path:hover{stroke-width:8}</style>
<path fill="none" stroke="black" d="M359.13,-158.82C372.13,-145.3 393.17,-127.24 416.31,-122.51"/>
<path fill="none" stroke="black" d="M417.31,-122.51C477.51,-110.22 626.47,7.47 676.98,-27.51"/>
</g>
<!-- entities&#45;&gt;systems_enemy_spawner -->
<g id="edge31" class="edge">
<title>entities&#45;&gt;systems_enemy_spawner</title><style>.edge>path:hover{stroke-width:8}</style>
<path fill="none" stroke="black" d="M417.31,-122.51C481.39,-108.54 509.8,-108.04 562.91,-146.51 591.73,-167.39 583.64,-185.87 599.91,-217.51 616.09,-248.98 607.73,-267.12 635.91,-288.51 679.28,-321.44 725.31,-267.57 756.06,-312.51"/>
</g>
<!-- systems_entity_registry -->
<g id="node19" class="node">
<title>systems_entity_registry</title><style>.edge>path:hover{stroke-width:8}</style>
<ellipse fill="#c431af" stroke="black" cx="508.11" cy="-302.51" rx="54.8" ry="21.57"/>
<text xml:space="preserve" text-anchor="middle" x="508.11" y="-304.26" font-family="Helvetica,sans-Serif" font-size="10.00" fill="#ffffff">systems.</text>
<text xml:space="preserve" text-anchor="middle" x="508.11" y="-293.01" font-family="Helvetica,sans-Serif" font-size="10.00" fill="#ffffff">entity_registry</text>
</g>
<!-- entities&#45;&gt;systems_entity_registry -->
<g id="edge32" class="edge">
<title>entities&#45;&gt;systems_entity_registry</title><style>.edge>path:hover{stroke-width:8}</style>
<path fill="none" stroke="black" d="M361.53,-189.15C382.13,-207.84 419.4,-240.82 453.31,-266.51 458.24,-270.25 463.53,-274.04 468.8,-277.69"/>
<polygon fill="#f9d810" stroke="black" points="466.71,-280.49 476.94,-283.22 470.64,-274.7 466.71,-280.49"/>
</g>
<!-- entities_bullet&#45;&gt;gameplay_weapon -->
<g id="edge33" class="edge">
<title>entities_bullet&#45;&gt;gameplay_weapon</title><style>.edge>path:hover{stroke-width:8}</style>
<path fill="none" stroke="black" d="M515.92,-493.11C527.25,-461.93 553.34,-405.84 598.91,-388.51"/>
</g>
<!-- entities_bullet&#45;&gt;main_py -->
<g id="edge34" class="edge">
<title>entities_bullet&#45;&gt;main_py</title><style>.edge>path:hover{stroke-width:8}</style>
<path fill="none" stroke="black" d="M525.68,-533.6C556.86,-569.37 622.39,-643.58 635.91,-651.51 748.27,-717.44 797.3,-741.11 923.43,-708.51"/>
</g>
<!-- entities_bullet&#45;&gt;systems_enemy_spawner -->
<g id="edge35" class="edge">
<title>entities_bullet&#45;&gt;systems_enemy_spawner</title><style>.edge>path:hover{stroke-width:8}</style>
<path fill="none" stroke="black" d="M537.85,-502.31C573.8,-489.14 635.66,-473.66 676.98,-502.51"/>
</g>
<!-- entities_enemy&#45;&gt;main_py -->
<g id="edge36" class="edge">
<title>entities_enemy&#45;&gt;main_py</title><style>.edge>path:hover{stroke-width:8}</style>
<path fill="none" stroke="black" d="M924.43,-708.51C969.46,-696.88 977.29,-684.04 1021.13,-668.51"/>
<path fill="none" stroke="black" d="M864.99,-678.02C886.96,-692 917.14,-710.14 923.43,-708.51"/>
</g>
<!-- entities_enemy&#45;&gt;systems_enemy_spawner -->
<g id="edge37" class="edge">
<title>entities_enemy&#45;&gt;systems_enemy_spawner</title><style>.edge>path:hover{stroke-width:8}</style>
<path fill="none" stroke="black" d="M866.49,-647.43C873.67,-642.52 881.23,-636.72 887.43,-630.51 907.31,-610.63 896.04,-584.82 923.43,-578.51"/>
</g>
<!-- entities_entity&#45;&gt;entities_bullet -->
<g id="edge38" class="edge">
<title>entities_entity&#45;&gt;entities_bullet</title><style>.edge>path:hover{stroke-width:8}</style>
<path fill="none" stroke="black" d="M417.31,-428.51C438.26,-448.75 462.07,-471.54 479.91,-488.58"/>
<polygon fill="#b89f09" stroke="black" points="477.4,-491.02 487.05,-495.39 482.23,-485.96 477.4,-491.02"/>
<path fill="none" stroke="black" d="M351.27,-307.19C360.29,-337.88 380.65,-394.07 416.31,-428.51"/>
</g>
<!-- entities_entity&#45;&gt;entities_enemy -->
<g id="edge39" class="edge">
<title>entities_entity&#45;&gt;entities_enemy</title><style>.edge>path:hover{stroke-width:8}</style>
<path fill="none" stroke="black" d="M345.54,-307.33C346.71,-380.13 361.93,-613.36 507.11,-670.51"/>
<path fill="none" stroke="black" d="M509.11,-670.51C604.76,-687.1 718.32,-678.25 784.24,-670.35"/>
<polygon fill="#b89f09" stroke="black" points="784.59,-673.83 794.08,-669.13 783.73,-666.88 784.59,-673.83"/>
</g>
<!-- entities_entity&#45;&gt;entities_player -->
<g id="edge40" class="edge">
<title>entities_entity&#45;&gt;entities_player</title><style>.edge>path:hover{stroke-width:8}</style>
<path fill="none" stroke="black" d="M509.11,-160.51C531.14,-147.96 541.98,-165.2 562.91,-179.51 583.72,-193.75 587.34,-200.66 599.91,-222.51 624.3,-264.91 604.87,-288.71 635.91,-326.51 649.33,-342.85 661.79,-335.81 676.98,-350.51"/>
<path fill="none" stroke="black" d="M678.98,-350.51C694.01,-363.89 704.16,-357.19 720.06,-369.51 762.7,-402.59 799.87,-453.65 820.92,-485.79"/>
<polygon fill="#b89f09" stroke="black" points="817.75,-487.33 826.1,-493.84 823.63,-483.54 817.75,-487.33"/>
</g>
<!-- entities_entity&#45;&gt;gameplay_weapon -->
<g id="edge41" class="edge">
<title>entities_entity&#45;&gt;gameplay_weapon</title><style>.edge>path:hover{stroke-width:8}</style>
<path fill="none" stroke="black" d="M417.31,-314.51C469.57,-316.2 455.73,-380.83 507.11,-390.51"/>
<path fill="none" stroke="black" d="M509.11,-390.51C548.34,-397.91 561.59,-402.7 598.91,-388.51"/>
<path fill="none" stroke="black" d="M599.91,-388.51C610.06,-384.66 621.41,-384.39 632.21,-385.85"/>
<polygon fill="#b89f09" stroke="black" points="631.24,-389.23 641.71,-387.63 632.53,-382.35 631.24,-389.23"/>
</g>
<!-- entities_entity&#45;&gt;main_py -->
<g id="edge42" class="edge">
<title>entities_entity&#45;&gt;main_py</title><style>.edge>path:hover{stroke-width:8}</style>
<path fill="none" stroke="black" d="M417.31,-314.51C479.37,-316.51 411.17,-225.12 453.31,-179.51 470.52,-160.89 484.32,-171.64 507.11,-160.51"/>
<path fill="none" stroke="black" d="M509.11,-160.51C612.3,-110.13 684.36,-146.81 756.06,-236.51"/>
<path fill="none" stroke="black" d="M370.47,-300.77C383.59,-307.49 400.26,-314 416.31,-314.51"/>
</g>
<!-- entities_entity&#45;&gt;systems_entity_registry -->
<g id="edge43" class="edge">
<title>entities_entity&#45;&gt;systems_entity_registry</title><style>.edge>path:hover{stroke-width:8}</style>
<path fill="none" stroke="black" d="M417.31,-314.51C426.91,-314.82 437.05,-314.3 446.91,-313.33"/>
<polygon fill="#b89f09" stroke="black" points="447.29,-316.81 456.82,-312.17 446.48,-309.85 447.29,-316.81"/>
</g>
<!-- entities_player&#45;&gt;main_py -->
<g id="edge44" class="edge">
<title>entities_player&#45;&gt;main_py</title><style>.edge>path:hover{stroke-width:8}</style>
<path fill="none" stroke="black" d="M924.43,-528.51C966.54,-537.12 984.38,-506.23 1021.13,-528.51"/>
<path fill="none" stroke="black" d="M875.36,-520.21C890.18,-522.43 907.72,-525.3 923.43,-528.51"/>
</g>
<!-- entities_player&#45;&gt;systems_enemy_spawner -->
<g id="edge45" class="edge">
<title>entities_player&#45;&gt;systems_enemy_spawner</title><style>.edge>path:hover{stroke-width:8}</style>
<path fill="none" stroke="black" d="M924.43,-528.51C935.89,-530.86 958.86,-542.62 979.55,-554.14"/>
<polygon fill="#8a7d2e" stroke="black" points="977.71,-557.13 988.14,-559 981.15,-551.03 977.71,-557.13"/>
</g>
<!-- gameplay -->
<g id="node10" class="node">
<title>gameplay</title><style>.edge>path:hover{stroke-width:8}</style>
<ellipse fill="#60db2f" stroke="black" cx="677.98" cy="-624.51" rx="34.32" ry="18"/>
<text xml:space="preserve" text-anchor="middle" x="677.98" y="-620.64" font-family="Helvetica,sans-Serif" font-size="10.00" fill="#000000">gameplay</text>
</g>
<!-- gameplay&#45;&gt;entities_enemy -->
<g id="edge46" class="edge">
<title>gameplay&#45;&gt;entities_enemy</title><style>.edge>path:hover{stroke-width:8}</style>
<path fill="none" stroke="black" d="M757.06,-616.51C762.54,-615.64 785.33,-628.63 805.52,-641.03"/>
<polygon fill="#60db2f" stroke="black" points="803.51,-643.9 813.85,-646.2 807.2,-637.95 803.51,-643.9"/>
</g>
<!-- gameplay&#45;&gt;entities_player -->
<g id="edge47" class="edge">
<title>gameplay&#45;&gt;entities_player</title><style>.edge>path:hover{stroke-width:8}</style>
<path fill="none" stroke="black" d="M712.09,-621.88C725.75,-620.59 741.71,-618.81 756.06,-616.51"/>
<path fill="none" stroke="black" d="M757.06,-616.51C784.81,-612.07 775.37,-586.36 793.06,-564.51 799.19,-556.94 806.23,-549.1 812.93,-541.97"/>
<polygon fill="#60db2f" stroke="black" points="815.14,-544.73 819.52,-535.09 810.08,-539.89 815.14,-544.73"/>
</g>
<!-- gameplay&#45;&gt;main_py -->
<g id="edge48" class="edge">
<title>gameplay&#45;&gt;main_py</title><style>.edge>path:hover{stroke-width:8}</style>
<path fill="none" stroke="black" d="M1023.13,-668.51C1030.05,-666.06 1112.5,-579.01 1119.82,-578.51"/>
<path fill="none" stroke="black" d="M841.24,-616.51C923.95,-607.24 942.68,-696.3 1021.13,-668.51"/>
</g>
<!-- gameplay&#45;&gt;systems_enemy_spawner -->
<g id="edge49" class="edge">
<title>gameplay&#45;&gt;systems_enemy_spawner</title><style>.edge>path:hover{stroke-width:8}</style>
<path fill="none" stroke="black" d="M841.24,-616.51C881.24,-612.03 884.21,-587.54 923.43,-578.51"/>
<path fill="none" stroke="black" d="M757.06,-616.51C793.13,-610.75 802.94,-620.58 839.24,-616.51"/>
</g>
<!-- gameplay_weapon&#45;&gt;entities_enemy -->
<g id="edge50" class="edge">
<title>gameplay_weapon&#45;&gt;entities_enemy</title><style>.edge>path:hover{stroke-width:8}</style>
<path fill="none" stroke="black" d="M757.06,-502.51C796.15,-546.83 758.74,-582.4 793.06,-630.51 795.8,-634.36 799.15,-637.89 802.79,-641.09"/>
<polygon fill="#409c1b" stroke="black" points="800.39,-643.66 810.44,-647.03 804.69,-638.13 800.39,-643.66"/>
</g>
<!-- gameplay_weapon&#45;&gt;entities_player -->
<g id="edge51" class="edge">
<title>gameplay_weapon&#45;&gt;entities_player</title><style>.edge>path:hover{stroke-width:8}</style>
<path fill="none" stroke="black" d="M695.75,-420.16C703.35,-429.26 712.34,-440.29 720.06,-450.51 736.99,-472.95 737.46,-481.44 756.06,-502.51"/>
<path fill="none" stroke="black" d="M757.06,-502.51C766.17,-512.84 779.89,-517.28 793.52,-518.78"/>
<polygon fill="#409c1b" stroke="black" points="793.16,-522.27 803.34,-519.33 793.55,-515.28 793.16,-522.27"/>
</g>
<!-- gameplay_weapon&#45;&gt;main_py -->
<g id="edge52" class="edge">
<title>gameplay_weapon&#45;&gt;main_py</title><style>.edge>path:hover{stroke-width:8}</style>
<path fill="none" stroke="black" d="M714.33,-389.35C747.69,-380.77 798.51,-372.78 839.24,-388.51"/>
</g>
<!-- gameplay_weapon&#45;&gt;systems_enemy_spawner -->
<g id="edge53" class="edge">
<title>gameplay_weapon&#45;&gt;systems_enemy_spawner</title><style>.edge>path:hover{stroke-width:8}</style>
<path fill="none" stroke="black" d="M757.06,-502.51C789.97,-539.82 790.62,-567.99 839.24,-578.51"/>
<path fill="none" stroke="black" d="M924.43,-578.51C932.57,-576.64 941.19,-575.5 949.8,-574.87"/>
<polygon fill="#409c1b" stroke="black" points="949.74,-578.37 959.56,-574.39 949.4,-571.38 949.74,-578.37"/>
<path fill="none" stroke="black" d="M841.24,-578.51C876.95,-586.24 887.83,-586.7 923.43,-578.51"/>
</g>
<!-- physics -->
<g id="node13" class="node">
<title>physics</title><style>.edge>path:hover{stroke-width:8}</style>
<ellipse fill="#538cb6" stroke="black" cx="192.76" cy="-284.51" rx="29.44" ry="18"/>
<text xml:space="preserve" text-anchor="middle" x="192.76" y="-280.64" font-family="Helvetica,sans-Serif" font-size="10.00" fill="#000000">physics</text>
</g>
<!-- physics&#45;&gt;entities_entity -->
<g id="edge54" class="edge">
<title>physics&#45;&gt;entities_entity</title><style>.edge>path:hover{stroke-width:8}</style>
<path fill="none" stroke="black" d="M222.33,-284.97C237.12,-285.18 255.48,-285.41 271.89,-285.51"/>
</g>
<!-- physics_collision&#45;&gt;entities_entity -->
<g id="edge55" class="edge">
<title>physics_collision&#45;&gt;entities_entity</title><style>.edge>path:hover{stroke-width:8}</style>
<path fill="none" stroke="black" d="M216.61,-325.72C239.52,-308.9 271.46,-285.51 271.89,-285.51"/>
</g>
<!-- render -->
<g id="node15" class="node">
<title>render</title><style>.edge>path:hover{stroke-width:8}</style>
<ellipse fill="#7053b6" stroke="black" cx="192.76" cy="-230.51" rx="27" ry="18"/>
<text xml:space="preserve" text-anchor="middle" x="192.76" y="-226.64" font-family="Helvetica,sans-Serif" font-size="10.00" fill="#ffffff">render</text>
</g>
<!-- render&#45;&gt;entities_entity -->
<g id="edge56" class="edge">
<title>render&#45;&gt;entities_entity</title><style>.edge>path:hover{stroke-width:8}</style>
<path fill="none" stroke="black" d="M213.3,-242.52C220.5,-247.07 228.66,-252.4 235.89,-257.51 252.44,-269.22 251.62,-285.39 271.89,-285.51"/>
</g>
<!-- render_renderable&#45;&gt;entities_entity -->
<g id="edge57" class="edge">
<title>render_renderable&#45;&gt;entities_entity</title><style>.edge>path:hover{stroke-width:8}</style>
<path fill="none" stroke="black" d="M272.89,-285.51C280.82,-285.56 289.24,-285.59 297.41,-285.6"/>
<polygon fill="#6549ac" stroke="black" points="297.2,-289.1 307.2,-285.6 297.2,-282.1 297.2,-289.1"/>
<path fill="none" stroke="black" d="M221,-189.28C226.4,-193.46 231.69,-198.27 235.89,-203.51 260.77,-234.58 232.09,-285.26 271.89,-285.51"/>
</g>
<!-- systems -->
<g id="node17" class="node">
<title>systems</title><style>.edge>path:hover{stroke-width:8}</style>
<ellipse fill="#ce3bb9" stroke="black" cx="508.11" cy="-206.51" rx="31.66" ry="18"/>
<text xml:space="preserve" text-anchor="middle" x="508.11" y="-202.64" font-family="Helvetica,sans-Serif" font-size="10.00" fill="#ffffff">systems</text>
</g>
<!-- systems&#45;&gt;gameplay_weapon -->
<g id="edge58" class="edge">
<title>systems&#45;&gt;gameplay_weapon</title><style>.edge>path:hover{stroke-width:8}</style>
<path fill="none" stroke="black" d="M599.91,-236.51C648.23,-270.54 604.39,-314.53 635.91,-364.51 638.29,-368.29 641.18,-371.89 644.32,-375.25"/>
<polygon fill="#ce3bb9" stroke="black" points="641.74,-377.63 651.37,-382.05 646.59,-372.59 641.74,-377.63"/>
</g>
<!-- systems&#45;&gt;main_py -->
<g id="edge59" class="edge">
<title>systems&#45;&gt;main_py</title><style>.edge>path:hover{stroke-width:8}</style>
<path fill="none" stroke="black" d="M678.98,-274.51C716.8,-269.19 732.21,-206.68 756.06,-236.51"/>
<path fill="none" stroke="black" d="M599.91,-236.51C631.14,-258.5 639.16,-279.84 676.98,-274.51"/>
<path fill="none" stroke="black" d="M538.59,-211.82C557.14,-216.21 580.9,-223.83 598.91,-236.51"/>
</g>
<!-- systems_enemy_spawner&#45;&gt;main_py -->
<g id="edge60" class="edge">
<title>systems_enemy_spawner&#45;&gt;main_py</title><style>.edge>path:hover{stroke-width:8}</style>
<path fill="none" stroke="black" d="M1084.04,-579.76C1095.91,-579.65 1108.27,-579.29 1119.82,-578.51"/>
</g>
<!-- systems_entity_registry&#45;&gt;gameplay_weapon -->
<g id="edge61" class="edge">
<title>systems_entity_registry&#45;&gt;gameplay_weapon</title><style>.edge>path:hover{stroke-width:8}</style>
<path fill="none" stroke="black" d="M562.97,-300.03C575.62,-301.65 588.45,-305.3 598.91,-312.51"/>
</g>
<!-- systems_entity_registry&#45;&gt;main_py -->
<g id="edge62" class="edge">
<title>systems_entity_registry&#45;&gt;main_py</title><style>.edge>path:hover{stroke-width:8}</style>
<path fill="none" stroke="black" d="M557.75,-292.85C591.16,-286.59 636.59,-278.84 676.98,-274.51"/>
</g>
<!-- systems_entity_registry&#45;&gt;systems_enemy_spawner -->
<g id="edge63" class="edge">
<title>systems_entity_registry&#45;&gt;systems_enemy_spawner</title><style>.edge>path:hover{stroke-width:8}</style>
<path fill="none" stroke="black" d="M678.98,-502.51C717.35,-531.53 709.16,-567.77 756.06,-578.51"/>
<path fill="none" stroke="black" d="M522.13,-323.61C547.53,-363.31 607.38,-449.88 676.98,-502.51"/>
<path fill="none" stroke="black" d="M757.06,-578.51C792.66,-586.67 803.54,-570.79 839.24,-578.51"/>
</g>
</g>
</svg>
