<?xml version="1.0" encoding="UTF-8" standalone="no"?>
<!DOCTYPE svg PUBLIC "-//W3C//DTD SVG 1.1//EN"
 "http://www.w3.org/Graphics/SVG/1.1/DTD/svg11.dtd">
<!-- Generated by graphviz version 14.1.3 (20260303.0454)
 -->
<!-- Title: G Pages: 1 -->
<svg width="624pt" height="634pt"
 viewBox="0.00 0.00 624.00 634.00" xmlns="http://www.w3.org/2000/svg" xmlns:xlink="http://www.w3.org/1999/xlink">
<g id="graph0" class="graph" transform="scale(1 1) rotate(0) translate(4 630.27)">
<title>G</title><style>.edge>path:hover{stroke-width:8}</style>
<polygon fill="white" stroke="none" points="-4,4 -4,-630.27 620.1,-630.27 620.1,4 -4,4"/>
<!-- pygame -->
<g id="node1" class="node">
<title>pygame</title><style>.edge>path:hover{stroke-width:8}</style>
<ellipse fill="#f90606" stroke="black" cx="310.85" cy="-608.27" rx="29.88" ry="18"/>
<text xml:space="preserve" text-anchor="middle" x="310.85" y="-604.39" font-family="Helvetica,sans-Serif" font-size="10.00" fill="#ffffff">pygame</text>
</g>
<!-- src_bullet -->
<g id="node2" class="node">
<title>src_bullet</title><style>.edge>path:hover{stroke-width:8}</style>
<ellipse fill="#20b6b6" stroke="black" cx="382.85" cy="-316.7" rx="32.99" ry="18"/>
<text xml:space="preserve" text-anchor="middle" x="382.85" y="-312.83" font-family="Helvetica,sans-Serif" font-size="10.00" fill="#000000">src.bullet</text>
</g>
<!-- src_entity -->
<g id="node6" class="node">
<title>src_entity</title><style>.edge>path:hover{stroke-width:8}</style>
<ellipse fill="#05c7c7" stroke="black" cx="237.85" cy="-392.27" rx="33.43" ry="18"/>
<text xml:space="preserve" text-anchor="middle" x="237.85" y="-388.39" font-family="Helvetica,sans-Serif" font-size="10.00" fill="#000000">src.entity</text>
</g>
<!-- src_bullet&#45;&gt;src_entity -->
<g id="edge14" class="edge">
<title>src_bullet&#45;&gt;src_entity</title><style>.edge>path:hover{stroke-width:8}</style>
<path fill="none" stroke="black" d="M359.23,-329.68C335.43,-341.76 298.47,-360.51 271.58,-374.15"/>
<polygon fill="#20b6b6" stroke="black" points="270.15,-370.96 262.81,-378.6 273.31,-377.2 270.15,-370.96"/>
</g>
<!-- src_time -->
<g id="node11" class="node">
<title>src_time</title><style>.edge>path:hover{stroke-width:8}</style>
<ellipse fill="#06f9f9" stroke="black" cx="423.85" cy="-392.27" rx="30.32" ry="18"/>
<text xml:space="preserve" text-anchor="middle" x="423.85" y="-388.39" font-family="Helvetica,sans-Serif" font-size="10.00" fill="#000000">src.time</text>
</g>
<!-- src_bullet&#45;&gt;src_time -->
<g id="edge26" class="edge">
<title>src_bullet&#45;&gt;src_time</title><style>.edge>path:hover{stroke-width:8}</style>
<path fill="none" stroke="black" d="M392.16,-334.39C397.14,-343.33 403.39,-354.55 409.02,-364.65"/>
<polygon fill="#20b6b6" stroke="black" points="405.92,-366.29 413.85,-373.32 412.04,-362.88 405.92,-366.29"/>
</g>
<!-- src_vector -->
<g id="node12" class="node">
<title>src_vector</title><style>.edge>path:hover{stroke-width:8}</style>
<ellipse fill="#10f9f9" stroke="black" cx="237.85" cy="-536.27" rx="35.21" ry="18"/>
<text xml:space="preserve" text-anchor="middle" x="237.85" y="-532.39" font-family="Helvetica,sans-Serif" font-size="10.00" fill="#000000">src.vector</text>
</g>
<!-- src_bullet&#45;&gt;src_vector -->
<g id="edge32" class="edge">
<title>src_bullet&#45;&gt;src_vector</title><style>.edge>path:hover{stroke-width:8}</style>
<path fill="none" stroke="black" d="M374.08,-334.49C367.41,-349.5 360.24,-372.01 365.85,-391.27"/>
<path fill="none" stroke="black" d="M365.85,-393.27C376.93,-431.24 388.88,-449.41 366.85,-482.27 348.35,-509.88 312.59,-523.12 283.41,-529.46"/>
<polygon fill="#20b6b6" stroke="black" points="282.83,-526.01 273.68,-531.35 284.16,-532.88 282.83,-526.01"/>
</g>
<!-- src_window -->
<g id="node14" class="node">
<title>src_window</title><style>.edge>path:hover{stroke-width:8}</style>
<ellipse fill="#19e6e6" stroke="black" cx="490.85" cy="-464.27" rx="38.76" ry="18"/>
<text xml:space="preserve" text-anchor="middle" x="490.85" y="-460.39" font-family="Helvetica,sans-Serif" font-size="10.00" fill="#000000">src.window</text>
</g>
<!-- src_bullet&#45;&gt;src_window -->
<g id="edge45" class="edge">
<title>src_bullet&#45;&gt;src_window</title><style>.edge>path:hover{stroke-width:8}</style>
<path fill="none" stroke="black" d="M365.85,-393.27C375.73,-427.12 413.01,-444.95 444.31,-454.12"/>
<polygon fill="#20b6b6" stroke="black" points="443.04,-457.4 453.61,-456.62 444.86,-450.64 443.04,-457.4"/>
</g>
<!-- src_collision -->
<g id="node3" class="node">
<title>src_collision</title><style>.edge>path:hover{stroke-width:8}</style>
<ellipse fill="#3db8b8" stroke="black" cx="169.85" cy="-464.27" rx="40.09" ry="18"/>
<text xml:space="preserve" text-anchor="middle" x="169.85" y="-460.39" font-family="Helvetica,sans-Serif" font-size="10.00" fill="#000000">src.collision</text>
</g>
<!-- src_collision&#45;&gt;src_vector -->
<g id="edge33" class="edge">
<title>src_collision&#45;&gt;src_vector</title><style>.edge>path:hover{stroke-width:8}</style>
<path fill="none" stroke="black" d="M185.28,-481.15C194.1,-490.23 205.32,-501.78 215.13,-511.87"/>
<polygon fill="#3db8b8" stroke="black" points="212.42,-514.11 221.9,-518.84 217.44,-509.23 212.42,-514.11"/>
</g>
<!-- src_enemy -->
<g id="node4" class="node">
<title>src_enemy</title><style>.edge>path:hover{stroke-width:8}</style>
<ellipse fill="#2bacac" stroke="black" cx="70.85" cy="-169.13" rx="36.54" ry="18"/>
<text xml:space="preserve" text-anchor="middle" x="70.85" y="-165.26" font-family="Helvetica,sans-Serif" font-size="10.00" fill="#000000">src.enemy</text>
</g>
<!-- src_enemy&#45;&gt;src_entity -->
<g id="edge15" class="edge">
<title>src_enemy&#45;&gt;src_entity</title><style>.edge>path:hover{stroke-width:8}</style>
<path fill="none" stroke="black" d="M81.85,-317.7C89.26,-327.7 90.56,-331.27 100.85,-338.27 130.27,-358.27 168.3,-372.21 196.83,-380.75"/>
<polygon fill="#2bacac" stroke="black" points="195.61,-384.04 206.19,-383.45 197.55,-377.32 195.61,-384.04"/>
<path fill="none" stroke="black" d="M66.76,-187.39C60.84,-216.86 53.47,-277.43 81.85,-315.7"/>
</g>
<!-- src_enemy&#45;&gt;src_time -->
<g id="edge27" class="edge">
<title>src_enemy&#45;&gt;src_time</title><style>.edge>path:hover{stroke-width:8}</style>
<path fill="none" stroke="black" d="M81.85,-317.7C90.5,-326.65 89.89,-332.37 100.85,-338.27 125.35,-351.46 301.44,-375.49 382.82,-386.05"/>
<polygon fill="#2bacac" stroke="black" points="382.24,-389.51 392.6,-387.32 383.13,-382.56 382.24,-389.51"/>
</g>
<!-- src_enemy&#45;&gt;src_vector -->
<g id="edge34" class="edge">
<title>src_enemy&#45;&gt;src_vector</title><style>.edge>path:hover{stroke-width:8}</style>
<path fill="none" stroke="black" d="M49,-183.94C32.22,-196.23 11.05,-215.98 5.85,-240.13"/>
</g>
<!-- src_weapon -->
<g id="node13" class="node">
<title>src_weapon</title><style>.edge>path:hover{stroke-width:8}</style>
<ellipse fill="#14b8b8" stroke="black" cx="249.85" cy="-241.13" rx="39.2" ry="18"/>
<text xml:space="preserve" text-anchor="middle" x="249.85" y="-237.26" font-family="Helvetica,sans-Serif" font-size="10.00" fill="#000000">src.weapon</text>
</g>
<!-- src_enemy&#45;&gt;src_weapon -->
<g id="edge41" class="edge">
<title>src_enemy&#45;&gt;src_weapon</title><style>.edge>path:hover{stroke-width:8}</style>
<path fill="none" stroke="black" d="M98.82,-181.07C128.72,-192.76 176.38,-211.4 210.16,-224.61"/>
<polygon fill="#2bacac" stroke="black" points="208.6,-227.76 219.19,-228.14 211.15,-221.24 208.6,-227.76"/>
</g>
<!-- src_enemySpawner -->
<g id="node5" class="node">
<title>src_enemySpawner</title><style>.edge>path:hover{stroke-width:8}</style>
<ellipse fill="#2e8a8a" stroke="black" cx="222.85" cy="-93.57" rx="59.04" ry="21.57"/>
<text xml:space="preserve" text-anchor="middle" x="222.85" y="-95.32" font-family="Helvetica,sans-Serif" font-size="10.00" fill="#ffffff">src.</text>
<text xml:space="preserve" text-anchor="middle" x="222.85" y="-84.07" font-family="Helvetica,sans-Serif" font-size="10.00" fill="#ffffff">enemySpawner</text>
</g>
<!-- src_enemySpawner&#45;&gt;src_bullet -->
<g id="edge7" class="edge">
<title>src_enemySpawner&#45;&gt;src_bullet</title><style>.edge>path:hover{stroke-width:8}</style>
<path fill="none" stroke="black" d="M321.85,-242.13C325.86,-262.77 340.84,-281 354.96,-294.15"/>
<polygon fill="#2e8a8a" stroke="black" points="352.56,-296.7 362.39,-300.66 357.17,-291.44 352.56,-296.7"/>
</g>
<!-- src_enemySpawner&#45;&gt;src_enemy -->
<g id="edge11" class="edge">
<title>src_enemySpawner&#45;&gt;src_enemy</title><style>.edge>path:hover{stroke-width:8}</style>
<path fill="none" stroke="black" d="M187.98,-111.44C163.55,-123.27 131,-139.02 106.42,-150.92"/>
<polygon fill="#2e8a8a" stroke="black" points="104.92,-147.76 97.44,-155.26 107.97,-154.06 104.92,-147.76"/>
</g>
<!-- src_entityRegistry -->
<g id="node7" class="node">
<title>src_entityRegistry</title><style>.edge>path:hover{stroke-width:8}</style>
<ellipse fill="#24d0d0" stroke="black" cx="163.85" cy="-316.7" rx="54.27" ry="21.57"/>
<text xml:space="preserve" text-anchor="middle" x="163.85" y="-318.45" font-family="Helvetica,sans-Serif" font-size="10.00" fill="#000000">src.</text>
<text xml:space="preserve" text-anchor="middle" x="163.85" y="-307.2" font-family="Helvetica,sans-Serif" font-size="10.00" fill="#000000">entityRegistry</text>
</g>
<!-- src_enemySpawner&#45;&gt;src_entityRegistry -->
<g id="edge20" class="edge">
<title>src_enemySpawner&#45;&gt;src_entityRegistry</title><style>.edge>path:hover{stroke-width:8}</style>
<path fill="none" stroke="black" d="M187.54,-111.05C166.56,-123.29 142.75,-142.34 135.85,-168.13"/>
</g>
<!-- src_player -->
<g id="node9" class="node">
<title>src_player</title><style>.edge>path:hover{stroke-width:8}</style>
<ellipse fill="#269b9b" stroke="black" cx="506.85" cy="-169.13" rx="34.76" ry="18"/>
<text xml:space="preserve" text-anchor="middle" x="506.85" y="-165.26" font-family="Helvetica,sans-Serif" font-size="10.00" fill="#ffffff">src.player</text>
</g>
<!-- src_enemySpawner&#45;&gt;src_player -->
<g id="edge23" class="edge">
<title>src_enemySpawner&#45;&gt;src_player</title><style>.edge>path:hover{stroke-width:8}</style>
<path fill="none" stroke="black" d="M273.2,-105.19C321.04,-115.64 394.83,-132.66 457.85,-151.13 461.2,-152.11 464.66,-153.19 468.11,-154.3"/>
<polygon fill="#2e8a8a" stroke="black" points="466.99,-157.62 477.58,-157.47 469.21,-150.98 466.99,-157.62"/>
</g>
<!-- src_enemySpawner&#45;&gt;src_time -->
<g id="edge28" class="edge">
<title>src_enemySpawner&#45;&gt;src_time</title><style>.edge>path:hover{stroke-width:8}</style>
<path fill="none" stroke="black" d="M264.43,-109.19C287.28,-118.66 315.12,-132.69 335.85,-151.13 401.21,-209.28 415.91,-232.8 443.85,-315.7"/>
</g>
<!-- src_enemySpawner&#45;&gt;src_vector -->
<g id="edge35" class="edge">
<title>src_enemySpawner&#45;&gt;src_vector</title><style>.edge>path:hover{stroke-width:8}</style>
<path fill="none" stroke="black" d="M321.85,-242.13C336.54,-317.74 313.87,-341.16 279.85,-410.27 266.58,-437.23 243.83,-433.81 237.85,-463.27"/>
<path fill="none" stroke="black" d="M321.85,-170.13C328.87,-200.44 316,-209.58 321.85,-240.13"/>
</g>
<!-- src_enemySpawner&#45;&gt;src_weapon -->
<g id="edge42" class="edge">
<title>src_enemySpawner&#45;&gt;src_weapon</title><style>.edge>path:hover{stroke-width:8}</style>
<path fill="none" stroke="black" d="M263.92,-109.46C288.16,-121.05 315.33,-139.97 321.85,-168.13"/>
<path fill="none" stroke="black" d="M321.85,-170.13C327.03,-192.51 307.82,-210.39 287.94,-222.48"/>
<polygon fill="#2e8a8a" stroke="black" points="286.24,-219.42 279.24,-227.37 289.67,-225.52 286.24,-219.42"/>
</g>
<!-- src_entity&#45;&gt;pygame -->
<g id="edge1" class="edge">
<title>src_entity&#45;&gt;pygame</title><style>.edge>path:hover{stroke-width:8}</style>
<path fill="none" stroke="black" d="M205.79,-398.06C178.02,-404.09 139.46,-417.41 120.85,-446.27 112.18,-459.71 114.68,-467.51 120.85,-482.27 147.37,-545.67 225.65,-580.64 273.06,-596.53"/>
<polygon fill="#05c7c7" stroke="black" points="271.79,-599.8 282.38,-599.53 273.93,-593.13 271.79,-599.8"/>
</g>
<!-- src_entity&#45;&gt;src_collision -->
<g id="edge10" class="edge">
<title>src_entity&#45;&gt;src_collision</title><style>.edge>path:hover{stroke-width:8}</style>
<path fill="none" stroke="black" d="M222.76,-408.8C214.08,-417.74 202.99,-429.16 193.2,-439.23"/>
<polygon fill="#05c7c7" stroke="black" points="190.89,-436.59 186.43,-446.2 195.91,-441.47 190.89,-436.59"/>
</g>
<!-- src_renderable -->
<g id="node10" class="node">
<title>src_renderable</title><style>.edge>path:hover{stroke-width:8}</style>
<ellipse fill="#3ab0b0" stroke="black" cx="311.85" cy="-464.27" rx="45.86" ry="18"/>
<text xml:space="preserve" text-anchor="middle" x="311.85" y="-460.39" font-family="Helvetica,sans-Serif" font-size="10.00" fill="#000000">src.renderable</text>
</g>
<!-- src_entity&#45;&gt;src_renderable -->
<g id="edge25" class="edge">
<title>src_entity&#45;&gt;src_renderable</title><style>.edge>path:hover{stroke-width:8}</style>
<path fill="none" stroke="black" d="M253.91,-408.46C263.44,-417.47 275.72,-429.09 286.53,-439.31"/>
<polygon fill="#05c7c7" stroke="black" points="284.03,-441.76 293.7,-446.09 288.84,-436.68 284.03,-441.76"/>
</g>
<!-- src_entity&#45;&gt;src_vector -->
<g id="edge36" class="edge">
<title>src_entity&#45;&gt;src_vector</title><style>.edge>path:hover{stroke-width:8}</style>
<path fill="none" stroke="black" d="M239.76,-410.72C240.87,-425 241.43,-445.64 237.85,-463.27"/>
<path fill="none" stroke="black" d="M237.85,-465.27C235.14,-478.62 234.8,-493.71 235.28,-506.45"/>
<polygon fill="#05c7c7" stroke="black" points="231.78,-506.52 235.85,-516.3 238.77,-506.12 231.78,-506.52"/>
</g>
<!-- src_entity&#45;&gt;src_window -->
<g id="edge46" class="edge">
<title>src_entity&#45;&gt;src_window</title><style>.edge>path:hover{stroke-width:8}</style>
<path fill="none" stroke="black" d="M266.87,-401.3C311.13,-413.54 395.78,-436.96 447.39,-451.24"/>
<polygon fill="#05c7c7" stroke="black" points="446.16,-454.53 456.73,-453.83 448.03,-447.79 446.16,-454.53"/>
</g>
<!-- src_entityRegistry&#45;&gt;src_entity -->
<g id="edge16" class="edge">
<title>src_entityRegistry&#45;&gt;src_entity</title><style>.edge>path:hover{stroke-width:8}</style>
<path fill="none" stroke="black" d="M183.3,-337.03C192.93,-346.61 204.63,-358.24 214.73,-368.28"/>
<polygon fill="#24d0d0" stroke="black" points="212.11,-370.61 221.67,-375.18 217.05,-365.65 212.11,-370.61"/>
</g>
<!-- src_main -->
<g id="node8" class="node">
<title>src_main</title><style>.edge>path:hover{stroke-width:8}</style>
<ellipse fill="#2e6b6b" stroke="black" cx="222.85" cy="-18" rx="31.66" ry="18"/>
<text xml:space="preserve" text-anchor="middle" x="222.85" y="-14.12" font-family="Helvetica,sans-Serif" font-size="10.00" fill="#ffffff">src.main</text>
</g>
<!-- src_main&#45;&gt;pygame -->
<g id="edge2" class="edge">
<title>src_main&#45;&gt;pygame</title><style>.edge>path:hover{stroke-width:8}</style>
<path fill="none" stroke="black" d="M595.85,-393.27C595,-395.12 558.31,-533.28 557.85,-535.27"/>
</g>
<!-- src_main&#45;&gt;src_bullet -->
<g id="edge8" class="edge">
<title>src_main&#45;&gt;src_bullet</title><style>.edge>path:hover{stroke-width:8}</style>
<path fill="none" stroke="black" d="M506.85,-94.57C524.85,-120.85 479.68,-124.09 462.85,-151.13 434.19,-197.17 408.18,-254.98 394.03,-288.4"/>
<polygon fill="#2e6b6b" stroke="black" points="390.92,-286.77 390.29,-297.35 397.38,-289.47 390.92,-286.77"/>
<path fill="none" stroke="black" d="M253.94,-22.57C320.63,-30.91 474.05,-53.94 506.85,-92.57"/>
</g>
<!-- src_main&#45;&gt;src_enemy -->
<g id="edge12" class="edge">
<title>src_main&#45;&gt;src_enemy</title><style>.edge>path:hover{stroke-width:8}</style>
<path fill="none" stroke="black" d="M135.85,-94.57C122.4,-111.64 106.22,-129.96 93.37,-144.05"/>
<polygon fill="#2e6b6b" stroke="black" points="91.07,-141.38 86.87,-151.11 96.22,-146.12 91.07,-141.38"/>
</g>
<!-- src_main&#45;&gt;src_enemySpawner -->
<g id="edge13" class="edge">
<title>src_main&#45;&gt;src_enemySpawner</title><style>.edge>path:hover{stroke-width:8}</style>
<path fill="none" stroke="black" d="M222.85,-36.43C222.85,-43.6 222.85,-52.13 222.85,-60.35"/>
<polygon fill="#2e6b6b" stroke="black" points="219.35,-60.08 222.85,-70.08 226.35,-60.08 219.35,-60.08"/>
</g>
<!-- src_main&#45;&gt;src_entity -->
<g id="edge17" class="edge">
<title>src_main&#45;&gt;src_entity</title><style>.edge>path:hover{stroke-width:8}</style>
<path fill="none" stroke="black" d="M5.85,-170.13C2.04,-179.33 60.64,-331.41 67.85,-338.27 101.87,-370.59 155.32,-383.22 193.19,-388.14"/>
<polygon fill="#2e6b6b" stroke="black" points="192.57,-391.59 202.9,-389.26 193.37,-384.64 192.57,-391.59"/>
</g>
<!-- src_main&#45;&gt;src_entityRegistry -->
<g id="edge21" class="edge">
<title>src_main&#45;&gt;src_entityRegistry</title><style>.edge>path:hover{stroke-width:8}</style>
<path fill="none" stroke="black" d="M135.85,-170.13C125.42,-209.16 138.31,-255.04 149.84,-284.71"/>
<polygon fill="#2e6b6b" stroke="black" points="146.54,-285.91 153.57,-293.84 153.02,-283.26 146.54,-285.91"/>
<path fill="none" stroke="black" d="M135.85,-94.57C115.64,-120.27 144.03,-136.48 135.85,-168.13"/>
</g>
<!-- src_main&#45;&gt;src_player -->
<g id="edge24" class="edge">
<title>src_main&#45;&gt;src_player</title><style>.edge>path:hover{stroke-width:8}</style>
<path fill="none" stroke="black" d="M506.85,-94.57C515.79,-107.62 516.08,-125.27 514,-140.01"/>
<polygon fill="#2e6b6b" stroke="black" points="510.6,-139.1 512.21,-149.57 517.49,-140.38 510.6,-139.1"/>
</g>
<!-- src_main&#45;&gt;src_time -->
<g id="edge29" class="edge">
<title>src_main&#45;&gt;src_time</title><style>.edge>path:hover{stroke-width:8}</style>
<path fill="none" stroke="black" d="M506.85,-94.57C537.28,-130.4 572.27,-122.33 582.85,-168.13"/>
<path fill="none" stroke="black" d="M582.85,-170.13C603.15,-258 504.97,-337.67 453.57,-372.6"/>
<polygon fill="#2e6b6b" stroke="black" points="451.91,-369.5 445.51,-377.95 455.78,-375.33 451.91,-369.5"/>
</g>
<!-- src_main&#45;&gt;src_vector -->
<g id="edge37" class="edge">
<title>src_main&#45;&gt;src_vector</title><style>.edge>path:hover{stroke-width:8}</style>
<path fill="none" stroke="black" d="M5.85,-242.13C0.81,-265.56 87.05,-459.14 110.85,-482.27 133.79,-504.56 167.47,-518.03 194.38,-525.81"/>
<polygon fill="#2e6b6b" stroke="black" points="193.42,-529.17 203.99,-528.41 195.25,-522.42 193.42,-529.17"/>
<path fill="none" stroke="black" d="M5.85,-170.13C-7.58,-198.19 7.88,-209.09 5.85,-240.13"/>
<path fill="none" stroke="black" d="M135.85,-94.57C94.82,-146.75 34.52,-108.25 5.85,-168.13"/>
<path fill="none" stroke="black" d="M202.86,-32.29C183.78,-45.73 155.17,-68 135.85,-92.57"/>
</g>
<!-- src_main&#45;&gt;src_weapon -->
<g id="edge43" class="edge">
<title>src_main&#45;&gt;src_weapon</title><style>.edge>path:hover{stroke-width:8}</style>
<path fill="none" stroke="black" d="M135.85,-94.57C117.61,-117.71 184.18,-182.54 223.29,-217.35"/>
<polygon fill="#2e6b6b" stroke="black" points="220.69,-219.72 230.5,-223.7 225.31,-214.47 220.69,-219.72"/>
</g>
<!-- src_main&#45;&gt;src_window -->
<g id="edge47" class="edge">
<title>src_main&#45;&gt;src_window</title><style>.edge>path:hover{stroke-width:8}</style>
<path fill="none" stroke="black" d="M595.85,-393.27C586.76,-421.15 558.47,-439.02 533.54,-449.71"/>
<polygon fill="#2e6b6b" stroke="black" points="532.52,-446.35 524.53,-453.31 535.11,-452.85 532.52,-446.35"/>
<path fill="none" stroke="black" d="M582.85,-170.13C622.24,-260.36 626.36,-297.66 595.85,-391.27"/>
</g>
<!-- src_player&#45;&gt;pygame -->
<g id="edge3" class="edge">
<title>src_player&#45;&gt;pygame</title><style>.edge>path:hover{stroke-width:8}</style>
<path fill="none" stroke="black" d="M557.85,-465.27C537.35,-488.67 564.82,-504.95 557.85,-535.27"/>
</g>
<!-- src_player&#45;&gt;src_entity -->
<g id="edge18" class="edge">
<title>src_player&#45;&gt;src_entity</title><style>.edge>path:hover{stroke-width:8}</style>
<path fill="none" stroke="black" d="M486.65,-184.29C454.87,-206.81 391.56,-252.58 340.85,-295.13 312.49,-318.94 281.66,-348.2 261.19,-368.15"/>
<polygon fill="#269b9b" stroke="black" points="258.87,-365.52 254.17,-375.02 263.76,-370.52 258.87,-365.52"/>
</g>
<!-- src_player&#45;&gt;src_time -->
<g id="edge30" class="edge">
<title>src_player&#45;&gt;src_time</title><style>.edge>path:hover{stroke-width:8}</style>
<path fill="none" stroke="black" d="M504.07,-187.19C499.6,-214.4 490.45,-269.31 481.85,-315.7"/>
<path fill="none" stroke="black" d="M481.85,-317.7C476.37,-337.5 462.18,-355.68 449.2,-369"/>
<polygon fill="#269b9b" stroke="black" points="446.76,-366.49 442.04,-375.98 451.65,-371.51 446.76,-366.49"/>
</g>
<!-- src_player&#45;&gt;src_vector -->
<g id="edge38" class="edge">
<title>src_player&#45;&gt;src_vector</title><style>.edge>path:hover{stroke-width:8}</style>
<path fill="none" stroke="black" d="M557.85,-465.27C528.46,-510.73 365.8,-527.29 284.35,-532.79"/>
<polygon fill="#269b9b" stroke="black" points="284.21,-529.29 274.46,-533.42 284.66,-536.28 284.21,-529.29"/>
<path fill="none" stroke="black" d="M517.11,-186.64C545.04,-233.94 616.61,-372.39 557.85,-463.27"/>
</g>
<!-- src_player&#45;&gt;src_weapon -->
<g id="edge44" class="edge">
<title>src_player&#45;&gt;src_weapon</title><style>.edge>path:hover{stroke-width:8}</style>
<path fill="none" stroke="black" d="M476.11,-178.07C436.95,-188.23 367.25,-206.52 307.85,-223.13 303,-224.49 297.93,-225.93 292.9,-227.39"/>
<polygon fill="#269b9b" stroke="black" points="292.1,-223.97 283.48,-230.13 294.06,-230.7 292.1,-223.97"/>
</g>
<!-- src_player&#45;&gt;src_window -->
<g id="edge48" class="edge">
<title>src_player&#45;&gt;src_window</title><style>.edge>path:hover{stroke-width:8}</style>
<path fill="none" stroke="black" d="M481.85,-317.7C470.87,-357.38 477.47,-405.38 483.75,-435.12"/>
<polygon fill="#269b9b" stroke="black" points="480.32,-435.85 485.94,-444.83 487.15,-434.3 480.32,-435.85"/>
</g>
<!-- src_renderable&#45;&gt;pygame -->
<g id="edge4" class="edge">
<title>src_renderable&#45;&gt;pygame</title><style>.edge>path:hover{stroke-width:8}</style>
<path fill="none" stroke="black" d="M557.85,-537.27C548.74,-578.19 419.65,-596.77 351.82,-603.74"/>
<polygon fill="#3ab0b0" stroke="black" points="351.82,-600.23 342.21,-604.69 352.5,-607.19 351.82,-600.23"/>
<path fill="none" stroke="black" d="M353.11,-472.67C424.35,-486.02 562.44,-514.65 557.85,-535.27"/>
</g>
<!-- src_renderable&#45;&gt;src_vector -->
<g id="edge39" class="edge">
<title>src_renderable&#45;&gt;src_vector</title><style>.edge>path:hover{stroke-width:8}</style>
<path fill="none" stroke="black" d="M295.06,-481.15C285.37,-490.32 273.01,-502.01 262.26,-512.18"/>
<polygon fill="#3ab0b0" stroke="black" points="260.03,-509.47 255.17,-518.89 264.84,-514.56 260.03,-509.47"/>
</g>
<!-- src_time&#45;&gt;pygame -->
<g id="edge5" class="edge">
<title>src_time&#45;&gt;pygame</title><style>.edge>path:hover{stroke-width:8}</style>
<path fill="none" stroke="black" d="M423.17,-410.59C423.31,-430.07 426.37,-461.66 442.85,-482.27 478,-526.22 570.08,-480.33 557.85,-535.27"/>
</g>
<!-- src_weapon&#45;&gt;src_bullet -->
<g id="edge9" class="edge">
<title>src_weapon&#45;&gt;src_bullet</title><style>.edge>path:hover{stroke-width:8}</style>
<path fill="none" stroke="black" d="M274.25,-255.63C295.67,-267.48 327.01,-284.81 350.52,-297.82"/>
<polygon fill="#14b8b8" stroke="black" points="348.62,-300.76 359.06,-302.54 352,-294.64 348.62,-300.76"/>
</g>
<!-- src_weapon&#45;&gt;src_entity -->
<g id="edge19" class="edge">
<title>src_weapon&#45;&gt;src_entity</title><style>.edge>path:hover{stroke-width:8}</style>
<path fill="none" stroke="black" d="M245.85,-317.7C240.68,-331.89 238.57,-348.56 237.8,-362.44"/>
<polygon fill="#14b8b8" stroke="black" points="234.31,-362.17 237.48,-372.28 241.31,-362.4 234.31,-362.17"/>
</g>
<!-- src_weapon&#45;&gt;src_entityRegistry -->
<g id="edge22" class="edge">
<title>src_weapon&#45;&gt;src_entityRegistry</title><style>.edge>path:hover{stroke-width:8}</style>
<path fill="none" stroke="black" d="M232.03,-257.38C221.16,-266.68 206.97,-278.82 194.35,-289.61"/>
<polygon fill="#14b8b8" stroke="black" points="192.4,-286.67 187.08,-295.83 196.95,-291.99 192.4,-286.67"/>
</g>
<!-- src_weapon&#45;&gt;src_time -->
<g id="edge31" class="edge">
<title>src_weapon&#45;&gt;src_time</title><style>.edge>path:hover{stroke-width:8}</style>
<path fill="none" stroke="black" d="M282.05,-251.65C331.74,-266.37 421.74,-293.19 424.85,-295.13 435.4,-301.74 439.88,-303.91 443.85,-315.7"/>
<path fill="none" stroke="black" d="M443.85,-317.7C449.07,-333.19 444.6,-350.86 438.57,-365"/>
<polygon fill="#14b8b8" stroke="black" points="435.59,-363.13 434.45,-373.66 441.91,-366.14 435.59,-363.13"/>
</g>
<!-- src_weapon&#45;&gt;src_vector -->
<g id="edge40" class="edge">
<title>src_weapon&#45;&gt;src_vector</title><style>.edge>path:hover{stroke-width:8}</style>
<path fill="none" stroke="black" d="M245.85,-317.7C232.2,-355.14 135.93,-409.38 120.85,-446.27 114.8,-461.08 112.18,-468.82 120.85,-482.27 136.8,-507 167.4,-520.32 193.3,-527.42"/>
<polygon fill="#14b8b8" stroke="black" points="192.42,-530.8 202.96,-529.81 194.1,-524.01 192.42,-530.8"/>
<path fill="none" stroke="black" d="M251,-259.42C251.52,-274.55 251.09,-296.98 245.85,-315.7"/>
</g>
<!-- src_window&#45;&gt;pygame -->
<g id="edge6" class="edge">
<title>src_window&#45;&gt;pygame</title><style>.edge>path:hover{stroke-width:8}</style>
<path fill="none" stroke="black" d="M516.97,-477.71C538.09,-489.78 563.48,-509.98 557.85,-535.27"/>
</g>
</g>
</svg>
