<?xml version="1.0" encoding="UTF-8" standalone="no"?>
<!DOCTYPE svg PUBLIC "-//W3C//DTD SVG 1.1//EN"
 "http://www.w3.org/Graphics/SVG/1.1/DTD/svg11.dtd">
<!-- Generated by graphviz version 14.1.3 (20260303.0454)
 -->
<!-- Title: G Pages: 1 -->
<svg width="604pt" height="634pt"
 viewBox="0.00 0.00 604.00 634.00" xmlns="http://www.w3.org/2000/svg" xmlns:xlink="http://www.w3.org/1999/xlink">
<g id="graph0" class="graph" transform="scale(1 1) rotate(0) translate(4 630.27)">
<title>G</title><style>.edge>path:hover{stroke-width:8}</style>
<polygon fill="white" stroke="none" points="-4,4 -4,-630.27 600.22,-630.27 600.22,4 -4,4"/>
<!-- pygame -->
<g id="node1" class="node">
<title>pygame</title><style>.edge>path:hover{stroke-width:8}</style>
<ellipse fill="#f90606" stroke="black" cx="318.66" cy="-608.27" rx="29.88" ry="18"/>
<text xml:space="preserve" text-anchor="middle" x="318.66" y="-604.39" font-family="Helvetica,sans-Serif" font-size="10.00" fill="#ffffff">pygame</text>
</g>
<!-- src_entity -->
<g id="node6" class="node">
<title>src_entity</title><style>.edge>path:hover{stroke-width:8}</style>
<ellipse fill="#05c7c7" stroke="black" cx="240.66" cy="-392.27" rx="33.43" ry="18"/>
<text xml:space="preserve" text-anchor="middle" x="240.66" y="-388.39" font-family="Helvetica,sans-Serif" font-size="10.00" fill="#000000">src.entity</text>
</g>
<!-- pygame&#45;&gt;src_entity -->
<g id="edge1" class="edge">
<title>pygame&#45;&gt;src_entity</title><style>.edge>path:hover{stroke-width:8}</style>
<path fill="none" stroke="black" d="M119.66,-535.27C90.1,-507.66 114.15,-478.44 138.66,-446.27 153.9,-426.26 178.86,-413.11 200.27,-404.91"/>
<polygon fill="#f90606" stroke="black" points="201.4,-408.22 209.65,-401.57 199.05,-401.63 201.4,-408.22"/>
</g>
<!-- src_main -->
<g id="node8" class="node">
<title>src_main</title><style>.edge>path:hover{stroke-width:8}</style>
<ellipse fill="#2e6b6b" stroke="black" cx="400.66" cy="-18" rx="31.66" ry="18"/>
<text xml:space="preserve" text-anchor="middle" x="400.66" y="-14.12" font-family="Helvetica,sans-Serif" font-size="10.00" fill="#ffffff">src.main</text>
</g>
<!-- pygame&#45;&gt;src_main -->
<g id="edge2" class="edge">
<title>pygame&#45;&gt;src_main</title><style>.edge>path:hover{stroke-width:8}</style>
<path fill="none" stroke="black" d="M555.66,-535.27C628.07,-456.62 583.43,-401.15 569.66,-295.13 566.53,-270.97 552.39,-266.28 555.66,-242.13"/>
</g>
<!-- src_player -->
<g id="node9" class="node">
<title>src_player</title><style>.edge>path:hover{stroke-width:8}</style>
<ellipse fill="#269b9b" stroke="black" cx="261.66" cy="-169.13" rx="34.76" ry="18"/>
<text xml:space="preserve" text-anchor="middle" x="261.66" y="-165.26" font-family="Helvetica,sans-Serif" font-size="10.00" fill="#ffffff">src.player</text>
</g>
<!-- pygame&#45;&gt;src_player -->
<g id="edge3" class="edge">
<title>pygame&#45;&gt;src_player</title><style>.edge>path:hover{stroke-width:8}</style>
<path fill="none" stroke="black" d="M119.66,-535.27C78.91,-496.46 35.01,-529.66 4.66,-482.27 -12.8,-455 26.54,-377.08 27.66,-374.27 55.44,-304.4 46.37,-271.82 103.66,-223.13 135.75,-195.86 182.42,-182.47 216.73,-175.99"/>
<polygon fill="#f90606" stroke="black" points="217.11,-179.48 226.35,-174.31 215.9,-172.58 217.11,-179.48"/>
<path fill="none" stroke="black" d="M289.13,-604.8C246.14,-599.66 166.37,-584.05 119.66,-537.27"/>
</g>
<!-- src_renderable -->
<g id="node10" class="node">
<title>src_renderable</title><style>.edge>path:hover{stroke-width:8}</style>
<ellipse fill="#3ab0b0" stroke="black" cx="193.66" cy="-464.27" rx="45.86" ry="18"/>
<text xml:space="preserve" text-anchor="middle" x="193.66" y="-460.39" font-family="Helvetica,sans-Serif" font-size="10.00" fill="#000000">src.renderable</text>
</g>
<!-- pygame&#45;&gt;src_renderable -->
<g id="edge4" class="edge">
<title>pygame&#45;&gt;src_renderable</title><style>.edge>path:hover{stroke-width:8}</style>
<path fill="none" stroke="black" d="M119.66,-535.27C100.87,-517.71 127.31,-497.51 153.65,-483.34"/>
<polygon fill="#f90606" stroke="black" points="155,-486.58 162.3,-478.91 151.81,-480.35 155,-486.58"/>
</g>
<!-- src_time -->
<g id="node11" class="node">
<title>src_time</title><style>.edge>path:hover{stroke-width:8}</style>
<ellipse fill="#06f9f9" stroke="black" cx="479.66" cy="-392.27" rx="30.32" ry="18"/>
<text xml:space="preserve" text-anchor="middle" x="479.66" y="-388.39" font-family="Helvetica,sans-Serif" font-size="10.00" fill="#000000">src.time</text>
</g>
<!-- pygame&#45;&gt;src_time -->
<g id="edge5" class="edge">
<title>pygame&#45;&gt;src_time</title><style>.edge>path:hover{stroke-width:8}</style>
<path fill="none" stroke="black" d="M347.49,-603.1C405,-594.13 530.62,-571.04 555.66,-537.27"/>
<path fill="none" stroke="black" d="M555.66,-535.27C585.04,-495.64 537.84,-443.2 505.65,-414.42"/>
<polygon fill="#f90606" stroke="black" points="508.04,-411.85 498.19,-407.95 503.45,-417.14 508.04,-411.85"/>
</g>
<!-- src_window -->
<g id="node14" class="node">
<title>src_window</title><style>.edge>path:hover{stroke-width:8}</style>
<ellipse fill="#19e6e6" stroke="black" cx="52.66" cy="-464.27" rx="38.76" ry="18"/>
<text xml:space="preserve" text-anchor="middle" x="52.66" y="-460.39" font-family="Helvetica,sans-Serif" font-size="10.00" fill="#000000">src.window</text>
</g>
<!-- pygame&#45;&gt;src_window -->
<g id="edge6" class="edge">
<title>pygame&#45;&gt;src_window</title><style>.edge>path:hover{stroke-width:8}</style>
<path fill="none" stroke="black" d="M119.66,-535.27C104.13,-520.76 87.61,-503.53 74.87,-489.79"/>
<polygon fill="#f90606" stroke="black" points="77.45,-487.43 68.1,-482.44 72.3,-492.17 77.45,-487.43"/>
</g>
<!-- src_bullet -->
<g id="node2" class="node">
<title>src_bullet</title><style>.edge>path:hover{stroke-width:8}</style>
<ellipse fill="#20b6b6" stroke="black" cx="342.66" cy="-316.7" rx="32.99" ry="18"/>
<text xml:space="preserve" text-anchor="middle" x="342.66" y="-312.83" font-family="Helvetica,sans-Serif" font-size="10.00" fill="#000000">src.bullet</text>
</g>
<!-- src_enemySpawner -->
<g id="node5" class="node">
<title>src_enemySpawner</title><style>.edge>path:hover{stroke-width:8}</style>
<ellipse fill="#2e8a8a" stroke="black" cx="400.66" cy="-93.57" rx="59.04" ry="21.57"/>
<text xml:space="preserve" text-anchor="middle" x="400.66" y="-95.32" font-family="Helvetica,sans-Serif" font-size="10.00" fill="#ffffff">src.</text>
<text xml:space="preserve" text-anchor="middle" x="400.66" y="-84.07" font-family="Helvetica,sans-Serif" font-size="10.00" fill="#ffffff">enemySpawner</text>
</g>
<!-- src_bullet&#45;&gt;src_enemySpawner -->
<g id="edge7" class="edge">
<title>src_bullet&#45;&gt;src_enemySpawner</title><style>.edge>path:hover{stroke-width:8}</style>
<path fill="none" stroke="black" d="M358.08,-300.42C367.66,-289.82 379.18,-274.84 384.66,-259.13 397.72,-221.77 377.84,-208.47 387.66,-170.13"/>
</g>
<!-- src_bullet&#45;&gt;src_main -->
<g id="edge8" class="edge">
<title>src_bullet&#45;&gt;src_main</title><style>.edge>path:hover{stroke-width:8}</style>
<path fill="none" stroke="black" d="M311.91,-309.68C276.2,-300.84 223.17,-280.98 231.66,-242.13"/>
</g>
<!-- src_weapon -->
<g id="node13" class="node">
<title>src_weapon</title><style>.edge>path:hover{stroke-width:8}</style>
<ellipse fill="#14b8b8" stroke="black" cx="336.66" cy="-241.13" rx="39.2" ry="18"/>
<text xml:space="preserve" text-anchor="middle" x="336.66" y="-237.26" font-family="Helvetica,sans-Serif" font-size="10.00" fill="#000000">src.weapon</text>
</g>
<!-- src_bullet&#45;&gt;src_weapon -->
<g id="edge9" class="edge">
<title>src_bullet&#45;&gt;src_weapon</title><style>.edge>path:hover{stroke-width:8}</style>
<path fill="none" stroke="black" d="M341.24,-298.27C340.57,-290.02 339.75,-279.96 338.99,-270.65"/>
<polygon fill="#20b6b6" stroke="black" points="342.5,-270.63 338.2,-260.95 335.52,-271.2 342.5,-270.63"/>
</g>
<!-- src_collision -->
<g id="node3" class="node">
<title>src_collision</title><style>.edge>path:hover{stroke-width:8}</style>
<ellipse fill="#3db8b8" stroke="black" cx="335.66" cy="-464.27" rx="40.09" ry="18"/>
<text xml:space="preserve" text-anchor="middle" x="335.66" y="-460.39" font-family="Helvetica,sans-Serif" font-size="10.00" fill="#000000">src.collision</text>
</g>
<!-- src_collision&#45;&gt;src_entity -->
<g id="edge10" class="edge">
<title>src_collision&#45;&gt;src_entity</title><style>.edge>path:hover{stroke-width:8}</style>
<path fill="none" stroke="black" d="M315.52,-448.42C301.89,-438.38 283.72,-424.99 268.69,-413.92"/>
<polygon fill="#3db8b8" stroke="black" points="271.15,-411.39 261.03,-408.27 267,-417.02 271.15,-411.39"/>
</g>
<!-- src_enemy -->
<g id="node4" class="node">
<title>src_enemy</title><style>.edge>path:hover{stroke-width:8}</style>
<ellipse fill="#2bacac" stroke="black" cx="452.66" cy="-169.13" rx="36.54" ry="18"/>
<text xml:space="preserve" text-anchor="middle" x="452.66" y="-165.26" font-family="Helvetica,sans-Serif" font-size="10.00" fill="#000000">src.enemy</text>
</g>
<!-- src_enemy&#45;&gt;src_enemySpawner -->
<g id="edge11" class="edge">
<title>src_enemy&#45;&gt;src_enemySpawner</title><style>.edge>path:hover{stroke-width:8}</style>
<path fill="none" stroke="black" d="M441.12,-151.81C435.33,-143.62 428.14,-133.44 421.43,-123.95"/>
<polygon fill="#2bacac" stroke="black" points="424.46,-122.17 415.83,-116.02 418.74,-126.21 424.46,-122.17"/>
</g>
<!-- src_enemy&#45;&gt;src_main -->
<g id="edge12" class="edge">
<title>src_enemy&#45;&gt;src_main</title><style>.edge>path:hover{stroke-width:8}</style>
<path fill="none" stroke="black" d="M485.07,-160.41C518.66,-150.41 565.05,-129.93 555.66,-94.57"/>
<path fill="none" stroke="black" d="M555.66,-92.57C543.33,-46.12 484.98,-29 443.52,-22.69"/>
<polygon fill="#2bacac" stroke="black" points="444.2,-19.25 433.82,-21.38 443.26,-26.18 444.2,-19.25"/>
</g>
<!-- src_enemySpawner&#45;&gt;src_main -->
<g id="edge13" class="edge">
<title>src_enemySpawner&#45;&gt;src_main</title><style>.edge>path:hover{stroke-width:8}</style>
<path fill="none" stroke="black" d="M400.66,-71.68C400.66,-64.24 400.66,-55.71 400.66,-47.72"/>
<polygon fill="#2e8a8a" stroke="black" points="404.16,-47.73 400.66,-37.73 397.16,-47.73 404.16,-47.73"/>
</g>
<!-- src_entity&#45;&gt;src_bullet -->
<g id="edge14" class="edge">
<title>src_entity&#45;&gt;src_bullet</title><style>.edge>path:hover{stroke-width:8}</style>
<path fill="none" stroke="black" d="M259.85,-377.43C275.14,-366.4 296.78,-350.79 314.1,-338.3"/>
<polygon fill="#05c7c7" stroke="black" points="315.93,-341.3 321.99,-332.61 311.83,-335.62 315.93,-341.3"/>
</g>
<!-- src_entity&#45;&gt;src_enemy -->
<g id="edge15" class="edge">
<title>src_entity&#45;&gt;src_enemy</title><style>.edge>path:hover{stroke-width:8}</style>
<path fill="none" stroke="black" d="M272.75,-386.66C339.16,-375.16 485.1,-338.82 479.66,-242.13"/>
<path fill="none" stroke="black" d="M479.66,-240.13C478.89,-225.24 473.41,-209.67 467.59,-197.01"/>
<polygon fill="#05c7c7" stroke="black" points="470.74,-195.48 463.16,-188.07 464.46,-198.59 470.74,-195.48"/>
</g>
<!-- src_entityRegistry -->
<g id="node7" class="node">
<title>src_entityRegistry</title><style>.edge>path:hover{stroke-width:8}</style>
<ellipse fill="#24d0d0" stroke="black" cx="199.66" cy="-316.7" rx="54.27" ry="21.57"/>
<text xml:space="preserve" text-anchor="middle" x="199.66" y="-318.45" font-family="Helvetica,sans-Serif" font-size="10.00" fill="#000000">src.</text>
<text xml:space="preserve" text-anchor="middle" x="199.66" y="-307.2" font-family="Helvetica,sans-Serif" font-size="10.00" fill="#000000">entityRegistry</text>
</g>
<!-- src_entity&#45;&gt;src_entityRegistry -->
<g id="edge16" class="edge">
<title>src_entity&#45;&gt;src_entityRegistry</title><style>.edge>path:hover{stroke-width:8}</style>
<path fill="none" stroke="black" d="M231.36,-374.57C227,-366.75 221.66,-357.18 216.62,-348.13"/>
<polygon fill="#05c7c7" stroke="black" points="219.79,-346.62 211.86,-339.59 213.67,-350.03 219.79,-346.62"/>
</g>
<!-- src_entity&#45;&gt;src_main -->
<g id="edge17" class="edge">
<title>src_entity&#45;&gt;src_main</title><style>.edge>path:hover{stroke-width:8}</style>
<path fill="none" stroke="black" d="M214.4,-380.97C192.44,-371.66 160.9,-356.62 136.66,-338.27 126.74,-330.75 125.03,-327.73 117.66,-317.7"/>
<path fill="none" stroke="black" d="M117.66,-315.7C78.1,-261.79 28.87,-213.62 79.66,-170.13"/>
</g>
<!-- src_entity&#45;&gt;src_player -->
<g id="edge18" class="edge">
<title>src_entity&#45;&gt;src_player</title><style>.edge>path:hover{stroke-width:8}</style>
<path fill="none" stroke="black" d="M117.66,-315.7C98.32,-289.34 97.19,-267.62 117.66,-242.13"/>
</g>
<!-- src_entity&#45;&gt;src_weapon -->
<g id="edge19" class="edge">
<title>src_entity&#45;&gt;src_weapon</title><style>.edge>path:hover{stroke-width:8}</style>
<path fill="none" stroke="black" d="M250.66,-374.82C262.42,-355.58 282.62,-322.83 300.66,-295.13 306.42,-286.29 312.86,-276.72 318.68,-268.18"/>
<polygon fill="#05c7c7" stroke="black" points="321.53,-270.21 324.29,-259.98 315.75,-266.25 321.53,-270.21"/>
</g>
<!-- src_entityRegistry&#45;&gt;src_enemySpawner -->
<g id="edge20" class="edge">
<title>src_entityRegistry&#45;&gt;src_enemySpawner</title><style>.edge>path:hover{stroke-width:8}</style>
<path fill="none" stroke="black" d="M387.66,-168.13C391.45,-154.76 394.35,-139.69 396.43,-126.68"/>
<polygon fill="#24d0d0" stroke="black" points="399.88,-127.34 397.9,-116.93 392.95,-126.3 399.88,-127.34"/>
<path fill="none" stroke="black" d="M215.52,-295.87C232.23,-275.83 260.05,-244.81 288.66,-223.13 328.45,-193 374.05,-218.15 387.66,-170.13"/>
</g>
<!-- src_entityRegistry&#45;&gt;src_main -->
<g id="edge21" class="edge">
<title>src_entityRegistry&#45;&gt;src_main</title><style>.edge>path:hover{stroke-width:8}</style>
<path fill="none" stroke="black" d="M211.18,-295.19C218.58,-280.82 227.56,-260.91 231.66,-242.13"/>
<path fill="none" stroke="black" d="M231.66,-240.13C242.71,-189.59 319.68,-221.63 324.66,-170.13"/>
<path fill="none" stroke="black" d="M324.66,-168.13C327.99,-133.76 273.41,-117 299.66,-94.57"/>
</g>
<!-- src_entityRegistry&#45;&gt;src_weapon -->
<g id="edge22" class="edge">
<title>src_entityRegistry&#45;&gt;src_weapon</title><style>.edge>path:hover{stroke-width:8}</style>
<path fill="none" stroke="black" d="M231.09,-298.82C252.23,-287.47 280.12,-272.5 301.92,-260.79"/>
<polygon fill="#24d0d0" stroke="black" points="303.28,-264.03 310.43,-256.22 299.97,-257.87 303.28,-264.03"/>
</g>
<!-- src_player&#45;&gt;src_enemySpawner -->
<g id="edge23" class="edge">
<title>src_player&#45;&gt;src_enemySpawner</title><style>.edge>path:hover{stroke-width:8}</style>
<path fill="none" stroke="black" d="M285.24,-155.65C305.1,-145.14 334.01,-129.84 357.93,-117.18"/>
<polygon fill="#269b9b" stroke="black" points="359.29,-120.42 366.5,-112.65 356.02,-114.23 359.29,-120.42"/>
</g>
<!-- src_player&#45;&gt;src_main -->
<g id="edge24" class="edge">
<title>src_player&#45;&gt;src_main</title><style>.edge>path:hover{stroke-width:8}</style>
<path fill="none" stroke="black" d="M266.41,-150.85C271.84,-134.2 282.29,-109.41 299.66,-94.57"/>
</g>
<!-- src_renderable&#45;&gt;src_entity -->
<g id="edge25" class="edge">
<title>src_renderable&#45;&gt;src_entity</title><style>.edge>path:hover{stroke-width:8}</style>
<path fill="none" stroke="black" d="M204.8,-446.68C210.3,-438.48 217.07,-428.41 223.24,-419.22"/>
<polygon fill="#3ab0b0" stroke="black" points="226.09,-421.25 228.76,-410.99 220.28,-417.34 226.09,-421.25"/>
</g>
<!-- src_time&#45;&gt;src_bullet -->
<g id="edge26" class="edge">
<title>src_time&#45;&gt;src_bullet</title><style>.edge>path:hover{stroke-width:8}</style>
<path fill="none" stroke="black" d="M457.65,-379.45C435.45,-367.52 400.9,-348.98 375.47,-335.32"/>
<polygon fill="#06f9f9" stroke="black" points="377.33,-332.34 366.87,-330.7 374.02,-338.51 377.33,-332.34"/>
</g>
<!-- src_time&#45;&gt;src_enemy -->
<g id="edge27" class="edge">
<title>src_time&#45;&gt;src_enemy</title><style>.edge>path:hover{stroke-width:8}</style>
<path fill="none" stroke="black" d="M479.66,-315.7C474.22,-283.46 481.5,-274.78 479.66,-242.13"/>
</g>
<!-- src_time&#45;&gt;src_enemySpawner -->
<g id="edge28" class="edge">
<title>src_time&#45;&gt;src_enemySpawner</title><style>.edge>path:hover{stroke-width:8}</style>
<path fill="none" stroke="black" d="M441.66,-240.13C415.09,-211.18 376.91,-207.93 387.66,-170.13"/>
</g>
<!-- src_time&#45;&gt;src_main -->
<g id="edge29" class="edge">
<title>src_time&#45;&gt;src_main</title><style>.edge>path:hover{stroke-width:8}</style>
<path fill="none" stroke="black" d="M555.66,-240.13C561.03,-175.66 572.26,-157.1 555.66,-94.57"/>
<path fill="none" stroke="black" d="M479.66,-315.7C471.84,-269.35 549.35,-288.72 555.66,-242.13"/>
</g>
<!-- src_time&#45;&gt;src_player -->
<g id="edge30" class="edge">
<title>src_time&#45;&gt;src_player</title><style>.edge>path:hover{stroke-width:8}</style>
<path fill="none" stroke="black" d="M441.66,-240.13C436.62,-234.64 351.62,-202.96 300.26,-184.16"/>
<polygon fill="#06f9f9" stroke="black" points="301.55,-180.9 290.96,-180.76 299.15,-187.48 301.55,-180.9"/>
<path fill="none" stroke="black" d="M479.66,-315.7C473.54,-279.41 466.55,-269.25 441.66,-242.13"/>
</g>
<!-- src_time&#45;&gt;src_weapon -->
<g id="edge31" class="edge">
<title>src_time&#45;&gt;src_weapon</title><style>.edge>path:hover{stroke-width:8}</style>
<path fill="none" stroke="black" d="M479.66,-315.7C472.67,-274.23 424.39,-256.09 385.84,-248.19"/>
<polygon fill="#06f9f9" stroke="black" points="386.72,-244.79 376.25,-246.41 385.44,-251.67 386.72,-244.79"/>
<path fill="none" stroke="black" d="M481.28,-373.89C482.3,-358.9 482.87,-336.72 479.66,-317.7"/>
</g>
<!-- src_vector -->
<g id="node12" class="node">
<title>src_vector</title><style>.edge>path:hover{stroke-width:8}</style>
<ellipse fill="#10f9f9" stroke="black" cx="335.66" cy="-536.27" rx="35.21" ry="18"/>
<text xml:space="preserve" text-anchor="middle" x="335.66" y="-532.39" font-family="Helvetica,sans-Serif" font-size="10.00" fill="#000000">src.vector</text>
</g>
<!-- src_vector&#45;&gt;src_bullet -->
<g id="edge32" class="edge">
<title>src_vector&#45;&gt;src_bullet</title><style>.edge>path:hover{stroke-width:8}</style>
<path fill="none" stroke="black" d="M403.66,-463.27C402.26,-432.19 409.59,-423.81 403.66,-393.27"/>
<path fill="none" stroke="black" d="M403.66,-391.27C399.66,-370.63 384.67,-352.4 370.56,-339.25"/>
<polygon fill="#10f9f9" stroke="black" points="372.96,-336.7 363.13,-332.74 368.34,-341.96 372.96,-336.7"/>
</g>
<!-- src_vector&#45;&gt;src_collision -->
<g id="edge33" class="edge">
<title>src_vector&#45;&gt;src_collision</title><style>.edge>path:hover{stroke-width:8}</style>
<path fill="none" stroke="black" d="M335.66,-517.96C335.66,-510.67 335.66,-501.99 335.66,-493.8"/>
<polygon fill="#10f9f9" stroke="black" points="339.16,-493.88 335.66,-483.88 332.16,-493.88 339.16,-493.88"/>
</g>
<!-- src_vector&#45;&gt;src_enemy -->
<g id="edge34" class="edge">
<title>src_vector&#45;&gt;src_enemy</title><style>.edge>path:hover{stroke-width:8}</style>
<path fill="none" stroke="black" d="M555.66,-315.7C551.14,-279.18 533.5,-275.35 517.66,-242.13"/>
<path fill="none" stroke="black" d="M517.66,-240.13C508.94,-221.84 493.73,-205.05 480.21,-192.51"/>
<polygon fill="#10f9f9" stroke="black" points="482.59,-189.94 472.79,-185.91 477.94,-195.17 482.59,-189.94"/>
</g>
<!-- src_vector&#45;&gt;src_enemySpawner -->
<g id="edge35" class="edge">
<title>src_vector&#45;&gt;src_enemySpawner</title><style>.edge>path:hover{stroke-width:8}</style>
<path fill="none" stroke="black" d="M517.66,-240.13C500.25,-203.63 522.45,-183.84 498.66,-151.13 486.98,-135.06 469.22,-122.86 452.03,-113.98"/>
<polygon fill="#10f9f9" stroke="black" points="453.9,-111 443.38,-109.79 450.85,-117.3 453.9,-111"/>
<path fill="none" stroke="black" d="M363.14,-524.49C425.03,-498.23 568.96,-425.12 555.66,-317.7"/>
</g>
<!-- src_vector&#45;&gt;src_entity -->
<g id="edge36" class="edge">
<title>src_vector&#45;&gt;src_entity</title><style>.edge>path:hover{stroke-width:8}</style>
<path fill="none" stroke="black" d="M403.66,-463.27C401.34,-411.96 332.89,-397.8 285.44,-394.15"/>
<polygon fill="#10f9f9" stroke="black" points="285.89,-390.67 275.69,-393.54 285.45,-397.66 285.89,-390.67"/>
<path fill="none" stroke="black" d="M360.4,-522.97C380.32,-511.11 404.83,-491.16 403.66,-465.27"/>
</g>
<!-- src_vector&#45;&gt;src_main -->
<g id="edge37" class="edge">
<title>src_vector&#45;&gt;src_main</title><style>.edge>path:hover{stroke-width:8}</style>
<path fill="none" stroke="black" d="M555.66,-315.7C555.31,-283.01 551.28,-274.53 555.66,-242.13"/>
</g>
<!-- src_vector&#45;&gt;src_player -->
<g id="edge38" class="edge">
<title>src_vector&#45;&gt;src_player</title><style>.edge>path:hover{stroke-width:8}</style>
<path fill="none" stroke="black" d="M321.11,-519.75C300.43,-497.8 263.41,-458.95 248.66,-446.27 177.12,-384.72 46.76,-406.15 79.66,-317.7"/>
</g>
<!-- src_vector&#45;&gt;src_renderable -->
<g id="edge39" class="edge">
<title>src_vector&#45;&gt;src_renderable</title><style>.edge>path:hover{stroke-width:8}</style>
<path fill="none" stroke="black" d="M310.93,-523.07C289.1,-512.31 256.93,-496.45 231.8,-484.07"/>
<polygon fill="#10f9f9" stroke="black" points="233.39,-480.95 222.87,-479.67 230.3,-487.23 233.39,-480.95"/>
</g>
<!-- src_vector&#45;&gt;src_weapon -->
<g id="edge40" class="edge">
<title>src_vector&#45;&gt;src_weapon</title><style>.edge>path:hover{stroke-width:8}</style>
<path fill="none" stroke="black" d="M403.66,-391.27C395.36,-348.51 404.21,-334.05 384.66,-295.13 379.23,-284.32 370.97,-274.05 362.83,-265.49"/>
<polygon fill="#10f9f9" stroke="black" points="365.47,-263.17 355.91,-258.6 360.53,-268.13 365.47,-263.17"/>
</g>
<!-- src_weapon&#45;&gt;src_enemy -->
<g id="edge41" class="edge">
<title>src_weapon&#45;&gt;src_enemy</title><style>.edge>path:hover{stroke-width:8}</style>
<path fill="none" stroke="black" d="M359.86,-226.14C377.23,-215.65 401.22,-201.18 420.45,-189.57"/>
<polygon fill="#14b8b8" stroke="black" points="422.25,-192.58 429,-184.41 418.63,-186.58 422.25,-192.58"/>
</g>
<!-- src_weapon&#45;&gt;src_enemySpawner -->
<g id="edge42" class="edge">
<title>src_weapon&#45;&gt;src_enemySpawner</title><style>.edge>path:hover{stroke-width:8}</style>
<path fill="none" stroke="black" d="M353.54,-224.51C366.18,-211.45 382.18,-191.55 387.66,-170.13"/>
</g>
<!-- src_weapon&#45;&gt;src_main -->
<g id="edge43" class="edge">
<title>src_weapon&#45;&gt;src_main</title><style>.edge>path:hover{stroke-width:8}</style>
<path fill="none" stroke="black" d="M331.12,-222.97C327.19,-208.86 322.91,-188.3 324.66,-170.13"/>
</g>
<!-- src_weapon&#45;&gt;src_player -->
<g id="edge44" class="edge">
<title>src_weapon&#45;&gt;src_player</title><style>.edge>path:hover{stroke-width:8}</style>
<path fill="none" stroke="black" d="M320.02,-224.6C310.14,-215.38 297.44,-203.52 286.41,-193.23"/>
<polygon fill="#14b8b8" stroke="black" points="288.81,-190.68 279.11,-186.42 284.03,-195.8 288.81,-190.68"/>
</g>
<!-- src_window&#45;&gt;src_bullet -->
<g id="edge45" class="edge">
<title>src_window&#45;&gt;src_bullet</title><style>.edge>path:hover{stroke-width:8}</style>
<path fill="none" stroke="black" d="M41.66,-391.27C79.77,-297.72 164.64,-362.62 262.66,-338.27 275.69,-335.03 289.88,-331.41 302.65,-328.12"/>
<polygon fill="#19e6e6" stroke="black" points="303.16,-331.61 311.97,-325.71 301.41,-324.83 303.16,-331.61"/>
</g>
<!-- src_window&#45;&gt;src_entity -->
<g id="edge46" class="edge">
<title>src_window&#45;&gt;src_entity</title><style>.edge>path:hover{stroke-width:8}</style>
<path fill="none" stroke="black" d="M82.04,-452.33C114.7,-440.17 167.54,-420.49 203.17,-407.23"/>
<polygon fill="#19e6e6" stroke="black" points="204.06,-410.63 212.21,-403.86 201.62,-404.07 204.06,-410.63"/>
</g>
<!-- src_window&#45;&gt;src_main -->
<g id="edge47" class="edge">
<title>src_window&#45;&gt;src_main</title><style>.edge>path:hover{stroke-width:8}</style>
<path fill="none" stroke="black" d="M45.09,-446.28C39.74,-431.73 34.66,-410.47 41.66,-393.27"/>
<path fill="none" stroke="black" d="M79.66,-168.13C160.15,-103.71 221.28,-161.54 299.66,-94.57"/>
<path fill="none" stroke="black" d="M299.66,-92.57C322.62,-72.95 350.48,-52.91 371.12,-38.71"/>
<polygon fill="#19e6e6" stroke="black" points="373.08,-41.62 379.37,-33.09 369.13,-35.83 373.08,-41.62"/>
<path fill="none" stroke="black" d="M41.66,-391.27C79.28,-298.91 1.81,-232.45 79.66,-170.13"/>
</g>
<!-- src_window&#45;&gt;src_player -->
<g id="edge48" class="edge">
<title>src_window&#45;&gt;src_player</title><style>.edge>path:hover{stroke-width:8}</style>
<path fill="none" stroke="black" d="M79.66,-315.7C92.49,-281.21 94.62,-270.82 117.66,-242.13"/>
<path fill="none" stroke="black" d="M41.66,-391.27C55.55,-357.19 66.83,-352.19 79.66,-317.7"/>
<path fill="none" stroke="black" d="M117.66,-240.13C143.12,-208.44 186.49,-190.11 219,-180.22"/>
<polygon fill="#19e6e6" stroke="black" points="219.89,-183.61 228.54,-177.49 217.96,-176.88 219.89,-183.61"/>
</g>
</g>
</svg>
