<?xml version="1.0" encoding="UTF-8" standalone="no"?>
<!DOCTYPE svg PUBLIC "-//W3C//DTD SVG 1.1//EN"
 "http://www.w3.org/Graphics/SVG/1.1/DTD/svg11.dtd">
<!-- Generated by graphviz version 14.1.3 (20260303.0454)
 -->
<!-- Title: G Pages: 1 -->
<svg width="707pt" height="173pt"
 viewBox="0.00 0.00 707.00 173.00" xmlns="http://www.w3.org/2000/svg" xmlns:xlink="http://www.w3.org/1999/xlink">
<g id="graph0" class="graph" transform="scale(1 1) rotate(0) translate(4 169.48)">
<title>G</title><style>.edge>path:hover{stroke-width:8}</style>
<polygon fill="white" stroke="none" points="-4,4 -4,-169.48 702.76,-169.48 702.76,4 -4,4"/>
<!-- core -->
<g id="node1" class="node">
<title>core</title><style>.edge>path:hover{stroke-width:8}</style>
<polygon fill="#f91010" stroke="black" points="54,-105.48 51,-109.48 30,-109.48 27,-105.48 0,-105.48 0,-69.48 54,-69.48 54,-105.48"/>
<text xml:space="preserve" text-anchor="middle" x="27" y="-83.61" font-family="Helvetica,sans-Serif" font-size="10.00" fill="#ffffff">core</text>
</g>
<!-- entities -->
<g id="node2" class="node">
<title>entities</title><style>.edge>path:hover{stroke-width:8}</style>
<polygon fill="#f9d810" stroke="black" points="308,-89.48 305,-93.48 284,-93.48 281,-89.48 254,-89.48 254,-53.48 308,-53.48 308,-89.48"/>
<text xml:space="preserve" text-anchor="middle" x="281" y="-67.61" font-family="Helvetica,sans-Serif" font-size="10.00" fill="#000000">entities</text>
</g>
<!-- core&#45;&gt;entities -->
<g id="edge1" class="edge">
<title>core&#45;&gt;entities</title><style>.edge>path:hover{stroke-width:8}</style>
<path fill="none" stroke="black" d="M218,-133.48C237.1,-129.07 252.68,-113.4 263.44,-98.93"/>
<polygon fill="#f91010" stroke="black" points="266.14,-101.18 268.94,-90.96 260.38,-97.2 266.14,-101.18"/>
<path fill="none" stroke="black" d="M91,-87.48C110.6,-83.49 108.79,-106.22 127,-114.48 164.23,-131.37 177.17,-142.69 217,-133.48"/>
</g>
<!-- gameplay -->
<g id="node3" class="node">
<title>gameplay</title><style>.edge>path:hover{stroke-width:8}</style>
<polygon fill="#55f316" stroke="black" points="439,-119.48 436,-123.48 415,-123.48 412,-119.48 381,-119.48 381,-83.48 439,-83.48 439,-119.48"/>
<text xml:space="preserve" text-anchor="middle" x="410" y="-97.61" font-family="Helvetica,sans-Serif" font-size="10.00" fill="#000000">gameplay</text>
</g>
<!-- core&#45;&gt;gameplay -->
<g id="edge2" class="edge">
<title>core&#45;&gt;gameplay</title><style>.edge>path:hover{stroke-width:8}</style>
<path fill="none" stroke="black" d="M345,-147.48C360.41,-146.55 374.67,-137.5 385.8,-127.68"/>
<polygon fill="#f91010" stroke="black" points="388.15,-130.27 392.93,-120.82 383.29,-125.23 388.15,-130.27"/>
<path fill="none" stroke="black" d="M218,-133.48C273.61,-124.38 287.76,-150.88 344,-147.48"/>
</g>
<!-- main_py -->
<g id="node4" class="node">
<title>main_py</title><style>.edge>path:hover{stroke-width:8}</style>
<ellipse fill="#356350" stroke="black" cx="668.88" cy="-147.48" rx="29.88" ry="18"/>
<text xml:space="preserve" text-anchor="middle" x="668.88" y="-143.61" font-family="Helvetica,sans-Serif" font-size="10.00" fill="#ffffff">main.py</text>
</g>
<!-- core&#45;&gt;main_py -->
<g id="edge3" class="edge">
<title>core&#45;&gt;main_py</title><style>.edge>path:hover{stroke-width:8}</style>
<path fill="none" stroke="black" d="M345,-147.48C373.3,-144.61 380.68,-144.8 409,-147.48"/>
</g>
<!-- physics -->
<g id="node5" class="node">
<title>physics</title><style>.edge>path:hover{stroke-width:8}</style>
<polygon fill="#3b8fce" stroke="black" points="181,-105.48 178,-109.48 157,-109.48 154,-105.48 127,-105.48 127,-69.48 181,-69.48 181,-105.48"/>
<text xml:space="preserve" text-anchor="middle" x="154" y="-83.61" font-family="Helvetica,sans-Serif" font-size="10.00" fill="#ffffff">physics</text>
</g>
<!-- core&#45;&gt;physics -->
<g id="edge4" class="edge">
<title>core&#45;&gt;physics</title><style>.edge>path:hover{stroke-width:8}</style>
<path fill="none" stroke="black" d="M91,-87.48C98.72,-85.91 107.1,-85.24 115.13,-85.08"/>
<polygon fill="#f91010" stroke="black" points="114.98,-88.57 125.01,-85.15 115.03,-81.57 114.98,-88.57"/>
</g>
<!-- render -->
<g id="node6" class="node">
<title>render</title><style>.edge>path:hover{stroke-width:8}</style>
<polygon fill="#653bce" stroke="black" points="181,-51.48 178,-55.48 157,-55.48 154,-51.48 127,-51.48 127,-15.48 181,-15.48 181,-51.48"/>
<text xml:space="preserve" text-anchor="middle" x="154" y="-29.61" font-family="Helvetica,sans-Serif" font-size="10.00" fill="#ffffff">render</text>
</g>
<!-- core&#45;&gt;render -->
<g id="edge5" class="edge">
<title>core&#45;&gt;render</title><style>.edge>path:hover{stroke-width:8}</style>
<path fill="none" stroke="black" d="M91,-87.48C95.5,-86.57 111.15,-72.92 125.6,-59.57"/>
<polygon fill="#f91010" stroke="black" points="127.85,-62.26 132.77,-52.88 123.07,-57.14 127.85,-62.26"/>
</g>
<!-- systems -->
<g id="node7" class="node">
<title>systems</title><style>.edge>path:hover{stroke-width:8}</style>
<polygon fill="#db2fc2" stroke="black" points="566,-85.48 563,-89.48 542,-89.48 539,-85.48 512,-85.48 512,-49.48 566,-49.48 566,-85.48"/>
<text xml:space="preserve" text-anchor="middle" x="539" y="-63.61" font-family="Helvetica,sans-Serif" font-size="10.00" fill="#ffffff">systems</text>
</g>
<!-- core&#45;&gt;systems -->
<g id="edge6" class="edge">
<title>core&#45;&gt;systems</title><style>.edge>path:hover{stroke-width:8}</style>
<path fill="none" stroke="black" d="M282,-25.48C359.22,-8.16 451.04,-34.4 501.04,-52.57"/>
<polygon fill="#f91010" stroke="black" points="499.63,-55.78 510.22,-56 502.08,-49.22 499.63,-55.78"/>
<path fill="none" stroke="black" d="M91,-87.48C129.49,-79.09 93.97,-27.95 127,-6.48 147.12,6.6 157.05,-4.87 181,-6.48 197.56,-7.6 201.67,-8.54 218,-11.48 245.8,-16.49 251.78,-26.72 280,-25.48"/>
<path fill="none" stroke="black" d="M54.45,-89.65C65.52,-90 78.47,-89.68 90,-87.48"/>
</g>
<!-- entities&#45;&gt;gameplay -->
<g id="edge7" class="edge">
<title>entities&#45;&gt;gameplay</title><style>.edge>path:hover{stroke-width:8}</style>
<path fill="none" stroke="black" d="M319.29,-80.29C335.03,-84.01 353.38,-88.34 369.36,-92.12"/>
<polygon fill="#f9d810" stroke="black" points="320.32,-76.94 309.79,-78.05 318.71,-83.75 320.32,-76.94"/>
<polygon fill="#f9d810" stroke="black" points="368.5,-95.51 379.04,-94.4 370.11,-88.7 368.5,-95.51"/>
</g>
<!-- entities&#45;&gt;main_py -->
<g id="edge8" class="edge">
<title>entities&#45;&gt;main_py</title><style>.edge>path:hover{stroke-width:8}</style>
<path fill="none" stroke="black" d="M411,-147.48C466.88,-155.42 482.15,-139.31 538,-147.48"/>
<path fill="none" stroke="black" d="M301.13,-89.76C324.42,-110.26 366,-141.44 409,-147.48"/>
</g>
<!-- entities&#45;&gt;systems -->
<g id="edge9" class="edge">
<title>entities&#45;&gt;systems</title><style>.edge>path:hover{stroke-width:8}</style>
<path fill="none" stroke="black" d="M319.93,-70.89C368.4,-70.13 451.8,-68.83 500.2,-68.07"/>
<polygon fill="#f9d810" stroke="black" points="319.89,-67.39 309.95,-71.05 320,-74.39 319.89,-67.39"/>
<polygon fill="#f9d810" stroke="black" points="500.25,-71.57 510.2,-67.92 500.14,-64.57 500.25,-71.57"/>
</g>
<!-- gameplay&#45;&gt;main_py -->
<g id="edge11" class="edge">
<title>gameplay&#45;&gt;main_py</title><style>.edge>path:hover{stroke-width:8}</style>
<path fill="none" stroke="black" d="M540,-147.48C567.26,-151.47 575.53,-139.84 602,-147.48"/>
<path fill="none" stroke="black" d="M476,-109.48C508.29,-110.94 506.02,-142.8 538,-147.48"/>
</g>
<!-- gameplay&#45;&gt;systems -->
<g id="edge12" class="edge">
<title>gameplay&#45;&gt;systems</title><style>.edge>path:hover{stroke-width:8}</style>
<path fill="none" stroke="black" d="M476,-109.48C490.41,-110.13 503.97,-102.33 514.72,-93.28"/>
<polygon fill="#55f316" stroke="black" points="516.99,-95.95 521.93,-86.58 512.22,-90.82 516.99,-95.95"/>
<path fill="none" stroke="black" d="M439.27,-106C450.38,-107.51 463.25,-108.95 475,-109.48"/>
</g>
<!-- physics&#45;&gt;entities -->
<g id="edge13" class="edge">
<title>physics&#45;&gt;entities</title><style>.edge>path:hover{stroke-width:8}</style>
<path fill="none" stroke="black" d="M218,-63.48C225.76,-61.11 234.28,-60.81 242.44,-61.56"/>
<polygon fill="#3b8fce" stroke="black" points="241.74,-65 252.15,-63.02 242.77,-58.08 241.74,-65"/>
</g>
<!-- physics&#45;&gt;systems -->
<g id="edge14" class="edge">
<title>physics&#45;&gt;systems</title><style>.edge>path:hover{stroke-width:8}</style>
<path fill="none" stroke="black" d="M218,-63.48C248.91,-54.03 248.46,-32.56 280,-25.48"/>
<path fill="none" stroke="black" d="M181.25,-76.35C192.18,-71.97 205.08,-67.13 217,-63.48"/>
</g>
<!-- render&#45;&gt;entities -->
<g id="edge15" class="edge">
<title>render&#45;&gt;entities</title><style>.edge>path:hover{stroke-width:8}</style>
<path fill="none" stroke="black" d="M218,-25.48C232.57,-27.11 246.01,-35.74 256.62,-45.1"/>
<polygon fill="#653bce" stroke="black" points="254.11,-47.54 263.74,-51.94 258.96,-42.49 254.11,-47.54"/>
</g>
<!-- render&#45;&gt;systems -->
<g id="edge16" class="edge">
<title>render&#45;&gt;systems</title><style>.edge>path:hover{stroke-width:8}</style>
<path fill="none" stroke="black" d="M218,-25.48C245.39,-28.54 253.11,-31.51 280,-25.48"/>
<path fill="none" stroke="black" d="M181.22,-27.3C192.26,-25.43 205.24,-24.17 217,-25.48"/>
</g>
<!-- systems&#45;&gt;main_py -->
<g id="edge18" class="edge">
<title>systems&#45;&gt;main_py</title><style>.edge>path:hover{stroke-width:8}</style>
<path fill="none" stroke="black" d="M546.57,-85.7C555.38,-106.64 573.3,-139.2 602,-147.48"/>
<path fill="none" stroke="black" d="M603,-147.48C610.87,-149.75 619.51,-150.74 627.84,-150.98"/>
<polygon fill="#db2fc2" stroke="black" points="627.81,-154.48 637.78,-150.89 627.75,-147.48 627.81,-154.48"/>
</g>
</g>
</svg>
