<?xml version="1.0" encoding="UTF-8" standalone="no"?>
<!DOCTYPE svg PUBLIC "-//W3C//DTD SVG 1.1//EN"
 "http://www.w3.org/Graphics/SVG/1.1/DTD/svg11.dtd">
<!-- Generated by graphviz version 14.1.3 (20260303.0454)
 -->
<!-- Title: G Pages: 1 -->
<svg width="707pt" height="196pt"
 viewBox="0.00 0.00 707.00 196.00" xmlns="http://www.w3.org/2000/svg" xmlns:xlink="http://www.w3.org/1999/xlink">
<g id="graph0" class="graph" transform="scale(1 1) rotate(0) translate(4 191.52)">
<title>G</title><style>.edge>path:hover{stroke-width:8}</style>
<polygon fill="white" stroke="none" points="-4,4 -4,-191.52 702.76,-191.52 702.76,4 -4,4"/>
<!-- core -->
<g id="node1" class="node">
<title>core</title><style>.edge>path:hover{stroke-width:8}</style>
<polygon fill="#f91010" stroke="black" points="54,-157 51,-161 30,-161 27,-157 0,-157 0,-121 54,-121 54,-157"/>
<text xml:space="preserve" text-anchor="middle" x="27" y="-135.12" font-family="Helvetica,sans-Serif" font-size="10.00" fill="#ffffff">core</text>
</g>
<!-- entities -->
<g id="node2" class="node">
<title>entities</title><style>.edge>path:hover{stroke-width:8}</style>
<polygon fill="#f9d810" stroke="black" points="308,-157 305,-161 284,-161 281,-157 254,-157 254,-121 308,-121 308,-157"/>
<text xml:space="preserve" text-anchor="middle" x="281" y="-135.12" font-family="Helvetica,sans-Serif" font-size="10.00" fill="#000000">entities</text>
</g>
<!-- core&#45;&gt;entities -->
<g id="edge1" class="edge">
<title>core&#45;&gt;entities</title><style>.edge>path:hover{stroke-width:8}</style>
<path fill="none" stroke="black" d="M91,-139C110.6,-135.01 108.79,-157.74 127,-166 164.23,-182.89 176.73,-192.07 217,-185"/>
<path fill="none" stroke="black" d="M218,-185C232.68,-183.45 246.21,-174.72 256.86,-165.27"/>
<polygon fill="#f91010" stroke="black" points="259.24,-167.83 264,-158.36 254.38,-162.8 259.24,-167.83"/>
</g>
<!-- gameplay -->
<g id="node3" class="node">
<title>gameplay</title><style>.edge>path:hover{stroke-width:8}</style>
<polygon fill="#60db2f" stroke="black" points="439,-36 436,-40 415,-40 412,-36 381,-36 381,0 439,0 439,-36"/>
<text xml:space="preserve" text-anchor="middle" x="410" y="-14.12" font-family="Helvetica,sans-Serif" font-size="10.00" fill="#000000">gameplay</text>
</g>
<!-- core&#45;&gt;gameplay -->
<g id="edge2" class="edge">
<title>core&#45;&gt;gameplay</title><style>.edge>path:hover{stroke-width:8}</style>
<path fill="none" stroke="black" d="M54.21,-141.47C65.36,-141.89 78.43,-141.53 90,-139"/>
<path fill="none" stroke="black" d="M345,-64C360.42,-63.3 374.68,-54.28 385.81,-44.41"/>
<polygon fill="#f91010" stroke="black" points="388.19,-46.98 392.94,-37.51 383.32,-41.95 388.19,-46.98"/>
<path fill="none" stroke="black" d="M91,-139C129.48,-130.58 93.97,-79.47 127,-58 147.12,-44.92 157,-57.56 181,-58 253.48,-59.33 271.58,-67.29 344,-64"/>
</g>
<!-- main_py -->
<g id="node4" class="node">
<title>main_py</title><style>.edge>path:hover{stroke-width:8}</style>
<ellipse fill="#356350" stroke="black" cx="668.88" cy="-94" rx="29.88" ry="18"/>
<text xml:space="preserve" text-anchor="middle" x="668.88" y="-90.12" font-family="Helvetica,sans-Serif" font-size="10.00" fill="#ffffff">main.py</text>
</g>
<!-- core&#45;&gt;main_py -->
<g id="edge3" class="edge">
<title>core&#45;&gt;main_py</title><style>.edge>path:hover{stroke-width:8}</style>
<path fill="none" stroke="black" d="M218,-185C360.83,-169.91 409.23,-203.61 538,-140"/>
</g>
<!-- physics -->
<g id="node5" class="node">
<title>physics</title><style>.edge>path:hover{stroke-width:8}</style>
<polygon fill="#538cb6" stroke="black" points="181,-157 178,-161 157,-161 154,-157 127,-157 127,-121 181,-121 181,-157"/>
<text xml:space="preserve" text-anchor="middle" x="154" y="-135.12" font-family="Helvetica,sans-Serif" font-size="10.00" fill="#000000">physics</text>
</g>
<!-- core&#45;&gt;physics -->
<g id="edge4" class="edge">
<title>core&#45;&gt;physics</title><style>.edge>path:hover{stroke-width:8}</style>
<path fill="none" stroke="black" d="M91,-139C98.72,-137.43 107.1,-136.75 115.13,-136.59"/>
<polygon fill="#f91010" stroke="black" points="114.98,-140.09 125.01,-136.67 115.03,-133.09 114.98,-140.09"/>
</g>
<!-- render -->
<g id="node6" class="node">
<title>render</title><style>.edge>path:hover{stroke-width:8}</style>
<polygon fill="#7053b6" stroke="black" points="181,-103 178,-107 157,-107 154,-103 127,-103 127,-67 181,-67 181,-103"/>
<text xml:space="preserve" text-anchor="middle" x="154" y="-81.12" font-family="Helvetica,sans-Serif" font-size="10.00" fill="#ffffff">render</text>
</g>
<!-- core&#45;&gt;render -->
<g id="edge5" class="edge">
<title>core&#45;&gt;render</title><style>.edge>path:hover{stroke-width:8}</style>
<path fill="none" stroke="black" d="M91,-139C95.5,-138.08 111.15,-124.43 125.6,-111.09"/>
<polygon fill="#f91010" stroke="black" points="127.85,-113.78 132.77,-104.4 123.07,-108.66 127.85,-113.78"/>
</g>
<!-- systems -->
<g id="node7" class="node">
<title>systems</title><style>.edge>path:hover{stroke-width:8}</style>
<polygon fill="#ce3bb9" stroke="black" points="566,-112 563,-116 542,-116 539,-112 512,-112 512,-76 566,-76 566,-112"/>
<text xml:space="preserve" text-anchor="middle" x="539" y="-90.12" font-family="Helvetica,sans-Serif" font-size="10.00" fill="#ffffff">systems</text>
</g>
<!-- core&#45;&gt;systems -->
<g id="edge6" class="edge">
<title>core&#45;&gt;systems</title><style>.edge>path:hover{stroke-width:8}</style>
<path fill="none" stroke="black" d="M345,-64C399.2,-55.01 462.09,-69.42 500.97,-81.2"/>
<polygon fill="#f91010" stroke="black" points="499.72,-84.48 510.31,-84.14 501.82,-77.8 499.72,-84.48"/>
</g>
<!-- entities&#45;&gt;gameplay -->
<g id="edge7" class="edge">
<title>entities&#45;&gt;gameplay</title><style>.edge>path:hover{stroke-width:8}</style>
<path fill="none" stroke="black" d="M309.4,-112.89C330.76,-92.54 360.28,-64.42 381.63,-44.08"/>
<polygon fill="#f9d810" stroke="black" points="307.21,-110.15 302.38,-119.58 312.04,-115.21 307.21,-110.15"/>
<polygon fill="#f9d810" stroke="black" points="384.02,-46.63 388.85,-37.2 379.2,-41.56 384.02,-46.63"/>
</g>
<!-- entities&#45;&gt;main_py -->
<g id="edge8" class="edge">
<title>entities&#45;&gt;main_py</title><style>.edge>path:hover{stroke-width:8}</style>
<path fill="none" stroke="black" d="M476,-140C502.92,-134.12 513.29,-152.2 538,-140"/>
<path fill="none" stroke="black" d="M540,-140C552.83,-133.66 554.5,-129.52 566,-121 582.07,-109.1 582,-94.42 602,-94"/>
</g>
<!-- entities&#45;&gt;systems -->
<g id="edge9" class="edge">
<title>entities&#45;&gt;systems</title><style>.edge>path:hover{stroke-width:8}</style>
<path fill="none" stroke="black" d="M476,-140C490.23,-137.5 503.47,-128.95 514.03,-119.88"/>
<polygon fill="#f9d810" stroke="black" points="516.18,-122.67 521.13,-113.3 511.42,-117.54 516.18,-122.67"/>
<path fill="none" stroke="black" d="M308.47,-142.09C345.89,-145.8 416.25,-150.31 475,-140"/>
</g>
<!-- gameplay&#45;&gt;main_py -->
<g id="edge11" class="edge">
<title>gameplay&#45;&gt;main_py</title><style>.edge>path:hover{stroke-width:8}</style>
<path fill="none" stroke="black" d="M603,-94C610.86,-94.31 619.27,-94.45 627.33,-94.49"/>
<polygon fill="#60db2f" stroke="black" points="627.29,-97.99 637.29,-94.49 627.29,-90.99 627.29,-97.99"/>
<path fill="none" stroke="black" d="M439.26,-23.9C471.21,-31.25 524.21,-45.52 566,-67 583.79,-76.14 582.02,-93.21 602,-94"/>
</g>
<!-- gameplay&#45;&gt;systems -->
<g id="edge12" class="edge">
<title>gameplay&#45;&gt;systems</title><style>.edge>path:hover{stroke-width:8}</style>
<path fill="none" stroke="black" d="M449.02,-40.75C465.74,-50.76 485.29,-62.45 501.79,-72.33"/>
<polygon fill="#60db2f" stroke="black" points="450.86,-37.78 440.48,-35.64 447.27,-43.78 450.86,-37.78"/>
<polygon fill="#60db2f" stroke="black" points="499.95,-75.31 510.33,-77.44 503.55,-69.3 499.95,-75.31"/>
</g>
<!-- physics&#45;&gt;entities -->
<g id="edge13" class="edge">
<title>physics&#45;&gt;entities</title><style>.edge>path:hover{stroke-width:8}</style>
<path fill="none" stroke="black" d="M181.48,-136.68C192.56,-136.31 205.5,-136.66 217,-139"/>
</g>
<!-- render&#45;&gt;entities -->
<g id="edge14" class="edge">
<title>render&#45;&gt;entities</title><style>.edge>path:hover{stroke-width:8}</style>
<path fill="none" stroke="black" d="M218,-139C225.72,-140.57 234.1,-141.25 242.13,-141.41"/>
<polygon fill="#7053b6" stroke="black" points="242.03,-144.91 252.01,-141.33 241.98,-137.91 242.03,-144.91"/>
<path fill="none" stroke="black" d="M174.12,-103.36C190.27,-118.58 211.62,-137.9 217,-139"/>
</g>
<!-- systems&#45;&gt;main_py -->
<g id="edge16" class="edge">
<title>systems&#45;&gt;main_py</title><style>.edge>path:hover{stroke-width:8}</style>
<path fill="none" stroke="black" d="M566.25,-93.54C577.3,-93.47 590.28,-93.54 602,-94"/>
</g>
</g>
</svg>
