<?xml version="1.0" encoding="UTF-8" standalone="no"?>
<!DOCTYPE svg PUBLIC "-//W3C//DTD SVG 1.1//EN"
 "http://www.w3.org/Graphics/SVG/1.1/DTD/svg11.dtd">
<!-- Generated by graphviz version 14.1.3 (20260303.0454)
 -->
<!-- Title: G Pages: 1 -->
<svg width="1354pt" height="901pt"
 viewBox="0.00 0.00 1354.00 901.00" xmlns="http://www.w3.org/2000/svg" xmlns:xlink="http://www.w3.org/1999/xlink">
<g id="graph0" class="graph" transform="scale(1 1) rotate(0) translate(4 896.64)">
<title>G</title><style>.edge>path:hover{stroke-width:8}</style>
<polygon fill="white" stroke="none" points="-4,4 -4,-896.64 1350.07,-896.64 1350.07,4 -4,4"/>
<!-- core -->
<g id="node1" class="node">
<title>core</title><style>.edge>path:hover{stroke-width:8}</style>
<ellipse fill="#f91010" stroke="black" cx="159.37" cy="-531.64" rx="27" ry="18"/>
<text xml:space="preserve" text-anchor="middle" x="159.37" y="-527.77" font-family="Helvetica,sans-Serif" font-size="10.00" fill="#ffffff">core</text>
</g>
<!-- entities_bullet -->
<g id="node8" class="node">
<title>entities_bullet</title><style>.edge>path:hover{stroke-width:8}</style>
<ellipse fill="#a39228" stroke="black" cx="637.6" cy="-600.64" rx="35.71" ry="21.57"/>
<text xml:space="preserve" text-anchor="middle" x="637.6" y="-602.39" font-family="Helvetica,sans-Serif" font-size="10.00" fill="#000000">entities.</text>
<text xml:space="preserve" text-anchor="middle" x="637.6" y="-591.14" font-family="Helvetica,sans-Serif" font-size="10.00" fill="#000000">bullet</text>
</g>
<!-- core&#45;&gt;entities_bullet -->
<g id="edge1" class="edge">
<title>core&#45;&gt;entities_bullet</title><style>.edge>path:hover{stroke-width:8}</style>
<path fill="none" stroke="black" d="M546.8,-600.64C560.92,-598.74 576.41,-598.2 590.48,-598.29"/>
<polygon fill="#f91010" stroke="black" points="590.34,-601.78 600.4,-598.46 590.46,-594.78 590.34,-601.78"/>
</g>
<!-- entities_enemy -->
<g id="node9" class="node">
<title>entities_enemy</title><style>.edge>path:hover{stroke-width:8}</style>
<ellipse fill="#918430" stroke="black" cx="969.73" cy="-560.64" rx="47.19" ry="18"/>
<text xml:space="preserve" text-anchor="middle" x="969.73" y="-556.77" font-family="Helvetica,sans-Serif" font-size="10.00" fill="#ffffff">entities.enemy</text>
</g>
<!-- core&#45;&gt;entities_enemy -->
<g id="edge2" class="edge">
<title>core&#45;&gt;entities_enemy</title><style>.edge>path:hover{stroke-width:8}</style>
<path fill="none" stroke="black" d="M886.54,-626.64C908.89,-615.6 902.98,-599.08 922.54,-583.64 924.23,-582.31 926.01,-581.03 927.85,-579.79"/>
<polygon fill="#f91010" stroke="black" points="929.31,-583 936.06,-574.84 925.69,-577 929.31,-583"/>
<path fill="none" stroke="black" d="M475.09,-600.64C505.47,-592.59 514.65,-604.83 545.8,-600.64"/>
<path fill="none" stroke="black" d="M546.8,-600.64C567.72,-597.83 563,-576.99 582.8,-569.64 643.92,-546.95 665.89,-559.91 729.4,-574.64 765.03,-582.9 852.75,-642.84 885.54,-626.64"/>
</g>
<!-- entities_entity -->
<g id="node10" class="node">
<title>entities_entity</title><style>.edge>path:hover{stroke-width:8}</style>
<ellipse fill="#a58e08" stroke="black" cx="474.09" cy="-354.64" rx="35.71" ry="21.57"/>
<text xml:space="preserve" text-anchor="middle" x="474.09" y="-356.39" font-family="Helvetica,sans-Serif" font-size="10.00" fill="#000000">entities.</text>
<text xml:space="preserve" text-anchor="middle" x="474.09" y="-345.14" font-family="Helvetica,sans-Serif" font-size="10.00" fill="#000000">entity</text>
</g>
<!-- core&#45;&gt;entities_entity -->
<g id="edge3" class="edge">
<title>core&#45;&gt;entities_entity</title><style>.edge>path:hover{stroke-width:8}</style>
<path fill="none" stroke="black" d="M402.38,-404.64C414.5,-395.29 428.16,-385.47 440.22,-377.03"/>
<polygon fill="#f91010" stroke="black" points="442.02,-380.04 448.24,-371.46 438.03,-374.29 442.02,-380.04"/>
<path fill="none" stroke="black" d="M243.11,-527.64C297.94,-517.56 323.35,-536.27 365.38,-499.64 399.42,-469.98 365.63,-432.22 401.38,-404.64"/>
</g>
<!-- entities_player -->
<g id="node11" class="node">
<title>entities_player</title><style>.edge>path:hover{stroke-width:8}</style>
<ellipse fill="#8a7d2e" stroke="black" cx="969.73" cy="-502.64" rx="35.71" ry="21.57"/>
<text xml:space="preserve" text-anchor="middle" x="969.73" y="-504.39" font-family="Helvetica,sans-Serif" font-size="10.00" fill="#ffffff">entities.</text>
<text xml:space="preserve" text-anchor="middle" x="969.73" y="-493.14" font-family="Helvetica,sans-Serif" font-size="10.00" fill="#ffffff">player</text>
</g>
<!-- core&#45;&gt;entities_player -->
<g id="edge4" class="edge">
<title>core&#45;&gt;entities_player</title><style>.edge>path:hover{stroke-width:8}</style>
<path fill="none" stroke="black" d="M243.11,-527.64C269.23,-522.25 256.07,-562.21 279.11,-575.64 354.21,-619.41 389.06,-622.91 473.09,-600.64"/>
<path fill="none" stroke="black" d="M475.09,-600.64C524.04,-582.43 532.5,-567.72 582.8,-553.64 713.55,-517.03 750.99,-494.43 885.54,-512.64"/>
</g>
<!-- gameplay_weapon -->
<g id="node13" class="node">
<title>gameplay_weapon</title><style>.edge>path:hover{stroke-width:8}</style>
<ellipse fill="#409c1b" stroke="black" cx="807.47" cy="-220.64" rx="42.07" ry="21.57"/>
<text xml:space="preserve" text-anchor="middle" x="807.47" y="-222.39" font-family="Helvetica,sans-Serif" font-size="10.00" fill="#ffffff">gameplay.</text>
<text xml:space="preserve" text-anchor="middle" x="807.47" y="-211.14" font-family="Helvetica,sans-Serif" font-size="10.00" fill="#ffffff">weapon</text>
</g>
<!-- core&#45;&gt;gameplay_weapon -->
<g id="edge5" class="edge">
<title>core&#45;&gt;gameplay_weapon</title><style>.edge>path:hover{stroke-width:8}</style>
<path fill="none" stroke="black" d="M402.38,-404.64C461.33,-361.41 688.28,-421.75 728.4,-360.64"/>
<path fill="none" stroke="black" d="M729.4,-360.64C752.25,-323.93 775.84,-280.02 790.81,-251.29"/>
<polygon fill="#f91010" stroke="black" points="793.72,-253.27 795.22,-242.78 787.51,-250.05 793.72,-253.27"/>
</g>
<!-- main_py -->
<g id="node14" class="node">
<title>main_py</title><style>.edge>path:hover{stroke-width:8}</style>
<ellipse fill="#356350" stroke="black" cx="1316.19" cy="-644.64" rx="29.88" ry="18"/>
<text xml:space="preserve" text-anchor="middle" x="1316.19" y="-640.77" font-family="Helvetica,sans-Serif" font-size="10.00" fill="#ffffff">main.py</text>
</g>
<!-- core&#45;&gt;main_py -->
<g id="edge6" class="edge">
<title>core&#45;&gt;main_py</title><style>.edge>path:hover{stroke-width:8}</style>
<path fill="none" stroke="black" d="M243.11,-778.64C291.52,-839.84 323.35,-854.64 401.38,-854.64 401.38,-854.64 401.38,-854.64 546.8,-854.64 627.51,-854.64 649.78,-836.4 728.4,-854.64"/>
</g>
<!-- physics_collision -->
<g id="node16" class="node">
<title>physics_collision</title><style>.edge>path:hover{stroke-width:8}</style>
<ellipse fill="#467ca4" stroke="black" cx="322.25" cy="-227.64" rx="37.3" ry="21.57"/>
<text xml:space="preserve" text-anchor="middle" x="322.25" y="-229.39" font-family="Helvetica,sans-Serif" font-size="10.00" fill="#ffffff">physics.</text>
<text xml:space="preserve" text-anchor="middle" x="322.25" y="-218.14" font-family="Helvetica,sans-Serif" font-size="10.00" fill="#ffffff">collision</text>
</g>
<!-- core&#45;&gt;physics_collision -->
<g id="edge7" class="edge">
<title>core&#45;&gt;physics_collision</title><style>.edge>path:hover{stroke-width:8}</style>
<path fill="none" stroke="black" d="M168.54,-514.29C187.18,-475.02 234.64,-376.52 279.11,-296.64 286.37,-283.61 294.86,-269.51 302.31,-257.47"/>
<polygon fill="#f91010" stroke="black" points="305.15,-259.54 307.47,-249.2 299.21,-255.83 305.15,-259.54"/>
</g>
<!-- render_renderable -->
<g id="node18" class="node">
<title>render_renderable</title><style>.edge>path:hover{stroke-width:8}</style>
<ellipse fill="#6146a4" stroke="black" cx="322.25" cy="-381.64" rx="43.13" ry="21.57"/>
<text xml:space="preserve" text-anchor="middle" x="322.25" y="-383.39" font-family="Helvetica,sans-Serif" font-size="10.00" fill="#ffffff">render.</text>
<text xml:space="preserve" text-anchor="middle" x="322.25" y="-372.14" font-family="Helvetica,sans-Serif" font-size="10.00" fill="#ffffff">renderable</text>
</g>
<!-- core&#45;&gt;render_renderable -->
<g id="edge8" class="edge">
<title>core&#45;&gt;render_renderable</title><style>.edge>path:hover{stroke-width:8}</style>
<path fill="none" stroke="black" d="M243.11,-527.64C295.79,-517.96 248,-456.23 279.11,-412.64 280.94,-410.08 283.05,-407.64 285.33,-405.34"/>
<polygon fill="#f91010" stroke="black" points="287.24,-408.32 292.42,-399.08 282.61,-403.07 287.24,-408.32"/>
<path fill="none" stroke="black" d="M186.71,-532.12C202.83,-531.97 223.81,-531.01 242.11,-527.64"/>
</g>
<!-- systems_enemy_spawner -->
<g id="node20" class="node">
<title>systems_enemy_spawner</title><style>.edge>path:hover{stroke-width:8}</style>
<ellipse fill="#6b2e62" stroke="black" cx="1151.62" cy="-644.64" rx="61.7" ry="21.57"/>
<text xml:space="preserve" text-anchor="middle" x="1151.62" y="-646.39" font-family="Helvetica,sans-Serif" font-size="10.00" fill="#ffffff">systems.</text>
<text xml:space="preserve" text-anchor="middle" x="1151.62" y="-635.14" font-family="Helvetica,sans-Serif" font-size="10.00" fill="#ffffff">enemy_spawner</text>
</g>
<!-- core&#45;&gt;systems_enemy_spawner -->
<g id="edge9" class="edge">
<title>core&#45;&gt;systems_enemy_spawner</title><style>.edge>path:hover{stroke-width:8}</style>
<path fill="none" stroke="black" d="M729.4,-816.64C874.95,-787.56 1033.78,-708.5 1107.96,-668.5"/>
<polygon fill="#f91010" stroke="black" points="1109.41,-671.69 1116.53,-663.85 1106.07,-665.54 1109.41,-671.69"/>
<path fill="none" stroke="black" d="M161.58,-549.87C165.45,-594.35 181.14,-709.86 242.11,-778.64"/>
<path fill="none" stroke="black" d="M243.11,-778.64C278.99,-819.11 677.15,-833.93 728.4,-816.64"/>
</g>
<!-- core_console -->
<g id="node2" class="node">
<title>core_console</title><style>.edge>path:hover{stroke-width:8}</style>
<ellipse fill="#b65353" stroke="black" cx="322.25" cy="-323.64" rx="42.31" ry="18"/>
<text xml:space="preserve" text-anchor="middle" x="322.25" y="-319.77" font-family="Helvetica,sans-Serif" font-size="10.00" fill="#ffffff">core.console</text>
</g>
<!-- core_console&#45;&gt;entities_entity -->
<g id="edge10" class="edge">
<title>core_console&#45;&gt;entities_entity</title><style>.edge>path:hover{stroke-width:8}</style>
<path fill="none" stroke="black" d="M349.88,-337.66C364.61,-344.51 383.5,-351.87 401.38,-354.64"/>
</g>
<!-- core_time -->
<g id="node3" class="node">
<title>core_time</title><style>.edge>path:hover{stroke-width:8}</style>
<ellipse fill="#f31616" stroke="black" cx="474.09" cy="-697.64" rx="33.43" ry="18"/>
<text xml:space="preserve" text-anchor="middle" x="474.09" y="-693.77" font-family="Helvetica,sans-Serif" font-size="10.00" fill="#ffffff">core.time</text>
</g>
<!-- core_time&#45;&gt;entities_bullet -->
<g id="edge11" class="edge">
<title>core_time&#45;&gt;entities_bullet</title><style>.edge>path:hover{stroke-width:8}</style>
<path fill="none" stroke="black" d="M504.67,-689.96C517.47,-686.35 532.52,-681.73 545.8,-676.64"/>
<path fill="none" stroke="black" d="M546.8,-676.64C554.14,-673.82 585.18,-646.87 608.72,-625.85"/>
<polygon fill="#f31616" stroke="black" points="610.76,-628.72 615.87,-619.44 606.09,-623.51 610.76,-628.72"/>
</g>
<!-- core_time&#45;&gt;entities_enemy -->
<g id="edge12" class="edge">
<title>core_time&#45;&gt;entities_enemy</title><style>.edge>path:hover{stroke-width:8}</style>
<path fill="none" stroke="black" d="M638.6,-664.64C745.84,-635.82 787.56,-678.89 885.54,-626.64"/>
</g>
<!-- core_time&#45;&gt;entities_player -->
<g id="edge13" class="edge">
<title>core_time&#45;&gt;entities_player</title><style>.edge>path:hover{stroke-width:8}</style>
<path fill="none" stroke="black" d="M729.4,-588.64C741.58,-572.28 860.9,-534.72 926.33,-515.1"/>
<polygon fill="#f31616" stroke="black" points="927.08,-518.53 935.66,-512.31 925.08,-511.82 927.08,-518.53"/>
</g>
<!-- core_time&#45;&gt;gameplay_weapon -->
<g id="edge14" class="edge">
<title>core_time&#45;&gt;gameplay_weapon</title><style>.edge>path:hover{stroke-width:8}</style>
<path fill="none" stroke="black" d="M638.6,-664.64C689.09,-651.07 697.17,-630.58 728.4,-588.64"/>
<path fill="none" stroke="black" d="M546.8,-676.64C584.4,-662.23 597.71,-675.09 636.6,-664.64"/>
<path fill="none" stroke="black" d="M729.4,-588.64C789.89,-507.42 743.38,-462.49 765.4,-363.64 773.98,-325.13 786.94,-281.68 796,-252.88"/>
<polygon fill="#f31616" stroke="black" points="799.23,-254.27 798.92,-243.68 792.56,-252.15 799.23,-254.27"/>
</g>
<!-- core_time&#45;&gt;main_py -->
<g id="edge15" class="edge">
<title>core_time&#45;&gt;main_py</title><style>.edge>path:hover{stroke-width:8}</style>
<path fill="none" stroke="black" d="M638.6,-778.64C686.6,-799.37 677.13,-844.4 728.4,-854.64"/>
<path fill="none" stroke="black" d="M729.4,-854.64C871.37,-883.01 908.17,-819.07 1052.92,-816.64"/>
</g>
<!-- core_time&#45;&gt;systems_enemy_spawner -->
<g id="edge16" class="edge">
<title>core_time&#45;&gt;systems_enemy_spawner</title><style>.edge>path:hover{stroke-width:8}</style>
<path fill="none" stroke="black" d="M638.6,-778.64C731.13,-797.13 762.22,-790.4 849.54,-754.64 936.96,-718.84 955.14,-695.1 1016.92,-623.64 1038.01,-599.25 1024.79,-544.88 1052.92,-560.64"/>
<path fill="none" stroke="black" d="M495.26,-711.9C524.67,-731.68 581.8,-766.41 636.6,-778.64"/>
</g>
<!-- core_transform -->
<g id="node4" class="node">
<title>core_transform</title><style>.edge>path:hover{stroke-width:8}</style>
<ellipse fill="#b83d3d" stroke="black" cx="159.37" cy="-212.64" rx="46.74" ry="18"/>
<text xml:space="preserve" text-anchor="middle" x="159.37" y="-208.77" font-family="Helvetica,sans-Serif" font-size="10.00" fill="#ffffff">core.transform</text>
</g>
<!-- core_transform&#45;&gt;entities_entity -->
<g id="edge17" class="edge">
<title>core_transform&#45;&gt;entities_entity</title><style>.edge>path:hover{stroke-width:8}</style>
<path fill="none" stroke="black" d="M193.27,-225.51C249.43,-247.56 358.42,-290.76 365.38,-296.64 388.54,-316.23 371.4,-349.99 401.38,-354.64"/>
</g>
<!-- core_transform&#45;&gt;physics_collision -->
<g id="edge18" class="edge">
<title>core_transform&#45;&gt;physics_collision</title><style>.edge>path:hover{stroke-width:8}</style>
<path fill="none" stroke="black" d="M184.36,-197.04C206.14,-183.22 235.8,-165.41 242.11,-166.64"/>
</g>
<!-- core_vector -->
<g id="node5" class="node">
<title>core_vector</title><style>.edge>path:hover{stroke-width:8}</style>
<ellipse fill="#f91010" stroke="black" cx="38.31" cy="-212.64" rx="38.31" ry="18"/>
<text xml:space="preserve" text-anchor="middle" x="38.31" y="-208.77" font-family="Helvetica,sans-Serif" font-size="10.00" fill="#ffffff">core.vector</text>
</g>
<!-- core_vector&#45;&gt;core_transform -->
<g id="edge19" class="edge">
<title>core_vector&#45;&gt;core_transform</title><style>.edge>path:hover{stroke-width:8}</style>
<path fill="none" stroke="black" d="M76.98,-212.64C84.58,-212.64 92.72,-212.64 100.82,-212.64"/>
<polygon fill="#f91010" stroke="black" points="100.65,-216.14 110.65,-212.64 100.65,-209.14 100.65,-216.14"/>
</g>
<!-- core_vector&#45;&gt;entities_bullet -->
<g id="edge20" class="edge">
<title>core_vector&#45;&gt;entities_bullet</title><style>.edge>path:hover{stroke-width:8}</style>
<path fill="none" stroke="black" d="M40.14,-230.91C44.65,-320.88 69.33,-715.55 158.37,-789.64"/>
<path fill="none" stroke="black" d="M160.37,-789.64C263.68,-875.61 313.17,-719.49 438.38,-670.64 491.99,-649.73 554.76,-628.02 595.06,-614.43"/>
<polygon fill="#f91010" stroke="black" points="596.01,-617.81 604.37,-611.3 593.78,-611.17 596.01,-617.81"/>
</g>
<!-- core_vector&#45;&gt;entities_enemy -->
<g id="edge21" class="edge">
<title>core_vector&#45;&gt;entities_enemy</title><style>.edge>path:hover{stroke-width:8}</style>
<path fill="none" stroke="black" d="M243.11,-854.64C415.28,-913.89 454.52,-740.64 636.6,-740.64 636.6,-740.64 636.6,-740.64 729.4,-740.64 793.06,-740.64 800.07,-702.7 849.54,-662.64 867.13,-648.4 866.43,-638.74 885.54,-626.64"/>
<path fill="none" stroke="black" d="M160.37,-789.64C188.44,-826.61 200.76,-833.56 242.11,-854.64"/>
</g>
<!-- core_vector&#45;&gt;entities_entity -->
<g id="edge22" class="edge">
<title>core_vector&#45;&gt;entities_entity</title><style>.edge>path:hover{stroke-width:8}</style>
<path fill="none" stroke="black" d="M243.11,-485.64C297.3,-495.01 323.57,-502.36 365.38,-466.64 405.13,-432.68 349.71,-346.67 401.38,-354.64"/>
</g>
<!-- core_vector&#45;&gt;entities_player -->
<g id="edge23" class="edge">
<title>core_vector&#45;&gt;entities_player</title><style>.edge>path:hover{stroke-width:8}</style>
<path fill="none" stroke="black" d="M243.11,-485.64C259.29,-488.24 262.82,-491.85 279.11,-493.64 317.22,-497.82 327.16,-496.62 365.38,-493.64 528.2,-480.94 565.34,-427.35 728.4,-436.64"/>
</g>
<!-- core_vector&#45;&gt;gameplay_weapon -->
<g id="edge24" class="edge">
<title>core_vector&#45;&gt;gameplay_weapon</title><style>.edge>path:hover{stroke-width:8}</style>
<path fill="none" stroke="black" d="M243.11,-74.64C297.78,-61.25 319.28,-75.34 365.38,-107.64 411.63,-140.05 393.71,-177.09 438.38,-211.64 492.59,-253.56 515.37,-253.45 582.8,-265.64 646.95,-277.24 667.24,-280.31 729.4,-260.64 743.21,-256.27 757.51,-249.54 769.99,-242.85"/>
<polygon fill="#f91010" stroke="black" points="771.63,-245.94 778.67,-238.02 768.23,-239.82 771.63,-245.94"/>
</g>
<!-- core_vector&#45;&gt;main_py -->
<g id="edge25" class="edge">
<title>core_vector&#45;&gt;main_py</title><style>.edge>path:hover{stroke-width:8}</style>
<path fill="none" stroke="black" d="M44.9,-194.65C54.24,-167.83 75.74,-117.92 112.62,-93.64 161.21,-61.66 185.16,-86.45 242.11,-74.64"/>
<path fill="none" stroke="black" d="M1053.92,-322.64C1112.74,-391.83 1093.18,-432.3 1150.62,-502.64"/>
<path fill="none" stroke="black" d="M1250.31,-644.64C1258.18,-644.75 1266.59,-644.8 1274.65,-644.81"/>
<polygon fill="#f91010" stroke="black" points="1274.61,-648.31 1284.61,-644.81 1274.61,-641.31 1274.61,-648.31"/>
<path fill="none" stroke="black" d="M970.73,-208.64C986.99,-222.64 1001.37,-207.87 1016.92,-222.64 1051.17,-255.18 1022.33,-286.65 1052.92,-322.64"/>
<path fill="none" stroke="black" d="M1152.62,-502.64C1164.69,-517.43 1230.22,-644.38 1249.31,-644.64"/>
<path fill="none" stroke="black" d="M638.6,-16.64C679.14,-12.96 688.86,-0.99 729.4,-4.64 764.07,-7.76 772.28,-12.09 806.47,-18.64"/>
<path fill="none" stroke="black" d="M808.47,-18.64C904.05,-31.95 955.57,-197.3 968.73,-208.64"/>
<path fill="none" stroke="black" d="M243.11,-74.64C259.52,-70.16 263.09,-67.35 279.11,-61.64 349.79,-36.45 364.54,-18.95 438.38,-5.64 485.81,2.91 498.73,-0.18 546.8,-3.64 587.02,-6.54 596.29,-15.35 636.6,-16.64"/>
</g>
<!-- core_vector&#45;&gt;physics_collision -->
<g id="edge26" class="edge">
<title>core_vector&#45;&gt;physics_collision</title><style>.edge>path:hover{stroke-width:8}</style>
<path fill="none" stroke="black" d="M243.11,-166.64C263.56,-170.62 262.72,-183.8 279.11,-196.64 282.21,-199.07 285.46,-201.56 288.73,-204.03"/>
<polygon fill="#f91010" stroke="black" points="286.55,-206.76 296.66,-209.93 290.73,-201.15 286.55,-206.76"/>
<path fill="none" stroke="black" d="M65.45,-199.61C103.98,-182.02 178.32,-154.24 242.11,-166.64"/>
</g>
<!-- core_vector&#45;&gt;render_renderable -->
<g id="edge27" class="edge">
<title>core_vector&#45;&gt;render_renderable</title><style>.edge>path:hover{stroke-width:8}</style>
<path fill="none" stroke="black" d="M43.19,-230.67C57.69,-292.69 114.5,-493.09 242.11,-485.64"/>
<path fill="none" stroke="black" d="M243.11,-485.64C278.76,-491.8 255.88,-440.37 279.11,-412.64 281.19,-410.16 283.51,-407.77 285.95,-405.49"/>
<polygon fill="#f91010" stroke="black" points="288.05,-408.3 293.46,-399.19 283.55,-402.94 288.05,-408.3"/>
</g>
<!-- core_vector&#45;&gt;systems_enemy_spawner -->
<g id="edge28" class="edge">
<title>core_vector&#45;&gt;systems_enemy_spawner</title><style>.edge>path:hover{stroke-width:8}</style>
<path fill="none" stroke="black" d="M243.11,-854.64C307.56,-887.5 329.04,-892.64 401.38,-892.64 401.38,-892.64 401.38,-892.64 546.8,-892.64 616.13,-892.64 629.59,-865.99 692.4,-836.64 708.98,-828.89 711.14,-822.74 728.4,-816.64"/>
</g>
<!-- core_window -->
<g id="node6" class="node">
<title>core_window</title><style>.edge>path:hover{stroke-width:8}</style>
<ellipse fill="#e72222" stroke="black" cx="159.37" cy="-120.64" rx="41.86" ry="18"/>
<text xml:space="preserve" text-anchor="middle" x="159.37" y="-116.77" font-family="Helvetica,sans-Serif" font-size="10.00" fill="#ffffff">core.window</text>
</g>
<!-- core_window&#45;&gt;entities_bullet -->
<g id="edge29" class="edge">
<title>core_window&#45;&gt;entities_bullet</title><style>.edge>path:hover{stroke-width:8}</style>
<path fill="none" stroke="black" d="M243.11,-120.64C296.51,-106.6 325.83,-104.11 365.38,-142.64 421.94,-197.75 340.05,-266.89 401.38,-316.64"/>
<path fill="none" stroke="black" d="M402.38,-316.64C421.04,-331.6 490.1,-310.07 509.8,-323.64 593.3,-381.17 622.85,-507.89 632.42,-567.9"/>
<polygon fill="#e72222" stroke="black" points="628.91,-568.1 633.86,-577.47 635.84,-567.07 628.91,-568.1"/>
</g>
<!-- core_window&#45;&gt;entities_entity -->
<g id="edge30" class="edge">
<title>core_window&#45;&gt;entities_entity</title><style>.edge>path:hover{stroke-width:8}</style>
<path fill="none" stroke="black" d="M402.38,-316.64C411.98,-324.42 423.41,-331.38 434.25,-337.14"/>
<polygon fill="#e72222" stroke="black" points="432.54,-340.19 443.04,-341.6 435.71,-333.95 432.54,-340.19"/>
</g>
<!-- core_window&#45;&gt;entities_player -->
<g id="edge31" class="edge">
<title>core_window&#45;&gt;entities_player</title><style>.edge>path:hover{stroke-width:8}</style>
<path fill="none" stroke="black" d="M886.54,-398.64C900.6,-422.99 905.18,-428.54 922.54,-450.64 929.05,-458.92 936.48,-467.59 943.45,-475.43"/>
<polygon fill="#e72222" stroke="black" points="940.74,-477.65 950.04,-482.73 945.94,-472.96 940.74,-477.65"/>
<path fill="none" stroke="black" d="M546.8,-17.64C596.16,-32.1 544.86,-92.9 582.8,-127.64 672.56,-209.84 766,-101.12 849.54,-189.64 914.24,-258.19 838.43,-317 885.54,-398.64"/>
</g>
<!-- core_window&#45;&gt;main_py -->
<g id="edge32" class="edge">
<title>core_window&#45;&gt;main_py</title><style>.edge>path:hover{stroke-width:8}</style>
<path fill="none" stroke="black" d="M546.8,-17.64C585.15,-28.68 596.85,-20.25 636.6,-16.64"/>
<path fill="none" stroke="black" d="M243.11,-120.64C259.63,-116.56 263.05,-113.25 279.11,-107.64 397.21,-66.39 425.59,16.97 545.8,-17.64"/>
<path fill="none" stroke="black" d="M201.6,-122.03C214.58,-122.1 228.96,-121.78 242.11,-120.64"/>
</g>
<!-- core_window&#45;&gt;render_renderable -->
<g id="edge33" class="edge">
<title>core_window&#45;&gt;render_renderable</title><style>.edge>path:hover{stroke-width:8}</style>
<path fill="none" stroke="black" d="M173.97,-137.95C183.63,-150.71 196.53,-168.71 206.11,-185.64 245.6,-255.43 228.91,-288.11 279.11,-350.64 281.08,-353.1 283.3,-355.46 285.65,-357.7"/>
<polygon fill="#e72222" stroke="black" points="282.99,-360.04 292.87,-363.88 287.54,-354.72 282.99,-360.04"/>
</g>
<!-- entities -->
<g id="node7" class="node">
<title>entities</title><style>.edge>path:hover{stroke-width:8}</style>
<ellipse fill="#f9d810" stroke="black" cx="474.09" cy="-184.64" rx="28.11" ry="18"/>
<text xml:space="preserve" text-anchor="middle" x="474.09" y="-180.77" font-family="Helvetica,sans-Serif" font-size="10.00" fill="#000000">entities</text>
</g>
<!-- entities&#45;&gt;gameplay_weapon -->
<g id="edge34" class="edge">
<title>entities&#45;&gt;gameplay_weapon</title><style>.edge>path:hover{stroke-width:8}</style>
<path fill="none" stroke="black" d="M546.8,-184.64C621.51,-173.95 708.39,-192.22 760.33,-206.41"/>
<polygon fill="#f9d810" stroke="black" points="759.15,-209.71 769.72,-209.05 761.04,-202.97 759.15,-209.71"/>
</g>
<!-- entities&#45;&gt;main_py -->
<g id="edge35" class="edge">
<title>entities&#45;&gt;main_py</title><style>.edge>path:hover{stroke-width:8}</style>
<path fill="none" stroke="black" d="M729.4,-18.64C763.64,-19.51 772.83,-12.2 806.47,-18.64"/>
<path fill="none" stroke="black" d="M546.8,-184.64C598.15,-177.4 547.01,-111.17 582.8,-73.64 585.78,-70.51 724.08,-18.53 728.4,-18.64"/>
<path fill="none" stroke="black" d="M502.42,-186.46C515.59,-186.88 531.58,-186.7 545.8,-184.64"/>
</g>
<!-- entities&#45;&gt;systems_enemy_spawner -->
<g id="edge36" class="edge">
<title>entities&#45;&gt;systems_enemy_spawner</title><style>.edge>path:hover{stroke-width:8}</style>
<path fill="none" stroke="black" d="M729.4,-18.64C760.54,-16.48 897.77,-203.65 922.54,-222.64 960.38,-251.65 986.81,-236.68 1016.92,-273.64 1052.53,-317.36 1069.67,-464.02 1089.92,-516.64 1102.9,-550.38 1120.99,-587.58 1134.04,-613.14"/>
<polygon fill="#f9d810" stroke="black" points="1130.91,-614.7 1138.6,-621.99 1137.13,-611.5 1130.91,-614.7"/>
</g>
<!-- systems_entity_registry -->
<g id="node21" class="node">
<title>systems_entity_registry</title><style>.edge>path:hover{stroke-width:8}</style>
<ellipse fill="#c431af" stroke="black" cx="637.6" cy="-234.64" rx="54.8" ry="21.57"/>
<text xml:space="preserve" text-anchor="middle" x="637.6" y="-236.39" font-family="Helvetica,sans-Serif" font-size="10.00" fill="#ffffff">systems.</text>
<text xml:space="preserve" text-anchor="middle" x="637.6" y="-225.14" font-family="Helvetica,sans-Serif" font-size="10.00" fill="#ffffff">entity_registry</text>
</g>
<!-- entities&#45;&gt;systems_entity_registry -->
<g id="edge37" class="edge">
<title>entities&#45;&gt;systems_entity_registry</title><style>.edge>path:hover{stroke-width:8}</style>
<path fill="none" stroke="black" d="M546.8,-184.64C552.66,-183.8 576.56,-197.26 598.24,-210.43"/>
<polygon fill="#f9d810" stroke="black" points="596.32,-213.36 606.68,-215.61 599.99,-207.39 596.32,-213.36"/>
</g>
<!-- entities_bullet&#45;&gt;gameplay_weapon -->
<g id="edge38" class="edge">
<title>entities_bullet&#45;&gt;gameplay_weapon</title><style>.edge>path:hover{stroke-width:8}</style>
<path fill="none" stroke="black" d="M643.28,-578.95C653.47,-534.97 680.67,-433.35 728.4,-360.64"/>
</g>
<!-- entities_bullet&#45;&gt;main_py -->
<g id="edge39" class="edge">
<title>entities_bullet&#45;&gt;main_py</title><style>.edge>path:hover{stroke-width:8}</style>
<path fill="none" stroke="black" d="M1053.92,-816.64C1099.79,-821.91 1109.77,-800.17 1150.62,-778.64"/>
<path fill="none" stroke="black" d="M660.16,-617.71C697.7,-646.75 774.16,-702.64 806.47,-702.64 806.47,-702.64 806.47,-702.64 886.54,-702.64 931.36,-702.64 1008.39,-811.53 1052.92,-816.64"/>
</g>
<!-- entities_bullet&#45;&gt;systems_enemy_spawner -->
<g id="edge40" class="edge">
<title>entities_bullet&#45;&gt;systems_enemy_spawner</title><style>.edge>path:hover{stroke-width:8}</style>
<path fill="none" stroke="black" d="M668.1,-612.14C714.67,-628.78 808.02,-655.99 886.54,-640.64 947.93,-628.64 962.48,-618.44 1016.92,-587.64 1034.33,-577.79 1036.08,-549.84 1052.92,-560.64"/>
</g>
<!-- entities_enemy&#45;&gt;main_py -->
<g id="edge41" class="edge">
<title>entities_enemy&#45;&gt;main_py</title><style>.edge>path:hover{stroke-width:8}</style>
<path fill="none" stroke="black" d="M1152.62,-778.64C1185.37,-762.04 1212.59,-644.14 1249.31,-644.64"/>
<path fill="none" stroke="black" d="M975.73,-578.87C993.3,-639.29 1056.3,-826.45 1150.62,-778.64"/>
</g>
<!-- entities_enemy&#45;&gt;systems_enemy_spawner -->
<g id="edge42" class="edge">
<title>entities_enemy&#45;&gt;systems_enemy_spawner</title><style>.edge>path:hover{stroke-width:8}</style>
<path fill="none" stroke="black" d="M1011.71,-552.06C1025.74,-551.25 1040.91,-552.94 1052.92,-560.64"/>
</g>
<!-- entities_entity&#45;&gt;entities_bullet -->
<g id="edge43" class="edge">
<title>entities_entity&#45;&gt;entities_bullet</title><style>.edge>path:hover{stroke-width:8}</style>
<path fill="none" stroke="black" d="M488.31,-374.77C516.77,-418.13 583.97,-520.49 617.24,-571.16"/>
<polygon fill="#a58e08" stroke="black" points="614.18,-572.87 622.59,-579.31 620.03,-569.03 614.18,-572.87"/>
</g>
<!-- entities_entity&#45;&gt;entities_enemy -->
<g id="edge44" class="edge">
<title>entities_entity&#45;&gt;entities_enemy</title><style>.edge>path:hover{stroke-width:8}</style>
<path fill="none" stroke="black" d="M498.77,-370.44C520.15,-384.27 552.75,-404.33 582.8,-418.64 700.67,-474.76 847.07,-523.16 921.09,-546.23"/>
<polygon fill="#a58e08" stroke="black" points="919.88,-549.52 930.46,-549.14 921.95,-542.83 919.88,-549.52"/>
</g>
<!-- entities_entity&#45;&gt;entities_player -->
<g id="edge45" class="edge">
<title>entities_entity&#45;&gt;entities_player</title><style>.edge>path:hover{stroke-width:8}</style>
<path fill="none" stroke="black" d="M729.4,-436.64C783.85,-436.64 804.03,-430.74 849.54,-460.64 873.04,-476.07 857.82,-508 885.54,-512.64"/>
<path fill="none" stroke="black" d="M506.62,-363.78C549.09,-376.25 626.93,-399.7 692.4,-422.64 708.6,-428.32 711.28,-435.37 728.4,-436.64"/>
<path fill="none" stroke="black" d="M886.54,-512.64C898.98,-514.32 912.49,-513.7 924.89,-512.14"/>
<polygon fill="#a58e08" stroke="black" points="925.04,-515.66 934.42,-510.71 924.01,-508.73 925.04,-515.66"/>
</g>
<!-- entities_entity&#45;&gt;gameplay_weapon -->
<g id="edge46" class="edge">
<title>entities_entity&#45;&gt;gameplay_weapon</title><style>.edge>path:hover{stroke-width:8}</style>
<path fill="none" stroke="black" d="M546.8,-284.64C562.49,-277.68 566.24,-294.11 582.8,-298.64 646.06,-315.95 665.51,-341.26 728.4,-322.64"/>
<path fill="none" stroke="black" d="M729.4,-322.64C762.56,-314.52 783.69,-279.34 795.28,-252.54"/>
<polygon fill="#a58e08" stroke="black" points="798.46,-254.02 798.97,-243.44 791.97,-251.4 798.46,-254.02"/>
</g>
<!-- entities_entity&#45;&gt;main_py -->
<g id="edge47" class="edge">
<title>entities_entity&#45;&gt;main_py</title><style>.edge>path:hover{stroke-width:8}</style>
<path fill="none" stroke="black" d="M729.4,-322.64C758.01,-315.63 944.97,-191.24 968.73,-208.64"/>
</g>
<!-- entities_entity&#45;&gt;systems_entity_registry -->
<g id="edge48" class="edge">
<title>entities_entity&#45;&gt;systems_entity_registry</title><style>.edge>path:hover{stroke-width:8}</style>
<path fill="none" stroke="black" d="M546.8,-284.64C563.79,-277.1 581.82,-267.41 597.24,-258.58"/>
<polygon fill="#a58e08" stroke="black" points="598.76,-261.74 605.64,-253.69 595.24,-255.69 598.76,-261.74"/>
<path fill="none" stroke="black" d="M488.73,-334.64C501.37,-317.97 521.8,-295.29 545.8,-284.64"/>
</g>
<!-- entities_player&#45;&gt;main_py -->
<g id="edge49" class="edge">
<title>entities_player&#45;&gt;main_py</title><style>.edge>path:hover{stroke-width:8}</style>
<path fill="none" stroke="black" d="M1000.14,-491.09C1040.98,-477.2 1113.99,-460.62 1150.62,-502.64"/>
</g>
<!-- entities_player&#45;&gt;systems_enemy_spawner -->
<g id="edge50" class="edge">
<title>entities_player&#45;&gt;systems_enemy_spawner</title><style>.edge>path:hover{stroke-width:8}</style>
<path fill="none" stroke="black" d="M994.87,-518.49C1002.02,-523.28 1009.83,-528.61 1016.92,-533.64 1033.23,-545.22 1036.08,-549.84 1052.92,-560.64"/>
</g>
<!-- gameplay -->
<g id="node12" class="node">
<title>gameplay</title><style>.edge>path:hover{stroke-width:8}</style>
<ellipse fill="#60db2f" stroke="black" cx="807.47" cy="-390.64" rx="34.32" ry="18"/>
<text xml:space="preserve" text-anchor="middle" x="807.47" y="-386.77" font-family="Helvetica,sans-Serif" font-size="10.00" fill="#000000">gameplay</text>
</g>
<!-- gameplay&#45;&gt;entities_enemy -->
<g id="edge51" class="edge">
<title>gameplay&#45;&gt;entities_enemy</title><style>.edge>path:hover{stroke-width:8}</style>
<path fill="none" stroke="black" d="M825.28,-406.22C841.96,-422.27 867.57,-448.57 885.54,-474.64"/>
</g>
<!-- gameplay&#45;&gt;entities_player -->
<g id="edge52" class="edge">
<title>gameplay&#45;&gt;entities_player</title><style>.edge>path:hover{stroke-width:8}</style>
<path fill="none" stroke="black" d="M886.54,-436.64C907.18,-446.68 927.32,-462.71 942.5,-476.47"/>
<polygon fill="#60db2f" stroke="black" points="940.02,-478.94 949.72,-483.21 944.8,-473.83 940.02,-478.94"/>
</g>
<!-- gameplay&#45;&gt;main_py -->
<g id="edge53" class="edge">
<title>gameplay&#45;&gt;main_py</title><style>.edge>path:hover{stroke-width:8}</style>
<path fill="none" stroke="black" d="M826.83,-375.39C872.6,-339.17 992.44,-255.88 1052.92,-322.64"/>
</g>
<!-- gameplay&#45;&gt;systems_enemy_spawner -->
<g id="edge54" class="edge">
<title>gameplay&#45;&gt;systems_enemy_spawner</title><style>.edge>path:hover{stroke-width:8}</style>
<path fill="none" stroke="black" d="M886.54,-436.64C919.39,-452.62 940.83,-413.06 968.73,-436.64"/>
<path fill="none" stroke="black" d="M829.85,-404.75C845.02,-414.42 866.07,-427.17 885.54,-436.64"/>
</g>
<!-- gameplay_weapon&#45;&gt;entities_enemy -->
<g id="edge55" class="edge">
<title>gameplay_weapon&#45;&gt;entities_enemy</title><style>.edge>path:hover{stroke-width:8}</style>
<path fill="none" stroke="black" d="M886.54,-474.64C903.98,-499.93 900.62,-512.13 922.54,-533.64 924.84,-535.9 927.37,-538.04 930.01,-540.05"/>
<polygon fill="#409c1b" stroke="black" points="927.85,-542.81 938.08,-545.55 931.79,-537.03 927.85,-542.81"/>
<path fill="none" stroke="black" d="M814.62,-242.18C831.67,-301.7 878.71,-464.73 885.54,-474.64"/>
</g>
<!-- gameplay_weapon&#45;&gt;entities_player -->
<g id="edge56" class="edge">
<title>gameplay_weapon&#45;&gt;entities_player</title><style>.edge>path:hover{stroke-width:8}</style>
<path fill="none" stroke="black" d="M815.98,-242.23C828.31,-276.5 854.57,-344.97 885.54,-398.64"/>
</g>
<!-- gameplay_weapon&#45;&gt;main_py -->
<g id="edge57" class="edge">
<title>gameplay_weapon&#45;&gt;main_py</title><style>.edge>path:hover{stroke-width:8}</style>
<path fill="none" stroke="black" d="M843.05,-208.83C856.5,-205.9 871.91,-204.6 885.54,-208.64"/>
</g>
<!-- gameplay_weapon&#45;&gt;systems_enemy_spawner -->
<g id="edge58" class="edge">
<title>gameplay_weapon&#45;&gt;systems_enemy_spawner</title><style>.edge>path:hover{stroke-width:8}</style>
<path fill="none" stroke="black" d="M970.73,-436.64C990.4,-453.27 1001.26,-451.19 1016.92,-471.64 1042.86,-505.52 1017,-537.61 1052.92,-560.64"/>
<path fill="none" stroke="black" d="M819.59,-241.58C842.6,-283.3 899.19,-377.87 968.73,-436.64"/>
</g>
<!-- physics -->
<g id="node15" class="node">
<title>physics</title><style>.edge>path:hover{stroke-width:8}</style>
<ellipse fill="#538cb6" stroke="black" cx="322.25" cy="-439.64" rx="29.44" ry="18"/>
<text xml:space="preserve" text-anchor="middle" x="322.25" y="-435.77" font-family="Helvetica,sans-Serif" font-size="10.00" fill="#000000">physics</text>
</g>
<!-- physics&#45;&gt;entities_entity -->
<g id="edge59" class="edge">
<title>physics&#45;&gt;entities_entity</title><style>.edge>path:hover{stroke-width:8}</style>
<path fill="none" stroke="black" d="M345.19,-428.14C352.14,-423.86 359.52,-418.58 365.38,-412.64 386.68,-391.03 371.4,-349.99 401.38,-354.64"/>
</g>
<!-- physics_collision&#45;&gt;entities_entity -->
<g id="edge60" class="edge">
<title>physics_collision&#45;&gt;entities_entity</title><style>.edge>path:hover{stroke-width:8}</style>
<path fill="none" stroke="black" d="M346.63,-244.17C353.35,-249.76 360.24,-256.44 365.38,-263.64 390.66,-299.03 358.4,-347.98 401.38,-354.64"/>
</g>
<!-- render -->
<g id="node17" class="node">
<title>render</title><style>.edge>path:hover{stroke-width:8}</style>
<ellipse fill="#7053b6" stroke="black" cx="322.25" cy="-169.64" rx="27" ry="18"/>
<text xml:space="preserve" text-anchor="middle" x="322.25" y="-165.77" font-family="Helvetica,sans-Serif" font-size="10.00" fill="#ffffff">render</text>
</g>
<!-- render&#45;&gt;entities_entity -->
<g id="edge61" class="edge">
<title>render&#45;&gt;entities_entity</title><style>.edge>path:hover{stroke-width:8}</style>
<path fill="none" stroke="black" d="M345.11,-179.33C352.56,-183.63 360.29,-189.39 365.38,-196.64 406.78,-255.57 330.21,-343.61 401.38,-354.64"/>
<path fill="none" stroke="black" d="M402.38,-354.64C410.3,-355.87 418.77,-356.47 427,-356.68"/>
<polygon fill="#7053b6" stroke="black" points="426.86,-360.18 436.89,-356.75 426.91,-353.18 426.86,-360.18"/>
</g>
<!-- render_renderable&#45;&gt;entities_entity -->
<g id="edge62" class="edge">
<title>render_renderable&#45;&gt;entities_entity</title><style>.edge>path:hover{stroke-width:8}</style>
<path fill="none" stroke="black" d="M350.84,-364.99C365.52,-357.97 384.08,-351.96 401.38,-354.64"/>
</g>
<!-- systems -->
<g id="node19" class="node">
<title>systems</title><style>.edge>path:hover{stroke-width:8}</style>
<ellipse fill="#ce3bb9" stroke="black" cx="637.6" cy="-100.64" rx="31.66" ry="18"/>
<text xml:space="preserve" text-anchor="middle" x="637.6" y="-96.77" font-family="Helvetica,sans-Serif" font-size="10.00" fill="#ffffff">systems</text>
</g>
<!-- systems&#45;&gt;gameplay_weapon -->
<g id="edge63" class="edge">
<title>systems&#45;&gt;gameplay_weapon</title><style>.edge>path:hover{stroke-width:8}</style>
<path fill="none" stroke="black" d="M658.18,-114.64C686.25,-134.7 738.3,-171.91 772.67,-196.48"/>
<polygon fill="#ce3bb9" stroke="black" points="770.45,-199.2 780.62,-202.16 774.52,-193.5 770.45,-199.2"/>
</g>
<!-- systems&#45;&gt;main_py -->
<g id="edge64" class="edge">
<title>systems&#45;&gt;main_py</title><style>.edge>path:hover{stroke-width:8}</style>
<path fill="none" stroke="black" d="M660.64,-88.05C702.56,-64.39 790.99,-15.87 806.47,-18.64"/>
</g>
<!-- systems_enemy_spawner&#45;&gt;main_py -->
<g id="edge65" class="edge">
<title>systems_enemy_spawner&#45;&gt;main_py</title><style>.edge>path:hover{stroke-width:8}</style>
<path fill="none" stroke="black" d="M1213.74,-644.39C1225.54,-644.41 1237.81,-644.48 1249.31,-644.64"/>
</g>
<!-- systems_entity_registry&#45;&gt;gameplay_weapon -->
<g id="edge66" class="edge">
<title>systems_entity_registry&#45;&gt;gameplay_weapon</title><style>.edge>path:hover{stroke-width:8}</style>
<path fill="none" stroke="black" d="M729.4,-246.64C739.82,-243.43 750.96,-239.8 761.44,-236.28"/>
<polygon fill="#c431af" stroke="black" points="762.29,-239.69 770.64,-233.17 760.04,-233.06 762.29,-239.69"/>
</g>
<!-- systems_entity_registry&#45;&gt;main_py -->
<g id="edge67" class="edge">
<title>systems_entity_registry&#45;&gt;main_py</title><style>.edge>path:hover{stroke-width:8}</style>
<path fill="none" stroke="black" d="M666.9,-216.12C691.71,-201.05 729.35,-180.98 765.4,-172.64 801.83,-164.21 814.99,-158.33 849.54,-172.64 870.45,-181.3 863.85,-202.22 885.54,-208.64"/>
<path fill="none" stroke="black" d="M886.54,-208.64C922.93,-211.89 939.26,-187.06 968.73,-208.64"/>
</g>
<!-- systems_entity_registry&#45;&gt;systems_enemy_spawner -->
<g id="edge68" class="edge">
<title>systems_entity_registry&#45;&gt;systems_enemy_spawner</title><style>.edge>path:hover{stroke-width:8}</style>
<path fill="none" stroke="black" d="M1053.92,-560.64C1078.96,-576.6 1104.19,-598.77 1122.6,-616.33"/>
<polygon fill="#c431af" stroke="black" points="1119.84,-618.53 1129.46,-622.98 1124.71,-613.5 1119.84,-618.53"/>
<path fill="none" stroke="black" d="M681.7,-247.81C696.71,-250.46 713.52,-251.22 728.4,-246.64"/>
<path fill="none" stroke="black" d="M729.4,-246.64C758.04,-237.83 739.16,-204.1 765.4,-189.64 798.15,-171.59 816.27,-172.57 849.54,-189.64 877.91,-204.19 1003.37,-393.79 1016.92,-422.64 1043.86,-480.01 999.47,-526.57 1052.92,-560.64"/>
</g>
</g>
</svg>
