<?xml version="1.0" encoding="UTF-8" standalone="no"?>
<!DOCTYPE svg PUBLIC "-//W3C//DTD SVG 1.1//EN"
 "http://www.w3.org/Graphics/SVG/1.1/DTD/svg11.dtd">
<!-- Generated by graphviz version 14.1.3 (20260303.0454)
 -->
<!-- Title: G Pages: 1 -->
<svg width="1469pt" height="1235pt"
 viewBox="0.00 0.00 1469.00 1235.00" xmlns="http://www.w3.org/2000/svg" xmlns:xlink="http://www.w3.org/1999/xlink">
<g id="graph0" class="graph" transform="scale(1 1) rotate(0) translate(4 1231.16)">
<title>G</title><style>.edge>path:hover{stroke-width:8}</style>
<polygon fill="white" stroke="none" points="-4,4 -4,-1231.16 1465.48,-1231.16 1465.48,4 -4,4"/>
<!-- core -->
<g id="node1" class="node">
<title>core</title><style>.edge>path:hover{stroke-width:8}</style>
<ellipse fill="#f91010" stroke="black" cx="159.37" cy="-516.61" rx="27" ry="18"/>
<text xml:space="preserve" text-anchor="middle" x="159.37" y="-512.73" font-family="Helvetica,sans-Serif" font-size="10.00" fill="#ffffff">core</text>
</g>
<!-- entities_enemy -->
<g id="node8" class="node">
<title>entities_enemy</title><style>.edge>path:hover{stroke-width:8}</style>
<ellipse fill="#887d3a" stroke="black" cx="936.73" cy="-1049.61" rx="47.19" ry="18"/>
<text xml:space="preserve" text-anchor="middle" x="936.73" y="-1045.73" font-family="Helvetica,sans-Serif" font-size="10.00" fill="#ffffff">entities.enemy</text>
</g>
<!-- core&#45;&gt;entities_enemy -->
<g id="edge1" class="edge">
<title>core&#45;&gt;entities_enemy</title><style>.edge>path:hover{stroke-width:8}</style>
<path fill="none" stroke="black" d="M323.25,-952.61C380.15,-995.2 373.52,-1034.54 438.38,-1063.61 519,-1099.74 548.29,-1081.37 636.6,-1078.61"/>
<path fill="none" stroke="black" d="M638.6,-1078.61C696.89,-1067.69 711.04,-1042.46 769.47,-1052.61"/>
</g>
<!-- entities_entity -->
<g id="node9" class="node">
<title>entities_entity</title><style>.edge>path:hover{stroke-width:8}</style>
<ellipse fill="#9c8811" stroke="black" cx="474.09" cy="-600.61" rx="35.71" ry="21.57"/>
<text xml:space="preserve" text-anchor="middle" x="474.09" y="-602.36" font-family="Helvetica,sans-Serif" font-size="10.00" fill="#000000">entities.</text>
<text xml:space="preserve" text-anchor="middle" x="474.09" y="-591.11" font-family="Helvetica,sans-Serif" font-size="10.00" fill="#000000">entity</text>
</g>
<!-- core&#45;&gt;entities_entity -->
<g id="edge2" class="edge">
<title>core&#45;&gt;entities_entity</title><style>.edge>path:hover{stroke-width:8}</style>
<path fill="none" stroke="black" d="M161.08,-535C164.2,-603.96 179.54,-844.82 242.11,-876.61"/>
<path fill="none" stroke="black" d="M243.11,-876.61C316.87,-914.08 238.52,-513.86 321.25,-512.61"/>
</g>
<!-- entities_player -->
<g id="node10" class="node">
<title>entities_player</title><style>.edge>path:hover{stroke-width:8}</style>
<ellipse fill="#736826" stroke="black" cx="1096.62" cy="-608.61" rx="35.71" ry="21.57"/>
<text xml:space="preserve" text-anchor="middle" x="1096.62" y="-610.36" font-family="Helvetica,sans-Serif" font-size="10.00" fill="#ffffff">entities.</text>
<text xml:space="preserve" text-anchor="middle" x="1096.62" y="-599.11" font-family="Helvetica,sans-Serif" font-size="10.00" fill="#ffffff">player</text>
</g>
<!-- core&#45;&gt;entities_player -->
<g id="edge3" class="edge">
<title>core&#45;&gt;entities_player</title><style>.edge>path:hover{stroke-width:8}</style>
<path fill="none" stroke="black" d="M937.73,-585.61C976.17,-591.4 991.29,-549.44 1023.91,-570.61"/>
<path fill="none" stroke="black" d="M185.76,-512.21C203.17,-508.24 226.1,-501.06 243.11,-488.61 264.92,-472.65 255,-451.81 279.11,-439.61 313.32,-422.29 327.13,-437.03 365.38,-439.61 568.77,-453.29 618.38,-479.53 812.54,-541.61 867.92,-559.31 878.24,-576.95 935.73,-585.61"/>
</g>
<!-- gameplay_munition -->
<g id="node12" class="node">
<title>gameplay_munition</title><style>.edge>path:hover{stroke-width:8}</style>
<ellipse fill="#44a51d" stroke="black" cx="637.6" cy="-788.61" rx="42.07" ry="21.57"/>
<text xml:space="preserve" text-anchor="middle" x="637.6" y="-790.36" font-family="Helvetica,sans-Serif" font-size="10.00" fill="#ffffff">gameplay.</text>
<text xml:space="preserve" text-anchor="middle" x="637.6" y="-779.11" font-family="Helvetica,sans-Serif" font-size="10.00" fill="#ffffff">munition</text>
</g>
<!-- core&#45;&gt;gameplay_munition -->
<g id="edge4" class="edge">
<title>core&#45;&gt;gameplay_munition</title><style>.edge>path:hover{stroke-width:8}</style>
<path fill="none" stroke="black" d="M475.09,-952.61C510.47,-948.03 518.84,-937.97 545.8,-914.61"/>
<path fill="none" stroke="black" d="M323.25,-952.61C378.07,-990.41 407.04,-961.15 473.09,-952.61"/>
<path fill="none" stroke="black" d="M243.11,-876.61C268.03,-889.63 258.38,-909.62 279.11,-928.61 295.01,-943.16 303.99,-939.69 321.25,-952.61"/>
</g>
<!-- gameplay_weapon -->
<g id="node13" class="node">
<title>gameplay_weapon</title><style>.edge>path:hover{stroke-width:8}</style>
<ellipse fill="#4aca16" stroke="black" cx="770.47" cy="-1002.61" rx="42.07" ry="21.57"/>
<text xml:space="preserve" text-anchor="middle" x="770.47" y="-1004.36" font-family="Helvetica,sans-Serif" font-size="10.00" fill="#000000">gameplay.</text>
<text xml:space="preserve" text-anchor="middle" x="770.47" y="-993.11" font-family="Helvetica,sans-Serif" font-size="10.00" fill="#000000">weapon</text>
</g>
<!-- core&#45;&gt;gameplay_weapon -->
<g id="edge5" class="edge">
<title>core&#45;&gt;gameplay_weapon</title><style>.edge>path:hover{stroke-width:8}</style>
<path fill="none" stroke="black" d="M546.8,-952.61C610.69,-939.84 684.38,-964.11 728.91,-983.1"/>
<polygon fill="#f91010" stroke="black" points="727.37,-986.24 737.93,-987.05 730.18,-979.83 727.37,-986.24"/>
</g>
<!-- main_py -->
<g id="node14" class="node">
<title>main_py</title><style>.edge>path:hover{stroke-width:8}</style>
<ellipse fill="#356350" stroke="black" cx="1431.6" cy="-965.61" rx="29.88" ry="18"/>
<text xml:space="preserve" text-anchor="middle" x="1431.6" y="-961.73" font-family="Helvetica,sans-Serif" font-size="10.00" fill="#ffffff">main.py</text>
</g>
<!-- core&#45;&gt;main_py -->
<g id="edge6" class="edge">
<title>core&#45;&gt;main_py</title><style>.edge>path:hover{stroke-width:8}</style>
<path fill="none" stroke="black" d="M243.11,-876.61C281.29,-896.56 254.89,-930.98 279.11,-966.61 324.96,-1034.03 466.23,-1200.81 545.8,-1218.61"/>
<path fill="none" stroke="black" d="M546.8,-1218.61C586.31,-1224.26 597.31,-1211.56 636.6,-1218.61"/>
</g>
<!-- physics_collision -->
<g id="node16" class="node">
<title>physics_collision</title><style>.edge>path:hover{stroke-width:8}</style>
<ellipse fill="#2f7fbc" stroke="black" cx="322.25" cy="-182.61" rx="37.3" ry="21.57"/>
<text xml:space="preserve" text-anchor="middle" x="322.25" y="-184.36" font-family="Helvetica,sans-Serif" font-size="10.00" fill="#ffffff">physics.</text>
<text xml:space="preserve" text-anchor="middle" x="322.25" y="-173.11" font-family="Helvetica,sans-Serif" font-size="10.00" fill="#ffffff">collision</text>
</g>
<!-- core&#45;&gt;physics_collision -->
<g id="edge7" class="edge">
<title>core&#45;&gt;physics_collision</title><style>.edge>path:hover{stroke-width:8}</style>
<path fill="none" stroke="black" d="M176.58,-502.51C186.25,-493.37 198.17,-480.75 206.11,-467.61 257,-383.39 238.89,-348.4 279.11,-258.61 286.04,-243.14 295.01,-226.61 302.88,-212.93"/>
<polygon fill="#f91010" stroke="black" points="305.85,-214.79 307.88,-204.39 299.81,-211.25 305.85,-214.79"/>
</g>
<!-- render_renderable -->
<g id="node18" class="node">
<title>render_renderable</title><style>.edge>path:hover{stroke-width:8}</style>
<ellipse fill="#572fbc" stroke="black" cx="322.25" cy="-289.61" rx="43.13" ry="21.57"/>
<text xml:space="preserve" text-anchor="middle" x="322.25" y="-291.36" font-family="Helvetica,sans-Serif" font-size="10.00" fill="#ffffff">render.</text>
<text xml:space="preserve" text-anchor="middle" x="322.25" y="-280.11" font-family="Helvetica,sans-Serif" font-size="10.00" fill="#ffffff">renderable</text>
</g>
<!-- core&#45;&gt;render_renderable -->
<g id="edge8" class="edge">
<title>core&#45;&gt;render_renderable</title><style>.edge>path:hover{stroke-width:8}</style>
<path fill="none" stroke="black" d="M243.11,-474.61C279.24,-440.4 259.34,-414.26 279.11,-368.61 286.17,-352.31 295.32,-334.82 303.29,-320.45"/>
<polygon fill="#f91010" stroke="black" points="306.24,-322.35 308.1,-311.92 300.14,-318.92 306.24,-322.35"/>
<path fill="none" stroke="black" d="M184.04,-508.59C201.65,-501.72 225.43,-490.4 242.11,-474.61"/>
</g>
<!-- systems_armory -->
<g id="node20" class="node">
<title>systems_armory</title><style>.edge>path:hover{stroke-width:8}</style>
<ellipse fill="#6b2e62" stroke="black" cx="936.73" cy="-539.61" rx="51.18" ry="18"/>
<text xml:space="preserve" text-anchor="middle" x="936.73" y="-535.73" font-family="Helvetica,sans-Serif" font-size="10.00" fill="#ffffff">systems.armory</text>
</g>
<!-- core&#45;&gt;systems_armory -->
<g id="edge9" class="edge">
<title>core&#45;&gt;systems_armory</title><style>.edge>path:hover{stroke-width:8}</style>
<path fill="none" stroke="black" d="M243.11,-474.61C267.94,-451.09 249.82,-424.25 279.11,-406.61 326.05,-378.35 347.86,-401.26 402.38,-406.61 434.26,-409.73 441.99,-428.29 473.09,-420.61"/>
<path fill="none" stroke="black" d="M475.09,-420.61C599.97,-378.59 639.92,-431.57 769.47,-455.61"/>
</g>
<!-- systems_enemy_spawner -->
<g id="node21" class="node">
<title>systems_enemy_spawner</title><style>.edge>path:hover{stroke-width:8}</style>
<ellipse fill="#6b2e62" stroke="black" cx="1267.02" cy="-965.61" rx="61.7" ry="21.57"/>
<text xml:space="preserve" text-anchor="middle" x="1267.02" y="-967.36" font-family="Helvetica,sans-Serif" font-size="10.00" fill="#ffffff">systems.</text>
<text xml:space="preserve" text-anchor="middle" x="1267.02" y="-956.11" font-family="Helvetica,sans-Serif" font-size="10.00" fill="#ffffff">enemy_spawner</text>
</g>
<!-- core&#45;&gt;systems_enemy_spawner -->
<g id="edge10" class="edge">
<title>core&#45;&gt;systems_enemy_spawner</title><style>.edge>path:hover{stroke-width:8}</style>
<path fill="none" stroke="black" d="M475.09,-952.61C505.64,-945.24 514.89,-958.32 545.8,-952.61"/>
<path fill="none" stroke="black" d="M546.8,-952.61C562.91,-949.63 566.51,-946.4 582.8,-944.61 738.99,-927.46 781.93,-933.39 935.73,-965.61"/>
</g>
<!-- systems_entity_registry -->
<g id="node22" class="node">
<title>systems_entity_registry</title><style>.edge>path:hover{stroke-width:8}</style>
<ellipse fill="#b42da0" stroke="black" cx="637.6" cy="-657.61" rx="54.8" ry="21.57"/>
<text xml:space="preserve" text-anchor="middle" x="637.6" y="-659.36" font-family="Helvetica,sans-Serif" font-size="10.00" fill="#ffffff">systems.</text>
<text xml:space="preserve" text-anchor="middle" x="637.6" y="-648.11" font-family="Helvetica,sans-Serif" font-size="10.00" fill="#ffffff">entity_registry</text>
</g>
<!-- core&#45;&gt;systems_entity_registry -->
<g id="edge11" class="edge">
<title>core&#45;&gt;systems_entity_registry</title><style>.edge>path:hover{stroke-width:8}</style>
<path fill="none" stroke="black" d="M243.11,-876.61C305.83,-908.46 331.04,-876.61 401.38,-876.61 401.38,-876.61 401.38,-876.61 475.09,-876.61 498.2,-876.61 580.34,-748.65 617.77,-688.35"/>
<polygon fill="#f91010" stroke="black" points="620.72,-690.24 623,-679.89 614.77,-686.56 620.72,-690.24"/>
</g>
<!-- core_console -->
<g id="node2" class="node">
<title>core_console</title><style>.edge>path:hover{stroke-width:8}</style>
<ellipse fill="#c24747" stroke="black" cx="322.25" cy="-754.61" rx="42.31" ry="18"/>
<text xml:space="preserve" text-anchor="middle" x="322.25" y="-750.73" font-family="Helvetica,sans-Serif" font-size="10.00" fill="#ffffff">core.console</text>
</g>
<!-- core_console&#45;&gt;entities_entity -->
<g id="edge12" class="edge">
<title>core_console&#45;&gt;entities_entity</title><style>.edge>path:hover{stroke-width:8}</style>
<path fill="none" stroke="black" d="M402.38,-762.61C458.65,-740.7 406.56,-682.92 438.38,-631.61 439.69,-629.49 441.2,-627.43 442.82,-625.44"/>
<polygon fill="#c24747" stroke="black" points="445.17,-628.06 449.5,-618.39 440.08,-623.25 445.17,-628.06"/>
<path fill="none" stroke="black" d="M357.63,-764.89C371.61,-767.36 387.66,-767.95 401.38,-762.61"/>
</g>
<!-- core_console&#45;&gt;systems_entity_registry -->
<g id="edge13" class="edge">
<title>core_console&#45;&gt;systems_entity_registry</title><style>.edge>path:hover{stroke-width:8}</style>
<path fill="none" stroke="black" d="M402.38,-762.61C463.01,-739 488.19,-766.87 546.8,-738.61 572.31,-726.3 595.88,-704.47 612.46,-686.57"/>
<polygon fill="#c24747" stroke="black" points="614.93,-689.06 619.01,-679.28 609.72,-684.38 614.93,-689.06"/>
</g>
<!-- core_time -->
<g id="node3" class="node">
<title>core_time</title><style>.edge>path:hover{stroke-width:8}</style>
<ellipse fill="#f31616" stroke="black" cx="474.09" cy="-1036.61" rx="33.43" ry="18"/>
<text xml:space="preserve" text-anchor="middle" x="474.09" y="-1032.73" font-family="Helvetica,sans-Serif" font-size="10.00" fill="#ffffff">core.time</text>
</g>
<!-- core_time&#45;&gt;entities_enemy -->
<g id="edge14" class="edge">
<title>core_time&#45;&gt;entities_enemy</title><style>.edge>path:hover{stroke-width:8}</style>
<path fill="none" stroke="black" d="M638.6,-1040.61C695.82,-1052.31 712.63,-1039.15 769.47,-1052.61"/>
</g>
<!-- core_time&#45;&gt;entities_player -->
<g id="edge15" class="edge">
<title>core_time&#45;&gt;entities_player</title><style>.edge>path:hover{stroke-width:8}</style>
<path fill="none" stroke="black" d="M546.8,-990.61C648.71,-916.19 719.7,-976.07 812.54,-890.61 868.27,-839.31 829.7,-787.78 885.54,-736.61 921.32,-703.82 945.93,-722.96 987.91,-698.61 1018.34,-680.95 1048.7,-654.58 1069.4,-634.95"/>
<polygon fill="#f31616" stroke="black" points="1071.79,-637.5 1076.56,-628.04 1066.93,-632.46 1071.79,-637.5"/>
</g>
<!-- core_time&#45;&gt;gameplay_munition -->
<g id="edge16" class="edge">
<title>core_time&#45;&gt;gameplay_munition</title><style>.edge>path:hover{stroke-width:8}</style>
<path fill="none" stroke="black" d="M546.8,-990.61C581.59,-965.2 565.46,-940.05 582.8,-900.61 594.96,-872.94 609.92,-842.02 620.97,-819.69"/>
<polygon fill="#f31616" stroke="black" points="624.06,-821.33 625.38,-810.82 617.8,-818.22 624.06,-821.33"/>
<path fill="none" stroke="black" d="M497.16,-1023.11C511.32,-1014.24 529.95,-1002.18 545.8,-990.61"/>
</g>
<!-- core_time&#45;&gt;gameplay_weapon -->
<g id="edge17" class="edge">
<title>core_time&#45;&gt;gameplay_weapon</title><style>.edge>path:hover{stroke-width:8}</style>
<path fill="none" stroke="black" d="M638.6,-1040.61C670.38,-1047.11 705.66,-1035.74 731.57,-1023.79"/>
<polygon fill="#f31616" stroke="black" points="732.89,-1027.04 740.36,-1019.52 729.83,-1020.74 732.89,-1027.04"/>
<path fill="none" stroke="black" d="M546.8,-990.61C583.69,-963.67 591.84,-1031.45 636.6,-1040.61"/>
</g>
<!-- core_time&#45;&gt;main_py -->
<g id="edge18" class="edge">
<title>core_time&#45;&gt;main_py</title><style>.edge>path:hover{stroke-width:8}</style>
<path fill="none" stroke="black" d="M481.85,-1054.31C499.52,-1097.21 551.62,-1204.27 636.6,-1218.61"/>
<path fill="none" stroke="black" d="M638.6,-1218.61C860.6,-1245.54 924.67,-1204.61 1132.33,-1121.61 1195.39,-1096.4 1202.43,-1071.45 1266.02,-1047.61"/>
</g>
<!-- core_time&#45;&gt;systems_enemy_spawner -->
<g id="edge19" class="edge">
<title>core_time&#45;&gt;systems_enemy_spawner</title><style>.edge>path:hover{stroke-width:8}</style>
<path fill="none" stroke="black" d="M495.36,-1050.9C516.18,-1064.64 550.07,-1084.49 582.8,-1092.61 773.09,-1139.8 830.04,-1124.77 1023.91,-1095.61"/>
</g>
<!-- core_transform -->
<g id="node4" class="node">
<title>core_transform</title><style>.edge>path:hover{stroke-width:8}</style>
<ellipse fill="#d02424" stroke="black" cx="159.37" cy="-360.61" rx="46.74" ry="18"/>
<text xml:space="preserve" text-anchor="middle" x="159.37" y="-356.73" font-family="Helvetica,sans-Serif" font-size="10.00" fill="#ffffff">core.transform</text>
</g>
<!-- core_transform&#45;&gt;entities_entity -->
<g id="edge20" class="edge">
<title>core_transform&#45;&gt;entities_entity</title><style>.edge>path:hover{stroke-width:8}</style>
<path fill="none" stroke="black" d="M174.43,-378.09C200.34,-410.01 255.15,-476.03 279.11,-493.61 295.68,-505.76 300.71,-512.92 321.25,-512.61"/>
</g>
<!-- core_transform&#45;&gt;gameplay_munition -->
<g id="edge21" class="edge">
<title>core_transform&#45;&gt;gameplay_munition</title><style>.edge>path:hover{stroke-width:8}</style>
<path fill="none" stroke="black" d="M546.8,-914.61C568.04,-896.2 566.53,-885.53 582.8,-862.61 593.23,-847.91 604.98,-831.7 614.83,-818.21"/>
<polygon fill="#d02424" stroke="black" points="617.65,-820.29 620.73,-810.15 612,-816.16 617.65,-820.29"/>
<path fill="none" stroke="black" d="M172.9,-378.27C183.31,-393.74 197.71,-417.2 206.11,-439.61 265.7,-598.6 175.15,-680.36 279.11,-814.61 317.86,-864.65 497.97,-956.06 545.8,-914.61"/>
</g>
<!-- core_transform&#45;&gt;physics_collision -->
<g id="edge22" class="edge">
<title>core_transform&#45;&gt;physics_collision</title><style>.edge>path:hover{stroke-width:8}</style>
<path fill="none" stroke="black" d="M243.11,-182.61C251.57,-172.86 264.53,-170.36 277.48,-171.06"/>
<polygon fill="#d02424" stroke="black" points="276.9,-174.52 287.25,-172.23 277.73,-167.57 276.9,-174.52"/>
</g>
<!-- core_transform&#45;&gt;systems_armory -->
<g id="edge23" class="edge">
<title>core_transform&#45;&gt;systems_armory</title><style>.edge>path:hover{stroke-width:8}</style>
<path fill="none" stroke="black" d="M849.54,-341.61C892.19,-393.31 917.3,-469.36 928.57,-510.54"/>
<polygon fill="#d02424" stroke="black" points="925.12,-511.18 931.06,-519.95 931.89,-509.39 925.12,-511.18"/>
<path fill="none" stroke="black" d="M169.18,-342.85C178.55,-323.84 193.7,-292.74 206.11,-265.61 222.84,-229.04 215.75,-212.97 242.11,-182.61"/>
<path fill="none" stroke="black" d="M243.11,-182.61C270.01,-151.62 244.91,-120.26 279.11,-97.61 311.08,-76.43 327.44,-92.08 365.38,-97.61 557.85,-125.65 604.84,-162.03 769.47,-265.61"/>
<path fill="none" stroke="black" d="M771.47,-265.61C790.47,-276.88 796.57,-278.34 812.54,-293.61 831.82,-312.03 831.58,-321.04 848.54,-341.61"/>
</g>
<!-- core_vector -->
<g id="node5" class="node">
<title>core_vector</title><style>.edge>path:hover{stroke-width:8}</style>
<ellipse fill="#f91010" stroke="black" cx="38.31" cy="-360.61" rx="38.31" ry="18"/>
<text xml:space="preserve" text-anchor="middle" x="38.31" y="-356.73" font-family="Helvetica,sans-Serif" font-size="10.00" fill="#ffffff">core.vector</text>
</g>
<!-- core_vector&#45;&gt;core_transform -->
<g id="edge24" class="edge">
<title>core_vector&#45;&gt;core_transform</title><style>.edge>path:hover{stroke-width:8}</style>
<path fill="none" stroke="black" d="M76.98,-360.61C84.58,-360.61 92.72,-360.61 100.82,-360.61"/>
<polygon fill="#f91010" stroke="black" points="100.65,-364.11 110.65,-360.61 100.65,-357.11 100.65,-364.11"/>
</g>
<!-- core_vector&#45;&gt;entities_enemy -->
<g id="edge25" class="edge">
<title>core_vector&#45;&gt;entities_enemy</title><style>.edge>path:hover{stroke-width:8}</style>
<path fill="none" stroke="black" d="M475.09,-1218.61C522.45,-1215.06 589.91,-1087.35 636.6,-1078.61"/>
<path fill="none" stroke="black" d="M243.11,-1066.61C358.28,-1108.42 350.61,-1215.38 473.09,-1218.61"/>
</g>
<!-- core_vector&#45;&gt;entities_entity -->
<g id="edge26" class="edge">
<title>core_vector&#45;&gt;entities_entity</title><style>.edge>path:hover{stroke-width:8}</style>
<path fill="none" stroke="black" d="M160.37,-453.61C228.91,-486.81 247.63,-532.1 321.25,-512.61"/>
</g>
<!-- core_vector&#45;&gt;entities_player -->
<g id="edge27" class="edge">
<title>core_vector&#45;&gt;entities_player</title><style>.edge>path:hover{stroke-width:8}</style>
<path fill="none" stroke="black" d="M1024.91,-570.61C1035.36,-577.39 1047.14,-584.07 1058.04,-589.89"/>
<polygon fill="#f91010" stroke="black" points="1056.33,-592.95 1066.81,-594.49 1059.58,-586.75 1056.33,-592.95"/>
<path fill="none" stroke="black" d="M638.6,-40.61C741.68,-83.28 747.3,-131.1 812.54,-221.61 817.65,-228.68 879.01,-354.83 885.54,-360.61 903.4,-376.41 922.53,-359.74 935.73,-379.61"/>
<path fill="none" stroke="black" d="M937.73,-379.61C968.42,-414.62 984.85,-545.26 1023.91,-570.61"/>
<path fill="none" stroke="black" d="M243.11,-106.61C281.95,-103.22 248.57,-50.85 279.11,-26.61 322.49,7.82 346,-2.61 401.38,-2.61 401.38,-2.61 401.38,-2.61 475.09,-2.61 548.83,-2.61 568.97,-11.2 636.6,-40.61"/>
<path fill="none" stroke="black" d="M44.28,-342.45C61.11,-285.37 121.8,-112.91 242.11,-106.61"/>
</g>
<!-- core_vector&#45;&gt;gameplay_munition -->
<g id="edge28" class="edge">
<title>core_vector&#45;&gt;gameplay_munition</title><style>.edge>path:hover{stroke-width:8}</style>
<path fill="none" stroke="black" d="M243.11,-1066.61C259.86,-1062.82 263.07,-1058.72 279.11,-1052.61 381.37,-1013.67 423.43,-1033.78 509.8,-966.61 531.99,-949.35 524.66,-933.14 545.8,-914.61"/>
<path fill="none" stroke="black" d="M40.46,-378.74C48.01,-490.32 94.84,-1078.7 242.11,-1066.61"/>
</g>
<!-- core_vector&#45;&gt;main_py -->
<g id="edge29" class="edge">
<title>core_vector&#45;&gt;main_py</title><style>.edge>path:hover{stroke-width:8}</style>
<path fill="none" stroke="black" d="M475.09,-1218.61C506.5,-1217.78 514.69,-1214.16 545.8,-1218.61"/>
</g>
<!-- core_vector&#45;&gt;physics_collision -->
<g id="edge30" class="edge">
<title>core_vector&#45;&gt;physics_collision</title><style>.edge>path:hover{stroke-width:8}</style>
<path fill="none" stroke="black" d="M243.11,-106.61C268.63,-104.38 260.64,-133.87 279.11,-151.61 281.95,-154.33 285.03,-157.02 288.2,-159.61"/>
<polygon fill="#f91010" stroke="black" points="285.95,-162.3 296,-165.66 290.24,-156.77 285.95,-162.3"/>
</g>
<!-- core_vector&#45;&gt;render_renderable -->
<g id="edge31" class="edge">
<title>core_vector&#45;&gt;render_renderable</title><style>.edge>path:hover{stroke-width:8}</style>
<path fill="none" stroke="black" d="M68.24,-348.85C81.6,-343.71 97.77,-337.89 112.62,-333.61 165.41,-318.41 227.1,-306.04 269.63,-298.34"/>
<polygon fill="#f91010" stroke="black" points="270.11,-301.81 279.34,-296.6 268.88,-294.92 270.11,-301.81"/>
</g>
<!-- core_vector&#45;&gt;systems_armory -->
<g id="edge32" class="edge">
<title>core_vector&#45;&gt;systems_armory</title><style>.edge>path:hover{stroke-width:8}</style>
<path fill="none" stroke="black" d="M160.37,-453.61C215.06,-478.68 224.25,-413.31 279.11,-388.61 331.77,-364.89 343.63,-344.61 401.38,-344.61 401.38,-344.61 401.38,-344.61 475.09,-344.61 575.05,-344.61 601.6,-360.79 692.4,-402.61 730.16,-420 728.95,-446.33 769.47,-455.61"/>
<path fill="none" stroke="black" d="M771.47,-455.61C805.9,-461.84 815.12,-461.28 848.54,-471.61"/>
<path fill="none" stroke="black" d="M849.54,-471.61C874.51,-479.32 897.45,-498.27 913.38,-514.22"/>
<polygon fill="#f91010" stroke="black" points="910.55,-516.32 920,-521.11 915.6,-511.47 910.55,-516.32"/>
<path fill="none" stroke="black" d="M54.3,-377.33C75.16,-399.31 115.27,-437.06 158.37,-453.61"/>
</g>
<!-- core_vector&#45;&gt;systems_enemy_spawner -->
<g id="edge33" class="edge">
<title>core_vector&#45;&gt;systems_enemy_spawner</title><style>.edge>path:hover{stroke-width:8}</style>
<path fill="none" stroke="black" d="M475.09,-1218.61C507.04,-1216.22 514.33,-1210.64 545.8,-1204.61 742.07,-1166.98 794.81,-1174.11 987.91,-1122.61 1031.96,-1110.86 1130.91,-1065.41 1132.33,-1064.61 1169.16,-1043.66 1207.68,-1014.21 1233.86,-992.88"/>
<polygon fill="#f91010" stroke="black" points="1235.92,-995.72 1241.42,-986.66 1231.47,-990.32 1235.92,-995.72"/>
</g>
<!-- core_window -->
<g id="node6" class="node">
<title>core_window</title><style>.edge>path:hover{stroke-width:8}</style>
<ellipse fill="#e72222" stroke="black" cx="159.37" cy="-238.61" rx="41.86" ry="18"/>
<text xml:space="preserve" text-anchor="middle" x="159.37" y="-234.73" font-family="Helvetica,sans-Serif" font-size="10.00" fill="#ffffff">core.window</text>
</g>
<!-- core_window&#45;&gt;entities_entity -->
<g id="edge34" class="edge">
<title>core_window&#45;&gt;entities_entity</title><style>.edge>path:hover{stroke-width:8}</style>
<path fill="none" stroke="black" d="M323.25,-512.61C340.72,-509.66 392.72,-481.14 401.38,-496.61"/>
<path fill="none" stroke="black" d="M185.37,-253.15C204.26,-265.47 229.21,-284.91 243.11,-308.61 292.23,-392.36 225.5,-528.72 321.25,-512.61"/>
</g>
<!-- core_window&#45;&gt;entities_player -->
<g id="edge35" class="edge">
<title>core_window&#45;&gt;entities_player</title><style>.edge>path:hover{stroke-width:8}</style>
<path fill="none" stroke="black" d="M546.8,-40.61C586.5,-36.52 599.72,-25.34 636.6,-40.61"/>
</g>
<!-- core_window&#45;&gt;gameplay_munition -->
<g id="edge36" class="edge">
<title>core_window&#45;&gt;gameplay_munition</title><style>.edge>path:hover{stroke-width:8}</style>
<path fill="none" stroke="black" d="M170.05,-256.43C180,-275.23 195.5,-305.92 206.11,-333.61 227.16,-388.5 231.57,-402.96 243.11,-460.61 257.2,-530.99 229.45,-729.78 279.11,-781.61 317.16,-821.31 346.39,-800.61 401.38,-800.61 401.38,-800.61 401.38,-800.61 475.09,-800.61 511.9,-800.61 553.3,-797.47 584.97,-794.4"/>
<polygon fill="#e72222" stroke="black" points="585.06,-797.91 594.67,-793.43 584.37,-790.94 585.06,-797.91"/>
</g>
<!-- core_window&#45;&gt;main_py -->
<g id="edge37" class="edge">
<title>core_window&#45;&gt;main_py</title><style>.edge>path:hover{stroke-width:8}</style>
<path fill="none" stroke="black" d="M1365.72,-965.61C1373.58,-965.41 1381.99,-965.32 1390.06,-965.29"/>
<polygon fill="#e72222" stroke="black" points="1390.01,-968.79 1400.01,-965.29 1390.01,-961.79 1390.01,-968.79"/>
<path fill="none" stroke="black" d="M1268.02,-898.61C1293.47,-916.94 1303.25,-916.3 1328.72,-934.61 1345.86,-946.93 1343.61,-966.14 1364.72,-965.61"/>
<path fill="none" stroke="black" d="M1097.62,-532.61C1111.85,-553.48 1119.65,-555.76 1132.33,-577.61 1209.9,-711.28 1140.64,-808.25 1266.02,-898.61"/>
<path fill="none" stroke="black" d="M243.11,-144.61C273.58,-135.28 252.82,-100.61 279.11,-82.61 378.11,-14.81 426.44,-52.89 545.8,-40.61"/>
<path fill="none" stroke="black" d="M546.8,-40.61C563.85,-38.63 565.92,-29.77 582.8,-26.61 630.67,-17.63 645.37,-13.91 692.4,-26.61 752.06,-42.72 766.67,-55.2 812.54,-96.61 881.54,-158.88 865.25,-205 935.73,-265.61"/>
<path fill="none" stroke="black" d="M937.73,-265.61C960.92,-282.68 970.13,-283.95 987.91,-306.61 1056.59,-394.15 1031.75,-441.49 1095.62,-532.61"/>
<path fill="none" stroke="black" d="M171.82,-221.14C189.36,-195.23 222.85,-149.15 242.11,-144.61"/>
</g>
<!-- core_window&#45;&gt;render_renderable -->
<g id="edge38" class="edge">
<title>core_window&#45;&gt;render_renderable</title><style>.edge>path:hover{stroke-width:8}</style>
<path fill="none" stroke="black" d="M243.11,-144.61C276.19,-134.48 262.73,-183.15 279.11,-213.61 287.14,-228.53 296.24,-245 303.92,-258.78"/>
<polygon fill="#e72222" stroke="black" points="300.81,-260.37 308.74,-267.4 306.92,-256.96 300.81,-260.37"/>
</g>
<!-- entities -->
<g id="node7" class="node">
<title>entities</title><style>.edge>path:hover{stroke-width:8}</style>
<ellipse fill="#f9d810" stroke="black" cx="474.09" cy="-658.61" rx="28.11" ry="18"/>
<text xml:space="preserve" text-anchor="middle" x="474.09" y="-654.73" font-family="Helvetica,sans-Serif" font-size="10.00" fill="#000000">entities</text>
</g>
<!-- entities&#45;&gt;gameplay_munition -->
<g id="edge39" class="edge">
<title>entities&#45;&gt;gameplay_munition</title><style>.edge>path:hover{stroke-width:8}</style>
<path fill="none" stroke="black" d="M546.8,-724.61C566.42,-736.79 587.5,-751.71 604.29,-764.07"/>
<polygon fill="#f9d810" stroke="black" points="601.82,-766.6 611.93,-769.75 605.99,-760.97 601.82,-766.6"/>
</g>
<!-- entities&#45;&gt;main_py -->
<g id="edge40" class="edge">
<title>entities&#45;&gt;main_py</title><style>.edge>path:hover{stroke-width:8}</style>
<path fill="none" stroke="black" d="M493.74,-645.32C499.13,-641.16 504.88,-636.4 509.8,-631.61 546.44,-595.9 546.5,-578.66 582.8,-542.61 690.58,-435.54 727.53,-419.45 848.54,-327.61 886.42,-298.86 903.47,-230.67 935.73,-265.61"/>
</g>
<!-- entities&#45;&gt;systems_armory -->
<g id="edge41" class="edge">
<title>entities&#45;&gt;systems_armory</title><style>.edge>path:hover{stroke-width:8}</style>
<path fill="none" stroke="black" d="M546.8,-648.61C565.32,-645.7 566.7,-636.22 582.8,-626.61 641.5,-591.56 781.45,-458.47 848.54,-471.61"/>
<path fill="none" stroke="black" d="M502.1,-655.68C515.35,-654.02 531.49,-651.65 545.8,-648.61"/>
</g>
<!-- entities&#45;&gt;systems_enemy_spawner -->
<g id="edge42" class="edge">
<title>entities&#45;&gt;systems_enemy_spawner</title><style>.edge>path:hover{stroke-width:8}</style>
<path fill="none" stroke="black" d="M488.58,-674.34C501.88,-689.03 523.4,-710.7 545.8,-724.61"/>
<path fill="none" stroke="black" d="M937.73,-965.61C1006.44,-979.86 1026.21,-955.27 1095.62,-965.61"/>
<path fill="none" stroke="black" d="M849.54,-889.61C890.84,-919.65 885.74,-955.14 935.73,-965.61"/>
<path fill="none" stroke="black" d="M546.8,-724.61C603.17,-759.61 633.01,-728.01 692.4,-757.61 773.73,-798.14 775.06,-836.15 848.54,-889.61"/>
</g>
<!-- entities&#45;&gt;systems_entity_registry -->
<g id="edge43" class="edge">
<title>entities&#45;&gt;systems_entity_registry</title><style>.edge>path:hover{stroke-width:8}</style>
<path fill="none" stroke="black" d="M546.8,-648.61C556.47,-647.09 566.77,-646.85 576.82,-647.35"/>
<polygon fill="#f9d810" stroke="black" points="576.26,-650.82 586.49,-648.09 576.79,-643.84 576.26,-650.82"/>
</g>
<!-- entities_enemy&#45;&gt;systems_enemy_spawner -->
<g id="edge44" class="edge">
<title>entities_enemy&#45;&gt;systems_enemy_spawner</title><style>.edge>path:hover{stroke-width:8}</style>
<path fill="none" stroke="black" d="M1024.91,-1095.61C1082.82,-1084.3 1091.08,-1059.79 1132.33,-1017.61 1151.98,-997.51 1140.24,-966.72 1168.33,-965.61"/>
<path fill="none" stroke="black" d="M962.6,-1064.85C985.61,-1078.62 1017.24,-1096.61 1023.91,-1095.61"/>
</g>
<!-- entities_entity&#45;&gt;entities_enemy -->
<g id="edge45" class="edge">
<title>entities_entity&#45;&gt;entities_enemy</title><style>.edge>path:hover{stroke-width:8}</style>
<path fill="none" stroke="black" d="M497.25,-617.55C501.82,-621.78 506.3,-626.56 509.8,-631.61 560.86,-705.28 541.1,-740.26 582.8,-819.61 644.53,-937.06 640.35,-1022.03 769.47,-1052.61"/>
<path fill="none" stroke="black" d="M771.47,-1052.61C807.15,-1057.89 847.67,-1057.22 879.53,-1055.19"/>
<polygon fill="#9c8811" stroke="black" points="879.62,-1058.7 889.34,-1054.5 879.12,-1051.71 879.62,-1058.7"/>
</g>
<!-- entities_entity&#45;&gt;entities_player -->
<g id="edge46" class="edge">
<title>entities_entity&#45;&gt;entities_player</title><style>.edge>path:hover{stroke-width:8}</style>
<path fill="none" stroke="black" d="M486.44,-580.03C503.49,-551.08 538.5,-498.72 582.8,-470.61 616.99,-448.9 913.24,-345.93 935.73,-379.61"/>
</g>
<!-- entities_entity&#45;&gt;gameplay_munition -->
<g id="edge47" class="edge">
<title>entities_entity&#45;&gt;gameplay_munition</title><style>.edge>path:hover{stroke-width:8}</style>
<path fill="none" stroke="black" d="M495.79,-618.11C500.53,-622.38 505.45,-627.04 509.8,-631.61 549.7,-673.54 590.9,-726.73 615.11,-759.19"/>
<polygon fill="#9c8811" stroke="black" points="612.1,-761 620.87,-766.95 617.72,-756.83 612.1,-761"/>
</g>
<!-- entities_entity&#45;&gt;systems_armory -->
<g id="edge48" class="edge">
<title>entities_entity&#45;&gt;systems_armory</title><style>.edge>path:hover{stroke-width:8}</style>
<path fill="none" stroke="black" d="M498.61,-584.61C557.69,-545.16 711.71,-447 769.47,-455.61"/>
</g>
<!-- entities_entity&#45;&gt;systems_entity_registry -->
<g id="edge49" class="edge">
<title>entities_entity&#45;&gt;systems_entity_registry</title><style>.edge>path:hover{stroke-width:8}</style>
<path fill="none" stroke="black" d="M505.47,-611.33C527.95,-619.26 559.12,-630.26 585.43,-639.55"/>
<polygon fill="#9c8811" stroke="black" points="583.96,-642.74 594.56,-642.77 586.29,-636.14 583.96,-642.74"/>
</g>
<!-- entities_player&#45;&gt;main_py -->
<g id="edge50" class="edge">
<title>entities_player&#45;&gt;main_py</title><style>.edge>path:hover{stroke-width:8}</style>
<path fill="none" stroke="black" d="M1097.95,-630.33C1099.76,-679.05 1110.26,-798.7 1168.33,-874.61"/>
<path fill="none" stroke="black" d="M1169.33,-874.61C1196.23,-909.77 1230.1,-872.72 1266.02,-898.61"/>
</g>
<!-- entities_player&#45;&gt;systems_enemy_spawner -->
<g id="edge51" class="edge">
<title>entities_player&#45;&gt;systems_enemy_spawner</title><style>.edge>path:hover{stroke-width:8}</style>
<path fill="none" stroke="black" d="M1169.33,-874.61C1187.55,-898.42 1212.22,-921.53 1232.08,-938.5"/>
<polygon fill="#736826" stroke="black" points="1229.75,-941.12 1239.66,-944.87 1234.26,-935.76 1229.75,-941.12"/>
</g>
<!-- gameplay -->
<g id="node11" class="node">
<title>gameplay</title><style>.edge>path:hover{stroke-width:8}</style>
<ellipse fill="#55f316" stroke="black" cx="770.47" cy="-691.61" rx="34.32" ry="18"/>
<text xml:space="preserve" text-anchor="middle" x="770.47" y="-687.73" font-family="Helvetica,sans-Serif" font-size="10.00" fill="#000000">gameplay</text>
</g>
<!-- gameplay&#45;&gt;entities_enemy -->
<g id="edge52" class="edge">
<title>gameplay&#45;&gt;entities_enemy</title><style>.edge>path:hover{stroke-width:8}</style>
<path fill="none" stroke="black" d="M793.86,-705.05C800.7,-710.11 807.69,-716.41 812.54,-723.61 878.7,-821.7 834.1,-873.07 885.54,-979.61 893.01,-995.06 903.86,-1010.72 913.57,-1023.3"/>
<polygon fill="#55f316" stroke="black" points="910.79,-1025.43 919.75,-1031.08 916.27,-1021.08 910.79,-1025.43"/>
</g>
<!-- gameplay&#45;&gt;entities_player -->
<g id="edge53" class="edge">
<title>gameplay&#45;&gt;entities_player</title><style>.edge>path:hover{stroke-width:8}</style>
<path fill="none" stroke="black" d="M790.82,-676.76C805.7,-666.32 827.25,-653.26 848.54,-647.61 889.23,-636.81 893.84,-680.43 935.73,-684.61"/>
<path fill="none" stroke="black" d="M1024.91,-608.61C1032.75,-609.76 1041.14,-610.33 1049.29,-610.54"/>
<polygon fill="#55f316" stroke="black" points="1049.05,-614.04 1059.07,-610.61 1049.1,-607.04 1049.05,-614.04"/>
<path fill="none" stroke="black" d="M937.73,-684.61C988.8,-684.36 973.38,-601.18 1023.91,-608.61"/>
</g>
<!-- gameplay&#45;&gt;main_py -->
<g id="edge54" class="edge">
<title>gameplay&#45;&gt;main_py</title><style>.edge>path:hover{stroke-width:8}</style>
<path fill="none" stroke="black" d="M1024.91,-608.61C1077.39,-616.32 1063,-794.77 1095.62,-836.61"/>
<path fill="none" stroke="black" d="M1169.33,-912.61C1212.11,-920.01 1230.79,-873.22 1266.02,-898.61"/>
<path fill="none" stroke="black" d="M1097.62,-836.61C1107.84,-849.72 1119.76,-839.71 1132.33,-850.61 1156.41,-871.47 1136.93,-907.17 1168.33,-912.61"/>
</g>
<!-- gameplay&#45;&gt;systems_armory -->
<g id="edge55" class="edge">
<title>gameplay&#45;&gt;systems_armory</title><style>.edge>path:hover{stroke-width:8}</style>
<path fill="none" stroke="black" d="M793.72,-678.07C800.56,-673 807.57,-666.72 812.54,-659.61 842.5,-616.75 801.84,-571.12 848.54,-547.61"/>
</g>
<!-- gameplay&#45;&gt;systems_enemy_spawner -->
<g id="edge56" class="edge">
<title>gameplay&#45;&gt;systems_enemy_spawner</title><style>.edge>path:hover{stroke-width:8}</style>
<path fill="none" stroke="black" d="M1169.33,-965.61C1177.28,-965.16 1185.6,-964.89 1193.89,-964.73"/>
<polygon fill="#55f316" stroke="black" points="1193.66,-968.23 1203.61,-964.6 1193.57,-961.23 1193.66,-968.23"/>
<path fill="none" stroke="black" d="M937.73,-684.61C996.69,-684.32 991.22,-736.22 1024.91,-784.61 1044,-812.03 1041.35,-823.52 1060.91,-850.61 1081.38,-878.96 1133.41,-967.55 1168.33,-965.61"/>
</g>
<!-- gameplay_munition&#45;&gt;gameplay_weapon -->
<g id="edge57" class="edge">
<title>gameplay_munition&#45;&gt;gameplay_weapon</title><style>.edge>path:hover{stroke-width:8}</style>
<path fill="none" stroke="black" d="M667.84,-803.86C676.58,-809.48 685.64,-816.49 692.4,-824.61 711.73,-847.8 741.79,-925.82 758.07,-970.49"/>
<polygon fill="#44a51d" stroke="black" points="754.69,-971.44 761.38,-979.66 761.27,-969.06 754.69,-971.44"/>
</g>
<!-- gameplay_munition&#45;&gt;main_py -->
<g id="edge58" class="edge">
<title>gameplay_munition&#45;&gt;main_py</title><style>.edge>path:hover{stroke-width:8}</style>
<path fill="none" stroke="black" d="M669.64,-802.83C677.25,-806.68 685.26,-811.06 692.4,-815.61 729.24,-839.08 725.82,-874.98 769.47,-876.61"/>
<path fill="none" stroke="black" d="M771.47,-876.61C916.53,-882.01 1006.36,-722.13 1095.62,-836.61"/>
</g>
<!-- gameplay_munition&#45;&gt;systems_armory -->
<g id="edge59" class="edge">
<title>gameplay_munition&#45;&gt;systems_armory</title><style>.edge>path:hover{stroke-width:8}</style>
<path fill="none" stroke="black" d="M650.86,-767.8C666.73,-741.88 696.2,-697.07 728.4,-664.61 761.11,-631.62 780.62,-636.35 812.54,-602.61 832.62,-581.38 822.68,-561.2 848.54,-547.61"/>
</g>
<!-- gameplay_munition&#45;&gt;systems_enemy_spawner -->
<g id="edge60" class="edge">
<title>gameplay_munition&#45;&gt;systems_enemy_spawner</title><style>.edge>path:hover{stroke-width:8}</style>
<path fill="none" stroke="black" d="M771.47,-876.61C806.19,-877.9 820.45,-869.17 848.54,-889.61"/>
</g>
<!-- gameplay_weapon&#45;&gt;entities_enemy -->
<g id="edge61" class="edge">
<title>gameplay_weapon&#45;&gt;entities_enemy</title><style>.edge>path:hover{stroke-width:8}</style>
<path fill="none" stroke="black" d="M849.54,-1003.61C860.49,-1005.09 882.62,-1016.98 901.71,-1028.3"/>
<polygon fill="#4aca16" stroke="black" points="899.68,-1031.16 910.05,-1033.32 903.29,-1025.16 899.68,-1031.16"/>
</g>
<!-- gameplay_weapon&#45;&gt;entities_player -->
<g id="edge62" class="edge">
<title>gameplay_weapon&#45;&gt;entities_player</title><style>.edge>path:hover{stroke-width:8}</style>
<path fill="none" stroke="black" d="M787.99,-982.53C841.67,-917.28 1011.27,-711.13 1072.93,-636.19"/>
<polygon fill="#4aca16" stroke="black" points="1075.28,-638.83 1078.93,-628.89 1069.88,-634.38 1075.28,-638.83"/>
</g>
<!-- gameplay_weapon&#45;&gt;main_py -->
<g id="edge63" class="edge">
<title>gameplay_weapon&#45;&gt;main_py</title><style>.edge>path:hover{stroke-width:8}</style>
<path fill="none" stroke="black" d="M1268.02,-1047.61C1301.5,-1036.61 1301.88,-1019.44 1328.72,-996.61 1344.8,-982.93 1343.61,-966.14 1364.72,-965.61"/>
<path fill="none" stroke="black" d="M1097.62,-1003.61C1173.65,-989.36 1192.53,-1071.75 1266.02,-1047.61"/>
</g>
<!-- gameplay_weapon&#45;&gt;systems_armory -->
<g id="edge64" class="edge">
<title>gameplay_weapon&#45;&gt;systems_armory</title><style>.edge>path:hover{stroke-width:8}</style>
<path fill="none" stroke="black" d="M780.16,-981.41C789.09,-959.08 803.01,-922.77 812.54,-890.61 853.89,-751.16 801.74,-690.48 885.54,-571.61 888.32,-567.66 891.76,-564.09 895.52,-560.89"/>
<polygon fill="#4aca16" stroke="black" points="897.54,-563.75 903.5,-554.99 893.38,-558.12 897.54,-563.75"/>
</g>
<!-- gameplay_weapon&#45;&gt;systems_enemy_spawner -->
<g id="edge65" class="edge">
<title>gameplay_weapon&#45;&gt;systems_enemy_spawner</title><style>.edge>path:hover{stroke-width:8}</style>
<path fill="none" stroke="black" d="M812.81,-1001.3C824.41,-1001.43 837.01,-1002.04 848.54,-1003.61"/>
<path fill="none" stroke="black" d="M849.54,-1003.61C957.92,-1018.29 987.16,-1017.64 1095.62,-1003.61"/>
<path fill="none" stroke="black" d="M1097.62,-1003.61C1132.68,-997.04 1132.7,-967.59 1168.33,-965.61"/>
</g>
<!-- physics -->
<g id="node15" class="node">
<title>physics</title><style>.edge>path:hover{stroke-width:8}</style>
<ellipse fill="#3b8fce" stroke="black" cx="322.25" cy="-124.61" rx="29.44" ry="18"/>
<text xml:space="preserve" text-anchor="middle" x="322.25" y="-120.73" font-family="Helvetica,sans-Serif" font-size="10.00" fill="#ffffff">physics</text>
</g>
<!-- physics&#45;&gt;entities_entity -->
<g id="edge66" class="edge">
<title>physics&#45;&gt;entities_entity</title><style>.edge>path:hover{stroke-width:8}</style>
<path fill="none" stroke="black" d="M346.92,-134.74C353.98,-138.94 361,-144.51 365.38,-151.61 446.28,-282.84 326.08,-362.08 401.38,-496.61"/>
<path fill="none" stroke="black" d="M402.38,-496.61C417.2,-523.09 436.77,-551.47 451.57,-571.88"/>
<polygon fill="#3b8fce" stroke="black" points="448.57,-573.72 457.3,-579.72 454.22,-569.58 448.57,-573.72"/>
</g>
<!-- physics&#45;&gt;entities_player -->
<g id="edge67" class="edge">
<title>physics&#45;&gt;entities_player</title><style>.edge>path:hover{stroke-width:8}</style>
<path fill="none" stroke="black" d="M348.26,-116.13C417.59,-92.89 608.96,-30.51 636.6,-40.61"/>
</g>
<!-- physics&#45;&gt;systems_armory -->
<g id="edge68" class="edge">
<title>physics&#45;&gt;systems_armory</title><style>.edge>path:hover{stroke-width:8}</style>
<path fill="none" stroke="black" d="M546.8,-268.61C641.88,-296.09 685.41,-213.36 769.47,-265.61"/>
<path fill="none" stroke="black" d="M346.71,-135.15C383.47,-152.27 455.99,-188.45 509.8,-230.61 528.11,-244.95 523.33,-262.55 545.8,-268.61"/>
</g>
<!-- physics_collision&#45;&gt;entities_entity -->
<g id="edge69" class="edge">
<title>physics_collision&#45;&gt;entities_entity</title><style>.edge>path:hover{stroke-width:8}</style>
<path fill="none" stroke="black" d="M336.96,-202.65C346.44,-217.46 358.52,-238.47 365.38,-258.61 399.86,-359.88 349.13,-403.25 401.38,-496.61"/>
</g>
<!-- physics_collision&#45;&gt;entities_player -->
<g id="edge70" class="edge">
<title>physics_collision&#45;&gt;entities_player</title><style>.edge>path:hover{stroke-width:8}</style>
<path fill="none" stroke="black" d="M546.8,-230.61C662.35,-256.75 710.31,-191.74 812.54,-251.61 862.86,-281.07 839.89,-324.34 885.54,-360.61 904.22,-375.44 922.45,-359.8 935.73,-379.61"/>
<path fill="none" stroke="black" d="M358.12,-189.31C402.09,-197.95 479.91,-213.86 545.8,-230.61"/>
</g>
<!-- physics_collision&#45;&gt;systems_armory -->
<g id="edge71" class="edge">
<title>physics_collision&#45;&gt;systems_armory</title><style>.edge>path:hover{stroke-width:8}</style>
<path fill="none" stroke="black" d="M351.23,-196.43C392.63,-216.18 473.13,-251.91 545.8,-268.61"/>
</g>
<!-- render -->
<g id="node17" class="node">
<title>render</title><style>.edge>path:hover{stroke-width:8}</style>
<ellipse fill="#653bce" stroke="black" cx="322.25" cy="-466.61" rx="27" ry="18"/>
<text xml:space="preserve" text-anchor="middle" x="322.25" y="-462.73" font-family="Helvetica,sans-Serif" font-size="10.00" fill="#ffffff">render</text>
</g>
<!-- render&#45;&gt;entities_entity -->
<g id="edge72" class="edge">
<title>render&#45;&gt;entities_entity</title><style>.edge>path:hover{stroke-width:8}</style>
<path fill="none" stroke="black" d="M349.55,-468.38C368.04,-471.24 391.23,-478.48 401.38,-496.61"/>
</g>
<!-- render&#45;&gt;entities_player -->
<g id="edge73" class="edge">
<title>render&#45;&gt;entities_player</title><style>.edge>path:hover{stroke-width:8}</style>
<path fill="none" stroke="black" d="M402.38,-458.61C419.53,-457.75 422,-467.46 438.38,-472.61 501.39,-492.4 518.46,-492.7 582.8,-507.61 739.3,-543.86 776.23,-566.41 935.73,-585.61"/>
</g>
<!-- render&#45;&gt;systems_armory -->
<g id="edge74" class="edge">
<title>render&#45;&gt;systems_armory</title><style>.edge>path:hover{stroke-width:8}</style>
<path fill="none" stroke="black" d="M349.24,-463.26C364.41,-461.48 383.95,-459.48 401.38,-458.61"/>
<path fill="none" stroke="black" d="M402.38,-458.61C438.01,-456.82 438.45,-429.16 473.09,-420.61"/>
</g>
<!-- render_renderable&#45;&gt;entities_entity -->
<g id="edge75" class="edge">
<title>render_renderable&#45;&gt;entities_entity</title><style>.edge>path:hover{stroke-width:8}</style>
<path fill="none" stroke="black" d="M329.13,-311.4C340.1,-350.18 365.83,-433.09 401.38,-496.61"/>
</g>
<!-- render_renderable&#45;&gt;entities_player -->
<g id="edge76" class="edge">
<title>render_renderable&#45;&gt;entities_player</title><style>.edge>path:hover{stroke-width:8}</style>
<path fill="none" stroke="black" d="M351.2,-273.21C393.23,-250.61 475.28,-214.41 545.8,-230.61"/>
</g>
<!-- render_renderable&#45;&gt;systems_armory -->
<g id="edge77" class="edge">
<title>render_renderable&#45;&gt;systems_armory</title><style>.edge>path:hover{stroke-width:8}</style>
<path fill="none" stroke="black" d="M365.55,-287.14C478.39,-281.54 782.45,-273.26 848.54,-341.61"/>
</g>
<!-- systems -->
<g id="node19" class="node">
<title>systems</title><style>.edge>path:hover{stroke-width:8}</style>
<ellipse fill="#db2fc2" stroke="black" cx="936.73" cy="-333.61" rx="31.66" ry="18"/>
<text xml:space="preserve" text-anchor="middle" x="936.73" y="-329.73" font-family="Helvetica,sans-Serif" font-size="10.00" fill="#ffffff">systems</text>
</g>
<!-- systems&#45;&gt;entities_player -->
<g id="edge78" class="edge">
<title>systems&#45;&gt;entities_player</title><style>.edge>path:hover{stroke-width:8}</style>
<path fill="none" stroke="black" d="M1024.91,-532.61C1040.12,-548.91 1057.14,-567.21 1070.67,-581.76"/>
<polygon fill="#db2fc2" stroke="black" points="1067.79,-583.8 1077.17,-588.75 1072.92,-579.04 1067.79,-583.8"/>
</g>
<!-- systems&#45;&gt;main_py -->
<g id="edge79" class="edge">
<title>systems&#45;&gt;main_py</title><style>.edge>path:hover{stroke-width:8}</style>
<path fill="none" stroke="black" d="M962.78,-344.43C971.98,-349.58 981.65,-356.62 987.91,-365.61 1031.26,-427.94 972.11,-477.09 1023.91,-532.61"/>
<path fill="none" stroke="black" d="M1024.91,-532.61C1046.35,-555.59 1077.91,-506.64 1095.62,-532.61"/>
</g>
<!-- systems_armory&#45;&gt;entities_player -->
<g id="edge80" class="edge">
<title>systems_armory&#45;&gt;entities_player</title><style>.edge>path:hover{stroke-width:8}</style>
<path fill="none" stroke="black" d="M979,-550.18C993.86,-555.06 1010.3,-561.78 1023.91,-570.61"/>
</g>
<!-- systems_enemy_spawner&#45;&gt;main_py -->
<g id="edge81" class="edge">
<title>systems_enemy_spawner&#45;&gt;main_py</title><style>.edge>path:hover{stroke-width:8}</style>
<path fill="none" stroke="black" d="M1329.15,-966.08C1340.95,-966.04 1353.22,-965.9 1364.72,-965.61"/>
</g>
<!-- systems_entity_registry&#45;&gt;main_py -->
<g id="edge82" class="edge">
<title>systems_entity_registry&#45;&gt;main_py</title><style>.edge>path:hover{stroke-width:8}</style>
<path fill="none" stroke="black" d="M658.6,-677.71C682.54,-699.74 725.01,-732.64 769.47,-737.61"/>
<path fill="none" stroke="black" d="M771.47,-737.61C868.94,-748.49 900.93,-735.29 987.91,-780.61 1027.77,-801.37 1024.96,-823.62 1060.91,-850.61 1104.99,-883.7 1114.01,-903.2 1168.33,-912.61"/>
</g>
<!-- systems_entity_registry&#45;&gt;systems_armory -->
<g id="edge83" class="edge">
<title>systems_entity_registry&#45;&gt;systems_armory</title><style>.edge>path:hover{stroke-width:8}</style>
<path fill="none" stroke="black" d="M849.54,-547.61C857.2,-543.75 865.72,-541.22 874.33,-539.61"/>
<polygon fill="#b42da0" stroke="black" points="874.76,-543.08 884.16,-538.2 873.77,-536.16 874.76,-543.08"/>
<path fill="none" stroke="black" d="M671.16,-640.13C712.29,-618.15 785.33,-579.44 848.54,-547.61"/>
</g>
<!-- systems_entity_registry&#45;&gt;systems_enemy_spawner -->
<g id="edge84" class="edge">
<title>systems_entity_registry&#45;&gt;systems_enemy_spawner</title><style>.edge>path:hover{stroke-width:8}</style>
<path fill="none" stroke="black" d="M1097.62,-965.61C1126.2,-978.68 1137.04,-968.59 1168.33,-965.61"/>
<path fill="none" stroke="black" d="M771.47,-737.61C807.74,-739.27 817.6,-744.36 849.54,-761.61 974.54,-829.12 966.42,-906.53 1095.62,-965.61"/>
</g>
</g>
</svg>
