<?xml version="1.0" encoding="UTF-8" standalone="no"?>
<!DOCTYPE svg PUBLIC "-//W3C//DTD SVG 1.1//EN"
 "http://www.w3.org/Graphics/SVG/1.1/DTD/svg11.dtd">
<!-- Generated by graphviz version 14.1.3 (20260303.0454)
 -->
<!-- Title: G Pages: 1 -->
<svg width="906pt" height="791pt"
 viewBox="0.00 0.00 906.00 791.00" xmlns="http://www.w3.org/2000/svg" xmlns:xlink="http://www.w3.org/1999/xlink">
<g id="graph0" class="graph" transform="scale(1 1) rotate(0) translate(4 786.66)">
<title>G</title><style>.edge>path:hover{stroke-width:8}</style>
<polygon fill="white" stroke="none" points="-4,4 -4,-786.66 901.54,-786.66 901.54,4 -4,4"/>
<g id="clust1" class="cluster">
<title>cluster_core</title><style>.edge>path:hover{stroke-width:8}</style>
<polygon fill="none" stroke="black" points="8,-305.66 8,-598.66 238.1,-598.66 238.1,-305.66 8,-305.66"/>
<text xml:space="preserve" text-anchor="middle" x="123.05" y="-581.36" font-family="Times,serif" font-size="14.00">core</text>
</g>
<g id="clust2" class="cluster">
<title>cluster_entities</title><style>.edge>path:hover{stroke-width:8}</style>
<polygon fill="none" stroke="black" points="417.37,-575.66 417.37,-774.66 642.77,-774.66 642.77,-575.66 417.37,-575.66"/>
<text xml:space="preserve" text-anchor="middle" x="530.07" y="-757.36" font-family="Times,serif" font-size="14.00">entities</text>
</g>
<g id="clust3" class="cluster">
<title>cluster_gameplay</title><style>.edge>path:hover{stroke-width:8}</style>
<polygon fill="none" stroke="black" points="537.51,-361.66 537.51,-499.66 637.66,-499.66 637.66,-361.66 537.51,-361.66"/>
<text xml:space="preserve" text-anchor="middle" x="587.59" y="-482.36" font-family="Times,serif" font-size="14.00">gameplay</text>
</g>
<g id="clust4" class="cluster">
<title>cluster_physics</title><style>.edge>path:hover{stroke-width:8}</style>
<polygon fill="none" stroke="black" points="263.93,-407.66 263.93,-545.66 354.53,-545.66 354.53,-407.66 263.93,-407.66"/>
<text xml:space="preserve" text-anchor="middle" x="309.23" y="-528.36" font-family="Times,serif" font-size="14.00">physics</text>
</g>
<g id="clust5" class="cluster">
<title>cluster_render</title><style>.edge>path:hover{stroke-width:8}</style>
<polygon fill="none" stroke="black" points="258.1,-553.66 258.1,-691.66 360.37,-691.66 360.37,-553.66 258.1,-553.66"/>
<text xml:space="preserve" text-anchor="middle" x="309.23" y="-674.36" font-family="Times,serif" font-size="14.00">render</text>
</g>
<g id="clust6" class="cluster">
<title>cluster_systems</title><style>.edge>path:hover{stroke-width:8}</style>
<polygon fill="none" stroke="black" points="524.79,-169.66 524.79,-307.66 809.78,-307.66 809.78,-169.66 524.79,-169.66"/>
<text xml:space="preserve" text-anchor="middle" x="667.28" y="-290.36" font-family="Times,serif" font-size="14.00">systems</text>
</g>
<!-- core -->
<g id="node1" class="node">
<title>core</title><style>.edge>path:hover{stroke-width:8}</style>
<ellipse fill="#f91010" stroke="black" cx="58.31" cy="-493.66" rx="27" ry="18"/>
<text xml:space="preserve" text-anchor="middle" x="58.31" y="-489.78" font-family="Helvetica,sans-Serif" font-size="10.00" fill="#ffffff">core</text>
</g>
<!-- entities_bullet -->
<g id="node8" class="node">
<title>entities_bullet</title><style>.edge>path:hover{stroke-width:8}</style>
<ellipse fill="#a39228" stroke="black" cx="587.59" cy="-720.66" rx="35.71" ry="21.57"/>
<text xml:space="preserve" text-anchor="middle" x="587.59" y="-722.41" font-family="Helvetica,sans-Serif" font-size="10.00" fill="#000000">entities.</text>
<text xml:space="preserve" text-anchor="middle" x="587.59" y="-711.16" font-family="Helvetica,sans-Serif" font-size="10.00" fill="#000000">bullet</text>
</g>
<!-- core&#45;&gt;entities_bullet -->
<g id="edge1" class="edge">
<title>core&#45;&gt;entities_bullet</title><style>.edge>path:hover{stroke-width:8}</style>
<path fill="none" stroke="black" d="M238.1,-520.66C292.45,-577 201.71,-641.36 258.1,-695.66 297.05,-733.16 352.04,-746.38 405.9,-748.12"/>
<polygon fill="#000000" stroke="black" points="405.8,-751.62 415.86,-748.3 405.92,-744.62 405.8,-751.62"/>
</g>
<!-- gameplay_weapon -->
<g id="node13" class="node">
<title>gameplay_weapon</title><style>.edge>path:hover{stroke-width:8}</style>
<ellipse fill="#409c1b" stroke="black" cx="587.59" cy="-445.66" rx="42.07" ry="21.57"/>
<text xml:space="preserve" text-anchor="middle" x="587.59" y="-447.41" font-family="Helvetica,sans-Serif" font-size="10.00" fill="#ffffff">gameplay.</text>
<text xml:space="preserve" text-anchor="middle" x="587.59" y="-436.16" font-family="Helvetica,sans-Serif" font-size="10.00" fill="#ffffff">weapon</text>
</g>
<!-- core&#45;&gt;gameplay_weapon -->
<g id="edge2" class="edge">
<title>core&#45;&gt;gameplay_weapon</title><style>.edge>path:hover{stroke-width:8}</style>
<path fill="none" stroke="black" d="M238.1,-375.33C330.25,-379.98 454.02,-409.57 526.56,-428.86"/>
<polygon fill="#000000" stroke="black" points="525.49,-432.19 536.06,-431.4 527.3,-425.43 525.49,-432.19"/>
</g>
<!-- physics_collision -->
<g id="node15" class="node">
<title>physics_collision</title><style>.edge>path:hover{stroke-width:8}</style>
<ellipse fill="#467ca4" stroke="black" cx="309.23" cy="-491.66" rx="37.3" ry="21.57"/>
<text xml:space="preserve" text-anchor="middle" x="309.23" y="-493.41" font-family="Helvetica,sans-Serif" font-size="10.00" fill="#ffffff">physics.</text>
<text xml:space="preserve" text-anchor="middle" x="309.23" y="-482.16" font-family="Helvetica,sans-Serif" font-size="10.00" fill="#ffffff">collision</text>
</g>
<!-- core&#45;&gt;physics_collision -->
<g id="edge4" class="edge">
<title>core&#45;&gt;physics_collision</title><style>.edge>path:hover{stroke-width:8}</style>
<path fill="none" stroke="black" d="M238.1,-411.66C255.03,-423.03 246.21,-438.03 257.29,-457.44"/>
<polygon fill="#000000" stroke="black" points="254.37,-459.38 263.05,-465.45 260.05,-455.29 254.37,-459.38"/>
</g>
<!-- render_renderable -->
<g id="node17" class="node">
<title>render_renderable</title><style>.edge>path:hover{stroke-width:8}</style>
<ellipse fill="#6146a4" stroke="black" cx="309.23" cy="-637.66" rx="43.13" ry="21.57"/>
<text xml:space="preserve" text-anchor="middle" x="309.23" y="-639.41" font-family="Helvetica,sans-Serif" font-size="10.00" fill="#ffffff">render.</text>
<text xml:space="preserve" text-anchor="middle" x="309.23" y="-628.16" font-family="Helvetica,sans-Serif" font-size="10.00" fill="#ffffff">renderable</text>
</g>
<!-- core&#45;&gt;render_renderable -->
<g id="edge5" class="edge">
<title>core&#45;&gt;render_renderable</title><style>.edge>path:hover{stroke-width:8}</style>
<path fill="none" stroke="black" d="M238.1,-487.66C275.93,-519.66 235.4,-556.11 252.59,-596.57"/>
<polygon fill="#000000" stroke="black" points="249.51,-598.23 257.38,-605.33 255.66,-594.88 249.51,-598.23"/>
</g>
<!-- systems_enemy_spawner -->
<g id="node19" class="node">
<title>systems_enemy_spawner</title><style>.edge>path:hover{stroke-width:8}</style>
<ellipse fill="#6b2e62" stroke="black" cx="740.08" cy="-253.66" rx="61.7" ry="21.57"/>
<text xml:space="preserve" text-anchor="middle" x="740.08" y="-255.41" font-family="Helvetica,sans-Serif" font-size="10.00" fill="#ffffff">systems.</text>
<text xml:space="preserve" text-anchor="middle" x="740.08" y="-244.16" font-family="Helvetica,sans-Serif" font-size="10.00" fill="#ffffff">enemy_spawner</text>
</g>
<!-- core&#45;&gt;systems_enemy_spawner -->
<g id="edge6" class="edge">
<title>core&#45;&gt;systems_enemy_spawner</title><style>.edge>path:hover{stroke-width:8}</style>
<path fill="none" stroke="black" d="M238.1,-308.46C257.61,-304.7 279.96,-303.66 308.23,-303.66 308.23,-303.66 308.23,-303.66 462.08,-303.66 482.35,-303.66 498.85,-303.51 513.45,-303.03"/>
<polygon fill="#000000" stroke="black" points="513.43,-306.53 523.28,-302.63 513.14,-299.54 513.43,-306.53"/>
</g>
<!-- main_py -->
<g id="node21" class="node">
<title>main_py</title><style>.edge>path:hover{stroke-width:8}</style>
<ellipse fill="#356350" stroke="black" cx="867.66" cy="-320.66" rx="29.88" ry="18"/>
<text xml:space="preserve" text-anchor="middle" x="867.66" y="-316.78" font-family="Helvetica,sans-Serif" font-size="10.00" fill="#ffffff">main.py</text>
</g>
<!-- core&#45;&gt;main_py -->
<g id="edge3" class="edge">
<title>core&#45;&gt;main_py</title><style>.edge>path:hover{stroke-width:8}</style>
<path fill="none" stroke="black" d="M136.14,-305.66C136.29,-305.33 136.45,-304.99 136.61,-304.66 189.37,-194.36 185.97,-89.66 308.23,-89.66 308.23,-89.66 308.23,-89.66 588.59,-89.66 687.47,-89.66 734.49,-49.55 809.78,-113.66 836.77,-136.64 855.06,-239.79 862.67,-291.26"/>
<polygon fill="#000000" stroke="black" points="859.19,-291.67 864.08,-301.07 866.12,-290.68 859.19,-291.67"/>
</g>
<!-- core_console -->
<g id="node2" class="node">
<title>core_console</title><style>.edge>path:hover{stroke-width:8}</style>
<ellipse fill="#b65353" stroke="black" cx="58.31" cy="-385.66" rx="42.31" ry="18"/>
<text xml:space="preserve" text-anchor="middle" x="58.31" y="-381.78" font-family="Helvetica,sans-Serif" font-size="10.00" fill="#ffffff">core.console</text>
</g>
<!-- core_time -->
<g id="node3" class="node">
<title>core_time</title><style>.edge>path:hover{stroke-width:8}</style>
<ellipse fill="#f31616" stroke="black" cx="58.31" cy="-439.66" rx="33.43" ry="18"/>
<text xml:space="preserve" text-anchor="middle" x="58.31" y="-435.78" font-family="Helvetica,sans-Serif" font-size="10.00" fill="#ffffff">core.time</text>
</g>
<!-- core_time&#45;&gt;main_py -->
<g id="edge7" class="edge">
<title>core_time&#45;&gt;main_py</title><style>.edge>path:hover{stroke-width:8}</style>
<path fill="none" stroke="black" d="M115.74,-305.66C114.5,-218.38 102.1,-111.31 136.61,-75.66 190.18,-20.32 231.22,-51.66 308.23,-51.66 308.23,-51.66 308.23,-51.66 588.59,-51.66 687.47,-51.66 735.79,-10.06 809.78,-75.66 841.73,-103.99 858.06,-232.04 863.99,-290.9"/>
<polygon fill="#000000" stroke="black" points="860.5,-291.23 864.95,-300.84 867.47,-290.55 860.5,-291.23"/>
</g>
<!-- core_transform -->
<g id="node4" class="node">
<title>core_transform</title><style>.edge>path:hover{stroke-width:8}</style>
<ellipse fill="#b83d3d" stroke="black" cx="183.36" cy="-547.66" rx="46.74" ry="18"/>
<text xml:space="preserve" text-anchor="middle" x="183.36" y="-543.78" font-family="Helvetica,sans-Serif" font-size="10.00" fill="#ffffff">core.transform</text>
</g>
<!-- core_vector -->
<g id="node5" class="node">
<title>core_vector</title><style>.edge>path:hover{stroke-width:8}</style>
<ellipse fill="#f91010" stroke="black" cx="58.31" cy="-547.66" rx="38.31" ry="18"/>
<text xml:space="preserve" text-anchor="middle" x="58.31" y="-543.78" font-family="Helvetica,sans-Serif" font-size="10.00" fill="#ffffff">core.vector</text>
</g>
<!-- core_vector&#45;&gt;core_transform -->
<g id="edge8" class="edge">
<title>core_vector&#45;&gt;core_transform</title><style>.edge>path:hover{stroke-width:8}</style>
<path fill="none" stroke="black" d="M96.89,-547.66C105.74,-547.66 115.36,-547.66 124.86,-547.66"/>
<polygon fill="#000000" stroke="black" points="124.8,-551.16 134.8,-547.66 124.8,-544.16 124.8,-551.16"/>
</g>
<!-- core_vector&#45;&gt;main_py -->
<g id="edge9" class="edge">
<title>core_vector&#45;&gt;main_py</title><style>.edge>path:hover{stroke-width:8}</style>
<path fill="none" stroke="black" d="M238.1,-416.7C286.51,-379.02 333.66,-341.39 360.37,-318.66 436.38,-253.96 431.89,-202.19 524.79,-165.66 642.66,-119.3 705.92,-93.14 809.78,-165.66 850.32,-193.97 862.05,-254.5 865.39,-290.98"/>
<polygon fill="#000000" stroke="black" points="861.89,-291.12 866.12,-300.84 868.87,-290.61 861.89,-291.12"/>
</g>
<!-- core_window -->
<g id="node6" class="node">
<title>core_window</title><style>.edge>path:hover{stroke-width:8}</style>
<ellipse fill="#e72222" stroke="black" cx="58.31" cy="-331.66" rx="41.86" ry="18"/>
<text xml:space="preserve" text-anchor="middle" x="58.31" y="-327.78" font-family="Helvetica,sans-Serif" font-size="10.00" fill="#ffffff">core.window</text>
</g>
<!-- core_window&#45;&gt;main_py -->
<g id="edge10" class="edge">
<title>core_window&#45;&gt;main_py</title><style>.edge>path:hover{stroke-width:8}</style>
<path fill="none" stroke="black" d="M62.46,-305.66C70.9,-240.64 96.15,-73.6 136.61,-37.66 194.19,13.49 231.22,-13.66 308.23,-13.66 308.23,-13.66 308.23,-13.66 588.59,-13.66 687.47,-13.66 736.77,29.04 809.78,-37.66 846.87,-71.55 860.75,-225.98 865.03,-291.32"/>
<polygon fill="#000000" stroke="black" points="861.51,-291.16 865.62,-300.92 868.5,-290.73 861.51,-291.16"/>
</g>
<!-- entities -->
<g id="node7" class="node">
<title>entities</title><style>.edge>path:hover{stroke-width:8}</style>
<ellipse fill="#f9d810" stroke="black" cx="461.08" cy="-601.66" rx="28.11" ry="18"/>
<text xml:space="preserve" text-anchor="middle" x="461.08" y="-597.78" font-family="Helvetica,sans-Serif" font-size="10.00" fill="#000000">entities</text>
</g>
<!-- entities&#45;&gt;gameplay_weapon -->
<g id="edge11" class="edge">
<title>entities&#45;&gt;gameplay_weapon</title><style>.edge>path:hover{stroke-width:8}</style>
<path fill="none" stroke="black" d="M476.33,-575.66C488.1,-555.19 505.89,-526.41 524.79,-503.66 526.39,-501.73 528.06,-499.79 529.77,-497.87"/>
<polygon fill="#000000" stroke="black" points="532.26,-500.33 536.49,-490.62 527.12,-495.57 532.26,-500.33"/>
</g>
<!-- entities&#45;&gt;systems_enemy_spawner -->
<g id="edge13" class="edge">
<title>entities&#45;&gt;systems_enemy_spawner</title><style>.edge>path:hover{stroke-width:8}</style>
<path fill="none" stroke="black" d="M461.17,-575.66C460.91,-526.53 467.46,-419.47 524.79,-357.66 562.44,-317.06 593.08,-342.08 642.77,-317.66 645.68,-316.23 648.6,-314.73 651.53,-313.17"/>
<polygon fill="#000000" stroke="black" points="653.09,-316.3 660.14,-308.39 649.69,-310.18 653.09,-316.3"/>
</g>
<!-- entities&#45;&gt;main_py -->
<g id="edge12" class="edge">
<title>entities&#45;&gt;main_py</title><style>.edge>path:hover{stroke-width:8}</style>
<path fill="none" stroke="black" d="M484.18,-575.66C495.34,-563.9 509.69,-550.65 524.79,-541.66 572.11,-513.45 592.5,-526.18 642.77,-503.66 721.31,-468.48 747.15,-464.69 809.78,-405.66 827.49,-388.96 842.54,-365.77 852.71,-347.83"/>
<polygon fill="#000000" stroke="black" points="855.65,-349.74 857.38,-339.29 849.51,-346.38 855.65,-349.74"/>
</g>
<!-- entities_bullet&#45;&gt;main_py -->
<g id="edge14" class="edge">
<title>entities_bullet&#45;&gt;main_py</title><style>.edge>path:hover{stroke-width:8}</style>
<path fill="none" stroke="black" d="M642.77,-717.48C693.69,-711.45 768.11,-694.28 809.78,-645.66 847.75,-601.36 861.31,-421.76 865.26,-350.25"/>
<polygon fill="#000000" stroke="black" points="868.74,-350.65 865.77,-340.48 861.75,-350.28 868.74,-350.65"/>
</g>
<!-- entities_enemy -->
<g id="node9" class="node">
<title>entities_enemy</title><style>.edge>path:hover{stroke-width:8}</style>
<ellipse fill="#918430" stroke="black" cx="587.59" cy="-601.66" rx="47.19" ry="18"/>
<text xml:space="preserve" text-anchor="middle" x="587.59" y="-597.78" font-family="Helvetica,sans-Serif" font-size="10.00" fill="#ffffff">entities.enemy</text>
</g>
<!-- entities_enemy&#45;&gt;main_py -->
<g id="edge15" class="edge">
<title>entities_enemy&#45;&gt;main_py</title><style>.edge>path:hover{stroke-width:8}</style>
<path fill="none" stroke="black" d="M642.77,-609.58C692.56,-613.61 765.18,-610.78 809.78,-569.66 841.8,-540.13 858.17,-409.27 864.06,-350"/>
<polygon fill="#000000" stroke="black" points="867.51,-350.62 864.98,-340.34 860.54,-349.96 867.51,-350.62"/>
</g>
<!-- entities_entity -->
<g id="node10" class="node">
<title>entities_entity</title><style>.edge>path:hover{stroke-width:8}</style>
<ellipse fill="#a58e08" stroke="black" cx="461.08" cy="-659.66" rx="35.71" ry="21.57"/>
<text xml:space="preserve" text-anchor="middle" x="461.08" y="-661.41" font-family="Helvetica,sans-Serif" font-size="10.00" fill="#000000">entities.</text>
<text xml:space="preserve" text-anchor="middle" x="461.08" y="-650.16" font-family="Helvetica,sans-Serif" font-size="10.00" fill="#000000">entity</text>
</g>
<!-- entities_entity&#45;&gt;entities_bullet -->
<g id="edge16" class="edge">
<title>entities_entity&#45;&gt;entities_bullet</title><style>.edge>path:hover{stroke-width:8}</style>
<path fill="none" stroke="black" d="M489.53,-673.28C500.49,-678.71 513.22,-684.99 524.79,-690.66 532.53,-694.45 540.83,-698.5 548.76,-702.35"/>
<polygon fill="#000000" stroke="black" points="546.99,-705.38 557.52,-706.6 550.05,-699.08 546.99,-705.38"/>
</g>
<!-- entities_entity&#45;&gt;entities_enemy -->
<g id="edge17" class="edge">
<title>entities_entity&#45;&gt;entities_enemy</title><style>.edge>path:hover{stroke-width:8}</style>
<path fill="none" stroke="black" d="M489.1,-645.95C500.12,-640.46 513,-634.14 524.79,-628.66 531.19,-625.68 538.02,-622.6 544.7,-619.64"/>
<polygon fill="#000000" stroke="black" points="545.88,-622.94 553.63,-615.72 543.07,-616.53 545.88,-622.94"/>
</g>
<!-- entities_player -->
<g id="node11" class="node">
<title>entities_player</title><style>.edge>path:hover{stroke-width:8}</style>
<ellipse fill="#8a7d2e" stroke="black" cx="587.59" cy="-659.66" rx="35.71" ry="21.57"/>
<text xml:space="preserve" text-anchor="middle" x="587.59" y="-661.41" font-family="Helvetica,sans-Serif" font-size="10.00" fill="#ffffff">entities.</text>
<text xml:space="preserve" text-anchor="middle" x="587.59" y="-650.16" font-family="Helvetica,sans-Serif" font-size="10.00" fill="#ffffff">player</text>
</g>
<!-- entities_entity&#45;&gt;entities_player -->
<g id="edge18" class="edge">
<title>entities_entity&#45;&gt;entities_player</title><style>.edge>path:hover{stroke-width:8}</style>
<path fill="none" stroke="black" d="M497.09,-659.66C510.49,-659.66 525.97,-659.66 540.26,-659.66"/>
<polygon fill="#000000" stroke="black" points="539.89,-663.16 549.89,-659.66 539.89,-656.16 539.89,-663.16"/>
</g>
<!-- entities_entity&#45;&gt;main_py -->
<g id="edge19" class="edge">
<title>entities_entity&#45;&gt;main_py</title><style>.edge>path:hover{stroke-width:8}</style>
<path fill="none" stroke="black" d="M523.63,-575.66C524.01,-575.33 524.39,-574.99 524.79,-574.66 566.85,-539.08 591.4,-556.55 642.77,-536.66 718.82,-507.22 753.31,-519.5 809.78,-460.66 839.58,-429.61 854.54,-380.86 861.45,-349.85"/>
<polygon fill="#000000" stroke="black" points="864.81,-350.89 863.41,-340.39 857.95,-349.47 864.81,-350.89"/>
</g>
<!-- entities_player&#45;&gt;main_py -->
<g id="edge20" class="edge">
<title>entities_player&#45;&gt;main_py</title><style>.edge>path:hover{stroke-width:8}</style>
<path fill="none" stroke="black" d="M642.77,-661.51C693.19,-660.12 766.81,-649.65 809.78,-604.66 844.52,-568.27 859.7,-415.25 864.68,-350.16"/>
<polygon fill="#000000" stroke="black" points="868.16,-350.46 865.4,-340.24 861.18,-349.95 868.16,-350.46"/>
</g>
<!-- gameplay -->
<g id="node12" class="node">
<title>gameplay</title><style>.edge>path:hover{stroke-width:8}</style>
<ellipse fill="#60db2f" stroke="black" cx="587.59" cy="-387.66" rx="34.32" ry="18"/>
<text xml:space="preserve" text-anchor="middle" x="587.59" y="-383.78" font-family="Helvetica,sans-Serif" font-size="10.00" fill="#000000">gameplay</text>
</g>
<!-- gameplay&#45;&gt;entities_enemy -->
<g id="edge21" class="edge">
<title>gameplay&#45;&gt;entities_enemy</title><style>.edge>path:hover{stroke-width:8}</style>
<path fill="none" stroke="black" d="M537.52,-400.2C526.61,-405.5 516.59,-413.02 510.79,-423.66 496.2,-450.38 496.2,-533.94 510.79,-560.66 512.16,-563.17 513.74,-565.53 515.51,-567.75"/>
<polygon fill="#000000" stroke="black" points="512.61,-569.79 522.06,-574.57 517.65,-564.94 512.61,-569.79"/>
</g>
<!-- gameplay&#45;&gt;systems_enemy_spawner -->
<g id="edge23" class="edge">
<title>gameplay&#45;&gt;systems_enemy_spawner</title><style>.edge>path:hover{stroke-width:8}</style>
<path fill="none" stroke="black" d="M634.72,-361.66C637.5,-359.71 640.21,-357.71 642.77,-355.66 657.63,-343.79 672.39,-329.68 685.72,-315.79"/>
<polygon fill="#000000" stroke="black" points="688.04,-318.43 692.35,-308.76 682.94,-313.63 688.04,-318.43"/>
</g>
<!-- gameplay&#45;&gt;main_py -->
<g id="edge22" class="edge">
<title>gameplay&#45;&gt;main_py</title><style>.edge>path:hover{stroke-width:8}</style>
<path fill="none" stroke="black" d="M637.66,-375.84C692.05,-362.73 778.63,-341.87 828.29,-329.9"/>
<polygon fill="#000000" stroke="black" points="829.05,-333.32 837.96,-327.57 827.41,-326.51 829.05,-333.32"/>
</g>
<!-- gameplay_weapon&#45;&gt;main_py -->
<g id="edge24" class="edge">
<title>gameplay_weapon&#45;&gt;main_py</title><style>.edge>path:hover{stroke-width:8}</style>
<path fill="none" stroke="black" d="M637.66,-432.43C683.76,-418.92 753.83,-395.56 809.78,-364.66 820.76,-358.59 831.89,-350.51 841.35,-342.92"/>
<polygon fill="#000000" stroke="black" points="843.56,-345.64 849.03,-336.57 839.09,-340.25 843.56,-345.64"/>
</g>
<!-- physics -->
<g id="node14" class="node">
<title>physics</title><style>.edge>path:hover{stroke-width:8}</style>
<ellipse fill="#538cb6" stroke="black" cx="309.23" cy="-433.66" rx="29.44" ry="18"/>
<text xml:space="preserve" text-anchor="middle" x="309.23" y="-429.78" font-family="Helvetica,sans-Serif" font-size="10.00" fill="#000000">physics</text>
</g>
<!-- physics&#45;&gt;entities_entity -->
<g id="edge25" class="edge">
<title>physics&#45;&gt;entities_entity</title><style>.edge>path:hover{stroke-width:8}</style>
<path fill="none" stroke="black" d="M354.53,-454.8C356.64,-456.62 358.6,-458.57 360.37,-460.66 408.79,-517.93 374.35,-560.82 411.12,-619.49"/>
<polygon fill="#000000" stroke="black" points="407.99,-621.12 416.52,-627.41 413.78,-617.17 407.99,-621.12"/>
</g>
<!-- render -->
<g id="node16" class="node">
<title>render</title><style>.edge>path:hover{stroke-width:8}</style>
<ellipse fill="#7053b6" stroke="black" cx="309.23" cy="-579.66" rx="27" ry="18"/>
<text xml:space="preserve" text-anchor="middle" x="309.23" y="-575.78" font-family="Helvetica,sans-Serif" font-size="10.00" fill="#ffffff">render</text>
</g>
<!-- render&#45;&gt;entities_entity -->
<g id="edge26" class="edge">
<title>render&#45;&gt;entities_entity</title><style>.edge>path:hover{stroke-width:8}</style>
<path fill="none" stroke="black" d="M360.37,-606.42C375.52,-614.51 392.2,-623.42 407.51,-631.59"/>
<polygon fill="#000000" stroke="black" points="405.57,-634.52 416.04,-636.15 408.86,-628.35 405.57,-634.52"/>
</g>
<!-- systems -->
<g id="node18" class="node">
<title>systems</title><style>.edge>path:hover{stroke-width:8}</style>
<ellipse fill="#ce3bb9" stroke="black" cx="587.59" cy="-195.66" rx="31.66" ry="18"/>
<text xml:space="preserve" text-anchor="middle" x="587.59" y="-191.78" font-family="Helvetica,sans-Serif" font-size="10.00" fill="#ffffff">systems</text>
</g>
<!-- systems&#45;&gt;gameplay_weapon -->
<g id="edge27" class="edge">
<title>systems&#45;&gt;gameplay_weapon</title><style>.edge>path:hover{stroke-width:8}</style>
<path fill="none" stroke="black" d="M524.79,-215.89C519.11,-220.18 514.21,-225.38 510.79,-231.66 492.26,-265.6 492.26,-371.72 510.79,-405.66 514.93,-413.25 521.1,-419.46 528.17,-424.51"/>
<polygon fill="#000000" stroke="black" points="525.89,-427.21 536.23,-429.51 529.58,-421.27 525.89,-427.21"/>
</g>
<!-- systems&#45;&gt;main_py -->
<g id="edge28" class="edge">
<title>systems&#45;&gt;main_py</title><style>.edge>path:hover{stroke-width:8}</style>
<path fill="none" stroke="black" d="M809.77,-202.66C809.78,-202.66 809.78,-202.66 809.78,-202.66 840.14,-222.4 854.74,-263.25 861.43,-291.3"/>
<polygon fill="#000000" stroke="black" points="857.99,-291.92 863.52,-300.96 864.83,-290.44 857.99,-291.92"/>
</g>
<!-- systems_enemy_spawner&#45;&gt;main_py -->
<g id="edge29" class="edge">
<title>systems_enemy_spawner&#45;&gt;main_py</title><style>.edge>path:hover{stroke-width:8}</style>
<path fill="none" stroke="black" d="M809.77,-290.31C818.35,-294.88 826.77,-299.38 834.41,-303.45"/>
<polygon fill="#000000" stroke="black" points="832.72,-306.52 843.19,-308.14 836.01,-300.34 832.72,-306.52"/>
</g>
<!-- systems_entity_registry -->
<g id="node20" class="node">
<title>systems_entity_registry</title><style>.edge>path:hover{stroke-width:8}</style>
<ellipse fill="#c431af" stroke="black" cx="587.59" cy="-253.66" rx="54.8" ry="21.57"/>
<text xml:space="preserve" text-anchor="middle" x="587.59" y="-255.41" font-family="Helvetica,sans-Serif" font-size="10.00" fill="#ffffff">systems.</text>
<text xml:space="preserve" text-anchor="middle" x="587.59" y="-244.16" font-family="Helvetica,sans-Serif" font-size="10.00" fill="#ffffff">entity_registry</text>
</g>
<!-- systems_entity_registry&#45;&gt;systems_enemy_spawner -->
<g id="edge31" class="edge">
<title>systems_entity_registry&#45;&gt;systems_enemy_spawner</title><style>.edge>path:hover{stroke-width:8}</style>
<path fill="none" stroke="black" d="M642.49,-253.66C650.35,-253.66 658.54,-253.66 666.69,-253.66"/>
<polygon fill="#000000" stroke="black" points="666.62,-257.16 676.62,-253.66 666.62,-250.16 666.62,-257.16"/>
</g>
<!-- systems_entity_registry&#45;&gt;main_py -->
<g id="edge30" class="edge">
<title>systems_entity_registry&#45;&gt;main_py</title><style>.edge>path:hover{stroke-width:8}</style>
<path fill="none" stroke="black" d="M809.77,-222.66C809.78,-222.66 809.78,-222.66 809.78,-222.66 835.42,-237.42 850.56,-268.66 858.69,-291.92"/>
<polygon fill="#000000" stroke="black" points="855.27,-292.71 861.67,-301.15 861.93,-290.56 855.27,-292.71"/>
</g>
</g>
</svg>
