<?xml version="1.0" encoding="UTF-8" standalone="no"?>
<!DOCTYPE svg PUBLIC "-//W3C//DTD SVG 1.1//EN"
 "http://www.w3.org/Graphics/SVG/1.1/DTD/svg11.dtd">
<!-- Generated by graphviz version 14.1.3 (20260303.0454)
 -->
<!-- Title: G Pages: 1 -->
<svg width="918pt" height="808pt"
 viewBox="0.00 0.00 918.00 808.00" xmlns="http://www.w3.org/2000/svg" xmlns:xlink="http://www.w3.org/1999/xlink">
<g id="graph0" class="graph" transform="scale(1 1) rotate(0) translate(4 804.01)">
<title>G</title><style>.edge>path:hover{stroke-width:8}</style>
<polygon fill="white" stroke="none" points="-4,4 -4,-804.01 914.27,-804.01 914.27,4 -4,4"/>
<g id="clust1" class="cluster">
<title>cluster_core</title><style>.edge>path:hover{stroke-width:8}</style>
<polygon fill="none" stroke="black" points="8,-462.3 8,-755.3 238.1,-755.3 238.1,-462.3 8,-462.3"/>
<text xml:space="preserve" text-anchor="middle" x="123.05" y="-738" font-family="Times,serif" font-size="14.00">core</text>
</g>
<g id="clust2" class="cluster">
<title>cluster_entities</title><style>.edge>path:hover{stroke-width:8}</style>
<polygon fill="none" stroke="black" points="519.61,-486.3 519.61,-625.3 771,-625.3 771,-486.3 519.61,-486.3"/>
<text xml:space="preserve" text-anchor="middle" x="645.3" y="-608" font-family="Times,serif" font-size="14.00">entities</text>
</g>
<g id="clust3" class="cluster">
<title>cluster_gameplay</title><style>.edge>path:hover{stroke-width:8}</style>
<polygon fill="none" stroke="black" points="380.37,-640.3 380.37,-778.3 613.39,-778.3 613.39,-640.3 380.37,-640.3"/>
<text xml:space="preserve" text-anchor="middle" x="496.88" y="-761" font-family="Times,serif" font-size="14.00">gameplay</text>
</g>
<g id="clust4" class="cluster">
<title>cluster_physics</title><style>.edge>path:hover{stroke-width:8}</style>
<polygon fill="none" stroke="black" points="263.93,-318.3 263.93,-456.3 354.53,-456.3 354.53,-318.3 263.93,-318.3"/>
<text xml:space="preserve" text-anchor="middle" x="309.23" y="-439" font-family="Times,serif" font-size="14.00">physics</text>
</g>
<g id="clust5" class="cluster">
<title>cluster_render</title><style>.edge>path:hover{stroke-width:8}</style>
<polygon fill="none" stroke="black" points="258.1,-464.3 258.1,-602.3 360.37,-602.3 360.37,-464.3 258.1,-464.3"/>
<text xml:space="preserve" text-anchor="middle" x="309.23" y="-585" font-family="Times,serif" font-size="14.00">render</text>
</g>
<g id="clust6" class="cluster">
<title>cluster_systems</title><style>.edge>path:hover{stroke-width:8}</style>
<polygon fill="none" stroke="black" points="500.51,-218.3 500.51,-357.3 785.51,-357.3 785.51,-218.3 500.51,-218.3"/>
<text xml:space="preserve" text-anchor="middle" x="643.01" y="-340" font-family="Times,serif" font-size="14.00">systems</text>
</g>
<!-- core -->
<g id="node1" class="node">
<title>core</title><style>.edge>path:hover{stroke-width:8}</style>
<ellipse fill="#f91010" stroke="black" cx="58.31" cy="-650.3" rx="27" ry="18"/>
<text xml:space="preserve" text-anchor="middle" x="58.31" y="-646.43" font-family="Helvetica,sans-Serif" font-size="10.00" fill="#ffffff">core</text>
</g>
<!-- entities_enemy -->
<g id="node8" class="node">
<title>entities_enemy</title><style>.edge>path:hover{stroke-width:8}</style>
<ellipse fill="#887d3a" stroke="black" cx="715.81" cy="-574.3" rx="47.19" ry="18"/>
<text xml:space="preserve" text-anchor="middle" x="715.81" y="-570.43" font-family="Helvetica,sans-Serif" font-size="10.00" fill="#ffffff">entities.enemy</text>
</g>
<!-- core&#45;&gt;entities_enemy -->
<g id="edge1" class="edge">
<title>core&#45;&gt;entities_enemy</title><style>.edge>path:hover{stroke-width:8}</style>
<path fill="none" stroke="black" d="M238.1,-623.54C261.63,-621.55 285.48,-620.3 308.23,-620.3 308.23,-620.3 308.23,-620.3 431.44,-620.3 464.2,-620.3 487.38,-619.76 508.43,-618.16"/>
<polygon fill="#000000" stroke="black" points="508.44,-621.68 518.1,-617.33 507.84,-614.7 508.44,-621.68"/>
</g>
<!-- gameplay_munition -->
<g id="node12" class="node">
<title>gameplay_munition</title><style>.edge>path:hover{stroke-width:8}</style>
<ellipse fill="#44a51d" stroke="black" cx="430.44" cy="-724.3" rx="42.07" ry="21.57"/>
<text xml:space="preserve" text-anchor="middle" x="430.44" y="-726.05" font-family="Helvetica,sans-Serif" font-size="10.00" fill="#ffffff">gameplay.</text>
<text xml:space="preserve" text-anchor="middle" x="430.44" y="-714.8" font-family="Helvetica,sans-Serif" font-size="10.00" fill="#ffffff">munition</text>
</g>
<!-- core&#45;&gt;gameplay_munition -->
<g id="edge2" class="edge">
<title>core&#45;&gt;gameplay_munition</title><style>.edge>path:hover{stroke-width:8}</style>
<path fill="none" stroke="black" d="M238.1,-677.3C282.47,-686.08 332.04,-698.33 369.61,-708.12"/>
<polygon fill="#000000" stroke="black" points="368.34,-711.41 378.91,-710.56 370.12,-704.63 368.34,-711.41"/>
</g>
<!-- physics_collision -->
<g id="node15" class="node">
<title>physics_collision</title><style>.edge>path:hover{stroke-width:8}</style>
<ellipse fill="#2f7fbc" stroke="black" cx="309.23" cy="-402.3" rx="37.3" ry="21.57"/>
<text xml:space="preserve" text-anchor="middle" x="309.23" y="-404.05" font-family="Helvetica,sans-Serif" font-size="10.00" fill="#ffffff">physics.</text>
<text xml:space="preserve" text-anchor="middle" x="309.23" y="-392.8" font-family="Helvetica,sans-Serif" font-size="10.00" fill="#ffffff">collision</text>
</g>
<!-- core&#45;&gt;physics_collision -->
<g id="edge4" class="edge">
<title>core&#45;&gt;physics_collision</title><style>.edge>path:hover{stroke-width:8}</style>
<path fill="none" stroke="black" d="M237.13,-462.3C243.51,-456.56 249.68,-451.11 255.55,-446"/>
<polygon fill="#000000" stroke="black" points="257.51,-448.94 262.79,-439.75 252.93,-443.64 257.51,-448.94"/>
</g>
<!-- render_renderable -->
<g id="node17" class="node">
<title>render_renderable</title><style>.edge>path:hover{stroke-width:8}</style>
<ellipse fill="#572fbc" stroke="black" cx="309.23" cy="-548.3" rx="43.13" ry="21.57"/>
<text xml:space="preserve" text-anchor="middle" x="309.23" y="-550.05" font-family="Helvetica,sans-Serif" font-size="10.00" fill="#ffffff">render.</text>
<text xml:space="preserve" text-anchor="middle" x="309.23" y="-538.8" font-family="Helvetica,sans-Serif" font-size="10.00" fill="#ffffff">renderable</text>
</g>
<!-- core&#45;&gt;render_renderable -->
<g id="edge5" class="edge">
<title>core&#45;&gt;render_renderable</title><style>.edge>path:hover{stroke-width:8}</style>
<path fill="none" stroke="black" d="M238.1,-568.65C241.18,-567.68 244.2,-566.73 247.16,-565.81"/>
<polygon fill="#000000" stroke="black" points="248.12,-569.18 256.66,-562.91 246.07,-562.49 248.12,-569.18"/>
</g>
<!-- systems_armory -->
<g id="node19" class="node">
<title>systems_armory</title><style>.edge>path:hover{stroke-width:8}</style>
<ellipse fill="#6b2e62" stroke="black" cx="715.81" cy="-306.3" rx="51.18" ry="18"/>
<text xml:space="preserve" text-anchor="middle" x="715.81" y="-302.43" font-family="Helvetica,sans-Serif" font-size="10.00" fill="#ffffff">systems.armory</text>
</g>
<!-- core&#45;&gt;systems_armory -->
<g id="edge6" class="edge">
<title>core&#45;&gt;systems_armory</title><style>.edge>path:hover{stroke-width:8}</style>
<path fill="none" stroke="black" d="M135.65,-462.3C135.96,-461.64 136.28,-460.97 136.61,-460.3 173.76,-384.5 181.67,-350.13 258.1,-314.3 299.25,-295.01 315.02,-311.24 360.37,-314.3 417.58,-318.16 453.55,-326.79 489.38,-332.52"/>
<polygon fill="#000000" stroke="black" points="488.61,-335.95 499.02,-333.97 489.65,-329.02 488.61,-335.95"/>
</g>
<!-- main_py -->
<g id="node22" class="node">
<title>main_py</title><style>.edge>path:hover{stroke-width:8}</style>
<ellipse fill="#356350" stroke="black" cx="880.39" cy="-223.3" rx="29.88" ry="18"/>
<text xml:space="preserve" text-anchor="middle" x="880.39" y="-219.43" font-family="Helvetica,sans-Serif" font-size="10.00" fill="#ffffff">main.py</text>
</g>
<!-- core&#45;&gt;main_py -->
<g id="edge3" class="edge">
<title>core&#45;&gt;main_py</title><style>.edge>path:hover{stroke-width:8}</style>
<path fill="none" stroke="black" d="M124.95,-462.3C119.35,-421.19 114.54,-377.75 136.61,-321.3 183.97,-200.18 178.18,-84.3 308.23,-84.3 308.23,-84.3 308.23,-84.3 716.81,-84.3 761.52,-84.3 778.88,-81.28 814.51,-108.3 843.14,-130.03 861.04,-168.28 870.61,-194.66"/>
<polygon fill="#000000" stroke="black" points="867.28,-195.75 873.83,-204.07 873.9,-193.48 867.28,-195.75"/>
</g>
<!-- core_console -->
<g id="node2" class="node">
<title>core_console</title><style>.edge>path:hover{stroke-width:8}</style>
<ellipse fill="#c24747" stroke="black" cx="58.31" cy="-542.3" rx="42.31" ry="18"/>
<text xml:space="preserve" text-anchor="middle" x="58.31" y="-538.43" font-family="Helvetica,sans-Serif" font-size="10.00" fill="#ffffff">core.console</text>
</g>
<!-- core_time -->
<g id="node3" class="node">
<title>core_time</title><style>.edge>path:hover{stroke-width:8}</style>
<ellipse fill="#f31616" stroke="black" cx="58.31" cy="-596.3" rx="33.43" ry="18"/>
<text xml:space="preserve" text-anchor="middle" x="58.31" y="-592.43" font-family="Helvetica,sans-Serif" font-size="10.00" fill="#ffffff">core.time</text>
</g>
<!-- core_time&#45;&gt;main_py -->
<g id="edge7" class="edge">
<title>core_time&#45;&gt;main_py</title><style>.edge>path:hover{stroke-width:8}</style>
<path fill="none" stroke="black" d="M119.35,-462.3C119.6,-327.52 79.66,-131.2 136.61,-70.3 189.22,-14.05 231.22,-46.3 308.23,-46.3 308.23,-46.3 308.23,-46.3 716.81,-46.3 761.52,-46.3 780.46,-41.32 814.51,-70.3 851.84,-102.09 868.2,-159.11 874.98,-193.84"/>
<polygon fill="#000000" stroke="black" points="871.52,-194.41 876.73,-203.63 878.41,-193.17 871.52,-194.41"/>
</g>
<!-- core_transform -->
<g id="node4" class="node">
<title>core_transform</title><style>.edge>path:hover{stroke-width:8}</style>
<ellipse fill="#d02424" stroke="black" cx="183.36" cy="-704.3" rx="46.74" ry="18"/>
<text xml:space="preserve" text-anchor="middle" x="183.36" y="-700.43" font-family="Helvetica,sans-Serif" font-size="10.00" fill="#ffffff">core.transform</text>
</g>
<!-- core_vector -->
<g id="node5" class="node">
<title>core_vector</title><style>.edge>path:hover{stroke-width:8}</style>
<ellipse fill="#f91010" stroke="black" cx="58.31" cy="-704.3" rx="38.31" ry="18"/>
<text xml:space="preserve" text-anchor="middle" x="58.31" y="-700.43" font-family="Helvetica,sans-Serif" font-size="10.00" fill="#ffffff">core.vector</text>
</g>
<!-- core_vector&#45;&gt;core_transform -->
<g id="edge8" class="edge">
<title>core_vector&#45;&gt;core_transform</title><style>.edge>path:hover{stroke-width:8}</style>
<path fill="none" stroke="black" d="M96.89,-704.3C105.74,-704.3 115.36,-704.3 124.86,-704.3"/>
<polygon fill="#000000" stroke="black" points="124.8,-707.8 134.8,-704.3 124.8,-700.8 124.8,-707.8"/>
</g>
<!-- core_vector&#45;&gt;main_py -->
<g id="edge9" class="edge">
<title>core_vector&#45;&gt;main_py</title><style>.edge>path:hover{stroke-width:8}</style>
<path fill="none" stroke="black" d="M179.96,-462.3C189.47,-413.81 205.86,-365.61 258.1,-314.3 392.27,-182.54 468.3,-194.22 654.11,-165.3 711.82,-156.32 728.76,-151.5 785.51,-165.3 799.6,-168.73 801.99,-172.95 814.51,-180.3 826.67,-187.45 839.7,-195.92 850.88,-203.45"/>
<polygon fill="#000000" stroke="black" points="848.66,-206.17 858.89,-208.91 852.6,-200.38 848.66,-206.17"/>
</g>
<!-- core_window -->
<g id="node6" class="node">
<title>core_window</title><style>.edge>path:hover{stroke-width:8}</style>
<ellipse fill="#e72222" stroke="black" cx="58.31" cy="-488.3" rx="41.86" ry="18"/>
<text xml:space="preserve" text-anchor="middle" x="58.31" y="-484.43" font-family="Helvetica,sans-Serif" font-size="10.00" fill="#ffffff">core.window</text>
</g>
<!-- core_window&#45;&gt;main_py -->
<g id="edge10" class="edge">
<title>core_window&#45;&gt;main_py</title><style>.edge>path:hover{stroke-width:8}</style>
<path fill="none" stroke="black" d="M59.84,-462.31C62.19,-374.73 74.53,-92.61 136.61,-32.3 191.86,21.36 231.22,-8.3 308.23,-8.3 308.23,-8.3 308.23,-8.3 716.81,-8.3 761.52,-8.3 781.55,-2.08 814.51,-32.3 860.79,-74.74 874.06,-151.43 877.87,-193.57"/>
<polygon fill="#000000" stroke="black" points="874.37,-193.76 878.62,-203.46 881.35,-193.23 874.37,-193.76"/>
</g>
<!-- entities -->
<g id="node7" class="node">
<title>entities</title><style>.edge>path:hover{stroke-width:8}</style>
<ellipse fill="#f9d810" stroke="black" cx="563.31" cy="-512.3" rx="28.11" ry="18"/>
<text xml:space="preserve" text-anchor="middle" x="563.31" y="-508.43" font-family="Helvetica,sans-Serif" font-size="10.00" fill="#000000">entities</text>
</g>
<!-- entities&#45;&gt;gameplay_munition -->
<g id="edge11" class="edge">
<title>entities&#45;&gt;gameplay_munition</title><style>.edge>path:hover{stroke-width:8}</style>
<path fill="none" stroke="black" d="M519.61,-524.32C512.34,-528.07 505.53,-532.96 500.51,-539.3 474.71,-571.91 482.79,-599.4 485.67,-628.89"/>
<polygon fill="#000000" stroke="black" points="482.17,-629.05 486.33,-638.79 489.15,-628.58 482.17,-629.05"/>
</g>
<!-- entities&#45;&gt;systems_armory -->
<g id="edge13" class="edge">
<title>entities&#45;&gt;systems_armory</title><style>.edge>path:hover{stroke-width:8}</style>
<path fill="none" stroke="black" d="M611.85,-486.3C614.07,-484.4 616.18,-482.4 618.11,-480.3 642.67,-453.74 636.78,-439.05 654.11,-407.3 661.29,-394.16 669.32,-380.28 677.13,-367.16"/>
<polygon fill="#000000" stroke="black" points="680.12,-368.97 682.26,-358.6 674.12,-365.37 680.12,-368.97"/>
</g>
<!-- entities&#45;&gt;main_py -->
<g id="edge12" class="edge">
<title>entities&#45;&gt;main_py</title><style>.edge>path:hover{stroke-width:8}</style>
<path fill="none" stroke="black" d="M612.98,-486.3C660.58,-459.3 733.32,-413.72 785.51,-361.3 819.19,-327.46 848.4,-280.02 864.95,-250.5"/>
<polygon fill="#000000" stroke="black" points="867.97,-252.27 869.72,-241.82 861.84,-248.89 867.97,-252.27"/>
</g>
<!-- entities_entity -->
<g id="node9" class="node">
<title>entities_entity</title><style>.edge>path:hover{stroke-width:8}</style>
<ellipse fill="#9c8811" stroke="black" cx="563.31" cy="-570.3" rx="35.71" ry="21.57"/>
<text xml:space="preserve" text-anchor="middle" x="563.31" y="-572.05" font-family="Helvetica,sans-Serif" font-size="10.00" fill="#000000">entities.</text>
<text xml:space="preserve" text-anchor="middle" x="563.31" y="-560.8" font-family="Helvetica,sans-Serif" font-size="10.00" fill="#000000">entity</text>
</g>
<!-- entities_entity&#45;&gt;entities_enemy -->
<g id="edge14" class="edge">
<title>entities_entity&#45;&gt;entities_enemy</title><style>.edge>path:hover{stroke-width:8}</style>
<path fill="none" stroke="black" d="M599.22,-571.23C616.42,-571.69 637.62,-572.25 657.14,-572.77"/>
<polygon fill="#000000" stroke="black" points="656.8,-576.26 666.89,-573.03 656.99,-569.26 656.8,-576.26"/>
</g>
<!-- entities_player -->
<g id="node10" class="node">
<title>entities_player</title><style>.edge>path:hover{stroke-width:8}</style>
<ellipse fill="#736826" stroke="black" cx="715.81" cy="-516.3" rx="35.71" ry="21.57"/>
<text xml:space="preserve" text-anchor="middle" x="715.81" y="-518.05" font-family="Helvetica,sans-Serif" font-size="10.00" fill="#ffffff">entities.</text>
<text xml:space="preserve" text-anchor="middle" x="715.81" y="-506.8" font-family="Helvetica,sans-Serif" font-size="10.00" fill="#ffffff">player</text>
</g>
<!-- entities_entity&#45;&gt;entities_player -->
<g id="edge15" class="edge">
<title>entities_entity&#45;&gt;entities_player</title><style>.edge>path:hover{stroke-width:8}</style>
<path fill="none" stroke="black" d="M594.77,-559.37C617.51,-551.21 648.84,-539.97 673.79,-531.02"/>
<polygon fill="#000000" stroke="black" points="674.75,-534.4 682.98,-527.72 672.38,-527.81 674.75,-534.4"/>
</g>
<!-- entities_player&#45;&gt;main_py -->
<g id="edge16" class="edge">
<title>entities_player&#45;&gt;main_py</title><style>.edge>path:hover{stroke-width:8}</style>
<path fill="none" stroke="black" d="M763.7,-486.31C781.8,-472.67 801.29,-455.13 814.51,-435.3 852.95,-377.6 869.42,-296.13 875.8,-252.91"/>
<polygon fill="#000000" stroke="black" points="879.26,-253.43 877.17,-243.04 872.33,-252.47 879.26,-253.43"/>
</g>
<!-- gameplay -->
<g id="node11" class="node">
<title>gameplay</title><style>.edge>path:hover{stroke-width:8}</style>
<ellipse fill="#55f316" stroke="black" cx="430.44" cy="-666.3" rx="34.32" ry="18"/>
<text xml:space="preserve" text-anchor="middle" x="430.44" y="-662.43" font-family="Helvetica,sans-Serif" font-size="10.00" fill="#000000">gameplay</text>
</g>
<!-- gameplay&#45;&gt;entities_enemy -->
<g id="edge17" class="edge">
<title>gameplay&#45;&gt;entities_enemy</title><style>.edge>path:hover{stroke-width:8}</style>
<path fill="none" stroke="black" d="M600.79,-640.3C606.68,-638.44 612.47,-636.44 618.11,-634.3 621.5,-633.02 624.9,-631.61 628.29,-630.1"/>
<polygon fill="#000000" stroke="black" points="629.51,-633.39 637.05,-625.95 626.52,-627.07 629.51,-633.39"/>
</g>
<!-- gameplay&#45;&gt;systems_armory -->
<g id="edge19" class="edge">
<title>gameplay&#45;&gt;systems_armory</title><style>.edge>path:hover{stroke-width:8}</style>
<path fill="none" stroke="black" d="M434.18,-640.3C439.71,-600.8 455.77,-525.67 500.51,-482.3 540.16,-443.88 573.84,-475.28 618.11,-442.3 632.85,-431.32 656.74,-397.82 677.08,-366.81"/>
<polygon fill="#000000" stroke="black" points="679.92,-368.86 682.44,-358.57 674.05,-365.04 679.92,-368.86"/>
</g>
<!-- gameplay&#45;&gt;main_py -->
<g id="edge18" class="edge">
<title>gameplay&#45;&gt;main_py</title><style>.edge>path:hover{stroke-width:8}</style>
<path fill="none" stroke="black" d="M613.38,-772.32C674.27,-771.39 728.34,-736.78 785.51,-677.3 844.76,-615.65 870.33,-343.57 877.31,-252.85"/>
<polygon fill="#000000" stroke="black" points="880.78,-253.27 878.04,-243.04 873.8,-252.75 880.78,-253.27"/>
</g>
<!-- gameplay_weapon -->
<g id="node13" class="node">
<title>gameplay_weapon</title><style>.edge>path:hover{stroke-width:8}</style>
<ellipse fill="#4aca16" stroke="black" cx="563.31" cy="-708.3" rx="42.07" ry="21.57"/>
<text xml:space="preserve" text-anchor="middle" x="563.31" y="-710.05" font-family="Helvetica,sans-Serif" font-size="10.00" fill="#000000">gameplay.</text>
<text xml:space="preserve" text-anchor="middle" x="563.31" y="-698.8" font-family="Helvetica,sans-Serif" font-size="10.00" fill="#000000">weapon</text>
</g>
<!-- gameplay_munition&#45;&gt;gameplay_weapon -->
<g id="edge20" class="edge">
<title>gameplay_munition&#45;&gt;gameplay_weapon</title><style>.edge>path:hover{stroke-width:8}</style>
<path fill="none" stroke="black" d="M471.77,-719.37C484.09,-717.86 497.8,-716.19 510.76,-714.6"/>
<polygon fill="#000000" stroke="black" points="510.88,-718.12 520.39,-713.43 510.03,-711.17 510.88,-718.12"/>
</g>
<!-- gameplay_munition&#45;&gt;main_py -->
<g id="edge21" class="edge">
<title>gameplay_munition&#45;&gt;main_py</title><style>.edge>path:hover{stroke-width:8}</style>
<path fill="none" stroke="black" d="M527.42,-778.3C633.18,-808.95 698.48,-815.82 785.51,-736.3 857.53,-670.49 874.82,-351.92 878.49,-252.8"/>
<polygon fill="#000000" stroke="black" points="881.98,-253.21 878.83,-243.09 874.98,-252.96 881.98,-253.21"/>
</g>
<!-- gameplay_weapon&#45;&gt;main_py -->
<g id="edge22" class="edge">
<title>gameplay_weapon&#45;&gt;main_py</title><style>.edge>path:hover{stroke-width:8}</style>
<path fill="none" stroke="black" d="M613.39,-704.22C663.93,-697.34 741.36,-678.87 785.51,-629.3 835.95,-572.65 866.74,-336.42 876.23,-252.79"/>
<polygon fill="#000000" stroke="black" points="879.68,-253.43 877.31,-243.11 872.73,-252.66 879.68,-253.43"/>
</g>
<!-- physics -->
<g id="node14" class="node">
<title>physics</title><style>.edge>path:hover{stroke-width:8}</style>
<ellipse fill="#3b8fce" stroke="black" cx="309.23" cy="-344.3" rx="29.44" ry="18"/>
<text xml:space="preserve" text-anchor="middle" x="309.23" y="-340.43" font-family="Helvetica,sans-Serif" font-size="10.00" fill="#ffffff">physics</text>
</g>
<!-- physics&#45;&gt;entities_entity -->
<g id="edge23" class="edge">
<title>physics&#45;&gt;entities_entity</title><style>.edge>path:hover{stroke-width:8}</style>
<path fill="none" stroke="black" d="M354.53,-366.89C356.55,-368.31 358.51,-369.78 360.37,-371.3 398.02,-402.05 462.41,-509.1 500.51,-539.3 503.42,-541.6 506.52,-543.8 509.74,-545.89"/>
<polygon fill="#000000" stroke="black" points="507.93,-548.89 518.31,-551.02 511.53,-542.88 507.93,-548.89"/>
</g>
<!-- physics&#45;&gt;systems_armory -->
<g id="edge24" class="edge">
<title>physics&#45;&gt;systems_armory</title><style>.edge>path:hover{stroke-width:8}</style>
<path fill="none" stroke="black" d="M354.53,-356.85C415.25,-371.94 527.15,-392.23 618.11,-366.3 622.57,-365.03 627.02,-363.49 631.43,-361.74"/>
<polygon fill="#000000" stroke="black" points="632.47,-365.1 640.24,-357.9 629.68,-358.69 632.47,-365.1"/>
</g>
<!-- render -->
<g id="node16" class="node">
<title>render</title><style>.edge>path:hover{stroke-width:8}</style>
<ellipse fill="#653bce" stroke="black" cx="309.23" cy="-490.3" rx="27" ry="18"/>
<text xml:space="preserve" text-anchor="middle" x="309.23" y="-486.43" font-family="Helvetica,sans-Serif" font-size="10.00" fill="#ffffff">render</text>
</g>
<!-- render&#45;&gt;entities_entity -->
<g id="edge25" class="edge">
<title>render&#45;&gt;entities_entity</title><style>.edge>path:hover{stroke-width:8}</style>
<path fill="none" stroke="black" d="M360.36,-506.21C403.3,-519.84 464.97,-539.41 508.84,-553.33"/>
<polygon fill="#000000" stroke="black" points="507.57,-556.6 518.16,-556.29 509.69,-549.93 507.57,-556.6"/>
</g>
<!-- render&#45;&gt;systems_armory -->
<g id="edge26" class="edge">
<title>render&#45;&gt;systems_armory</title><style>.edge>path:hover{stroke-width:8}</style>
<path fill="none" stroke="black" d="M360.37,-479.36C423.3,-464.31 533.27,-433.59 618.11,-386.3 629.44,-379.99 640.73,-372.28 651.39,-364.18"/>
<polygon fill="#000000" stroke="black" points="653.27,-367.15 658.98,-358.23 648.95,-361.64 653.27,-367.15"/>
</g>
<!-- systems -->
<g id="node18" class="node">
<title>systems</title><style>.edge>path:hover{stroke-width:8}</style>
<ellipse fill="#db2fc2" stroke="black" cx="563.31" cy="-306.3" rx="31.66" ry="18"/>
<text xml:space="preserve" text-anchor="middle" x="563.31" y="-302.43" font-family="Helvetica,sans-Serif" font-size="10.00" fill="#ffffff">systems</text>
</g>
<!-- systems&#45;&gt;entities_player -->
<g id="edge27" class="edge">
<title>systems&#45;&gt;entities_player</title><style>.edge>path:hover{stroke-width:8}</style>
<path fill="none" stroke="black" d="M600.86,-357.3C627.32,-394.21 662.54,-443.36 686.78,-477.19"/>
<polygon fill="#000000" stroke="black" points="683.76,-478.99 692.43,-485.08 689.45,-474.91 683.76,-478.99"/>
</g>
<!-- systems&#45;&gt;main_py -->
<g id="edge28" class="edge">
<title>systems&#45;&gt;main_py</title><style>.edge>path:hover{stroke-width:8}</style>
<path fill="none" stroke="black" d="M652.45,-218.3C652.99,-217.96 653.54,-217.63 654.11,-217.3 713.16,-183.31 796.11,-198.34 843.13,-211.43"/>
<polygon fill="#000000" stroke="black" points="841.96,-214.73 852.54,-214.17 843.92,-208.01 841.96,-214.73"/>
</g>
<!-- systems_enemy_spawner -->
<g id="node20" class="node">
<title>systems_enemy_spawner</title><style>.edge>path:hover{stroke-width:8}</style>
<ellipse fill="#6b2e62" stroke="black" cx="715.81" cy="-248.3" rx="61.7" ry="21.57"/>
<text xml:space="preserve" text-anchor="middle" x="715.81" y="-250.05" font-family="Helvetica,sans-Serif" font-size="10.00" fill="#ffffff">systems.</text>
<text xml:space="preserve" text-anchor="middle" x="715.81" y="-238.8" font-family="Helvetica,sans-Serif" font-size="10.00" fill="#ffffff">enemy_spawner</text>
</g>
<!-- systems_enemy_spawner&#45;&gt;main_py -->
<g id="edge29" class="edge">
<title>systems_enemy_spawner&#45;&gt;main_py</title><style>.edge>path:hover{stroke-width:8}</style>
<path fill="none" stroke="black" d="M785.5,-237.74C804.08,-234.88 823.56,-231.89 839.93,-229.37"/>
<polygon fill="#000000" stroke="black" points="840.36,-232.84 849.71,-227.86 839.29,-225.93 840.36,-232.84"/>
</g>
<!-- systems_entity_registry -->
<g id="node21" class="node">
<title>systems_entity_registry</title><style>.edge>path:hover{stroke-width:8}</style>
<ellipse fill="#b42da0" stroke="black" cx="563.31" cy="-248.3" rx="54.8" ry="21.57"/>
<text xml:space="preserve" text-anchor="middle" x="563.31" y="-250.05" font-family="Helvetica,sans-Serif" font-size="10.00" fill="#ffffff">systems.</text>
<text xml:space="preserve" text-anchor="middle" x="563.31" y="-238.8" font-family="Helvetica,sans-Serif" font-size="10.00" fill="#ffffff">entity_registry</text>
</g>
<!-- systems_entity_registry&#45;&gt;systems_armory -->
<g id="edge31" class="edge">
<title>systems_entity_registry&#45;&gt;systems_armory</title><style>.edge>path:hover{stroke-width:8}</style>
<path fill="none" stroke="black" d="M603.46,-263.39C623.71,-271.19 648.53,-280.76 669.59,-288.87"/>
<polygon fill="#000000" stroke="black" points="668.21,-292.09 678.8,-292.42 670.73,-285.56 668.21,-292.09"/>
</g>
<!-- systems_entity_registry&#45;&gt;systems_enemy_spawner -->
<g id="edge32" class="edge">
<title>systems_entity_registry&#45;&gt;systems_enemy_spawner</title><style>.edge>path:hover{stroke-width:8}</style>
<path fill="none" stroke="black" d="M618.22,-248.3C626.08,-248.3 634.27,-248.3 642.41,-248.3"/>
<polygon fill="#000000" stroke="black" points="642.35,-251.8 652.35,-248.3 642.35,-244.8 642.35,-251.8"/>
</g>
<!-- systems_entity_registry&#45;&gt;main_py -->
<g id="edge30" class="edge">
<title>systems_entity_registry&#45;&gt;main_py</title><style>.edge>path:hover{stroke-width:8}</style>
<path fill="none" stroke="black" d="M596.02,-218.31C612.1,-205.14 632.74,-191.14 654.11,-184.3 722.01,-162.58 745.81,-165.25 814.51,-184.3 827.79,-187.99 841.08,-195.2 852.14,-202.43"/>
<polygon fill="#000000" stroke="black" points="850.15,-205.31 860.36,-208.11 854.13,-199.55 850.15,-205.31"/>
</g>
</g>
</svg>
