<?xml version="1.0" encoding="UTF-8" standalone="no"?>
<!DOCTYPE svg PUBLIC "-//W3C//DTD SVG 1.1//EN"
 "http://www.w3.org/Graphics/SVG/1.1/DTD/svg11.dtd">
<!-- Generated by graphviz version 14.1.3 (20260303.0454)
 -->
<!-- Title: G Pages: 1 -->
<svg width="812pt" height="792pt"
 viewBox="0.00 0.00 812.00 792.00" xmlns="http://www.w3.org/2000/svg" xmlns:xlink="http://www.w3.org/1999/xlink">
<g id="graph0" class="graph" transform="scale(1 1) rotate(0) translate(4 788.32)">
<title>G</title><style>.edge>path:hover{stroke-width:8}</style>
<polygon fill="white" stroke="none" points="-4,4 -4,-788.32 808.16,-788.32 808.16,4 -4,4"/>
<g id="clust1" class="cluster">
<title>cluster_core</title><style>.edge>path:hover{stroke-width:8}</style>
<polygon fill="none" stroke="black" points="8,-117.32 8,-356.32 107.73,-356.32 107.73,-117.32 8,-117.32"/>
<text xml:space="preserve" text-anchor="middle" x="57.86" y="-339.02" font-family="Times,serif" font-size="14.00">core</text>
</g>
<g id="clust2" class="cluster">
<title>cluster_entities</title><style>.edge>path:hover{stroke-width:8}</style>
<polygon fill="none" stroke="black" points="323.99,-577.32 323.99,-776.32 549.4,-776.32 549.4,-577.32 323.99,-577.32"/>
<text xml:space="preserve" text-anchor="middle" x="436.7" y="-759.02" font-family="Times,serif" font-size="14.00">entities</text>
</g>
<g id="clust3" class="cluster">
<title>cluster_gameplay</title><style>.edge>path:hover{stroke-width:8}</style>
<polygon fill="none" stroke="black" points="444.14,-363.32 444.14,-501.32 544.28,-501.32 544.28,-363.32 444.14,-363.32"/>
<text xml:space="preserve" text-anchor="middle" x="494.21" y="-484.02" font-family="Times,serif" font-size="14.00">gameplay</text>
</g>
<g id="clust4" class="cluster">
<title>cluster_physics</title><style>.edge>path:hover{stroke-width:8}</style>
<polygon fill="none" stroke="black" points="170.56,-380.32 170.56,-518.32 261.16,-518.32 261.16,-380.32 170.56,-380.32"/>
<text xml:space="preserve" text-anchor="middle" x="215.86" y="-501.02" font-family="Times,serif" font-size="14.00">physics</text>
</g>
<g id="clust5" class="cluster">
<title>cluster_render</title><style>.edge>path:hover{stroke-width:8}</style>
<polygon fill="none" stroke="black" points="164.73,-549.32 164.73,-687.32 266.99,-687.32 266.99,-549.32 164.73,-549.32"/>
<text xml:space="preserve" text-anchor="middle" x="215.86" y="-670.02" font-family="Times,serif" font-size="14.00">render</text>
</g>
<g id="clust6" class="cluster">
<title>cluster_systems</title><style>.edge>path:hover{stroke-width:8}</style>
<polygon fill="none" stroke="black" points="431.41,-171.32 431.41,-309.32 716.4,-309.32 716.4,-171.32 431.41,-171.32"/>
<text xml:space="preserve" text-anchor="middle" x="573.91" y="-292.02" font-family="Times,serif" font-size="14.00">systems</text>
</g>
<!-- core -->
<g id="node1" class="node">
<title>core</title><style>.edge>path:hover{stroke-width:8}</style>
<ellipse fill="#f91010" stroke="black" cx="57.86" cy="-305.32" rx="27" ry="18"/>
<text xml:space="preserve" text-anchor="middle" x="57.86" y="-301.44" font-family="Helvetica,sans-Serif" font-size="10.00" fill="#ffffff">core</text>
</g>
<!-- entities_bullet -->
<g id="node6" class="node">
<title>entities_bullet</title><style>.edge>path:hover{stroke-width:8}</style>
<ellipse fill="#a39228" stroke="black" cx="494.21" cy="-722.32" rx="35.71" ry="21.57"/>
<text xml:space="preserve" text-anchor="middle" x="494.21" y="-724.07" font-family="Helvetica,sans-Serif" font-size="10.00" fill="#000000">entities.</text>
<text xml:space="preserve" text-anchor="middle" x="494.21" y="-712.82" font-family="Helvetica,sans-Serif" font-size="10.00" fill="#000000">bullet</text>
</g>
<!-- core&#45;&gt;entities_bullet -->
<g id="edge1" class="edge">
<title>core&#45;&gt;entities_bullet</title><style>.edge>path:hover{stroke-width:8}</style>
<path fill="none" stroke="black" d="M60.01,-356.31C64.37,-436.36 83.54,-592.54 164.73,-691.32 180.53,-710.55 189.96,-716.32 214.86,-716.32 214.86,-716.32 214.86,-716.32 295.99,-716.32 301.42,-716.32 306.94,-716.34 312.5,-716.38"/>
<polygon fill="#000000" stroke="black" points="312.44,-719.88 322.48,-716.48 312.52,-712.88 312.44,-719.88"/>
</g>
<!-- gameplay_weapon -->
<g id="node11" class="node">
<title>gameplay_weapon</title><style>.edge>path:hover{stroke-width:8}</style>
<ellipse fill="#409c1b" stroke="black" cx="494.21" cy="-447.32" rx="42.07" ry="21.57"/>
<text xml:space="preserve" text-anchor="middle" x="494.21" y="-449.07" font-family="Helvetica,sans-Serif" font-size="10.00" fill="#ffffff">gameplay.</text>
<text xml:space="preserve" text-anchor="middle" x="494.21" y="-437.82" font-family="Helvetica,sans-Serif" font-size="10.00" fill="#ffffff">weapon</text>
</g>
<!-- core&#45;&gt;gameplay_weapon -->
<g id="edge2" class="edge">
<title>core&#45;&gt;gameplay_weapon</title><style>.edge>path:hover{stroke-width:8}</style>
<path fill="none" stroke="black" d="M107.72,-326.53C137.98,-337.79 177.98,-349.32 214.86,-349.32 214.86,-349.32 214.86,-349.32 295.99,-349.32 296.96,-349.32 376.26,-388.85 434,-417.7"/>
<polygon fill="#000000" stroke="black" points="432.28,-420.75 442.79,-422.09 435.41,-414.49 432.28,-420.75"/>
</g>
<!-- physics_collision -->
<g id="node13" class="node">
<title>physics_collision</title><style>.edge>path:hover{stroke-width:8}</style>
<ellipse fill="#4981ac" stroke="black" cx="215.86" cy="-464.32" rx="37.3" ry="21.57"/>
<text xml:space="preserve" text-anchor="middle" x="215.86" y="-466.07" font-family="Helvetica,sans-Serif" font-size="10.00" fill="#ffffff">physics.</text>
<text xml:space="preserve" text-anchor="middle" x="215.86" y="-454.82" font-family="Helvetica,sans-Serif" font-size="10.00" fill="#ffffff">collision</text>
</g>
<!-- core&#45;&gt;physics_collision -->
<g id="edge4" class="edge">
<title>core&#45;&gt;physics_collision</title><style>.edge>path:hover{stroke-width:8}</style>
<path fill="none" stroke="black" d="M94.95,-356.31C112.61,-379.23 135.72,-406.44 162.07,-430.53"/>
<polygon fill="#000000" stroke="black" points="159.63,-433.05 169.43,-437.08 164.28,-427.82 159.63,-433.05"/>
</g>
<!-- render_renderable -->
<g id="node15" class="node">
<title>render_renderable</title><style>.edge>path:hover{stroke-width:8}</style>
<ellipse fill="#6549ac" stroke="black" cx="215.86" cy="-633.32" rx="43.13" ry="21.57"/>
<text xml:space="preserve" text-anchor="middle" x="215.86" y="-635.07" font-family="Helvetica,sans-Serif" font-size="10.00" fill="#ffffff">render.</text>
<text xml:space="preserve" text-anchor="middle" x="215.86" y="-623.82" font-family="Helvetica,sans-Serif" font-size="10.00" fill="#ffffff">renderable</text>
</g>
<!-- core&#45;&gt;render_renderable -->
<g id="edge5" class="edge">
<title>core&#45;&gt;render_renderable</title><style>.edge>path:hover{stroke-width:8}</style>
<path fill="none" stroke="black" d="M66.41,-356.31C77.55,-417.31 103.28,-520.3 157.75,-593.33"/>
<polygon fill="#000000" stroke="black" points="154.9,-595.37 163.8,-601.12 160.43,-591.07 154.9,-595.37"/>
</g>
<!-- systems_enemy_spawner -->
<g id="node17" class="node">
<title>systems_enemy_spawner</title><style>.edge>path:hover{stroke-width:8}</style>
<ellipse fill="#6b2e62" stroke="black" cx="646.71" cy="-255.32" rx="61.7" ry="21.57"/>
<text xml:space="preserve" text-anchor="middle" x="646.71" y="-257.07" font-family="Helvetica,sans-Serif" font-size="10.00" fill="#ffffff">systems.</text>
<text xml:space="preserve" text-anchor="middle" x="646.71" y="-245.82" font-family="Helvetica,sans-Serif" font-size="10.00" fill="#ffffff">enemy_spawner</text>
</g>
<!-- core&#45;&gt;systems_enemy_spawner -->
<g id="edge6" class="edge">
<title>core&#45;&gt;systems_enemy_spawner</title><style>.edge>path:hover{stroke-width:8}</style>
<path fill="none" stroke="black" d="M107.72,-305.32C138.47,-305.32 178.98,-305.32 214.86,-305.32 214.86,-305.32 214.86,-305.32 368.7,-305.32 388.97,-305.32 405.48,-305.17 420.08,-304.69"/>
<polygon fill="#000000" stroke="black" points="420.05,-308.19 429.9,-304.29 419.77,-301.2 420.05,-308.19"/>
</g>
<!-- main_py -->
<g id="node19" class="node">
<title>main_py</title><style>.edge>path:hover{stroke-width:8}</style>
<ellipse fill="#356350" stroke="black" cx="774.28" cy="-322.32" rx="29.88" ry="18"/>
<text xml:space="preserve" text-anchor="middle" x="774.28" y="-318.44" font-family="Helvetica,sans-Serif" font-size="10.00" fill="#ffffff">main.py</text>
</g>
<!-- core&#45;&gt;main_py -->
<g id="edge3" class="edge">
<title>core&#45;&gt;main_py</title><style>.edge>path:hover{stroke-width:8}</style>
<path fill="none" stroke="black" d="M107.73,-278.32C168.71,-224.16 133.3,-129.32 214.86,-129.32 214.86,-129.32 214.86,-129.32 495.21,-129.32 594.96,-129.32 639.77,-103.47 716.4,-167.32 754.09,-198.72 766.81,-257.41 771.1,-292.87"/>
<polygon fill="#000000" stroke="black" points="767.58,-292.84 772.1,-302.43 774.54,-292.12 767.58,-292.84"/>
</g>
<!-- core_time -->
<g id="node2" class="node">
<title>core_time</title><style>.edge>path:hover{stroke-width:8}</style>
<ellipse fill="#f31616" stroke="black" cx="57.86" cy="-197.32" rx="33.43" ry="18"/>
<text xml:space="preserve" text-anchor="middle" x="57.86" y="-193.44" font-family="Helvetica,sans-Serif" font-size="10.00" fill="#ffffff">core.time</text>
</g>
<!-- core_time&#45;&gt;main_py -->
<g id="edge7" class="edge">
<title>core_time&#45;&gt;main_py</title><style>.edge>path:hover{stroke-width:8}</style>
<path fill="none" stroke="black" d="M107.73,-170.32C159.94,-122.93 144.35,-53.32 214.86,-53.32 214.86,-53.32 214.86,-53.32 495.21,-53.32 594.09,-53.32 642.41,-11.71 716.4,-77.32 748.35,-105.64 764.68,-233.7 770.61,-292.56"/>
<polygon fill="#000000" stroke="black" points="767.13,-292.88 771.58,-302.5 774.1,-292.21 767.13,-292.88"/>
</g>
<!-- core_vector -->
<g id="node3" class="node">
<title>core_vector</title><style>.edge>path:hover{stroke-width:8}</style>
<ellipse fill="#f91010" stroke="black" cx="57.86" cy="-143.32" rx="38.31" ry="18"/>
<text xml:space="preserve" text-anchor="middle" x="57.86" y="-139.44" font-family="Helvetica,sans-Serif" font-size="10.00" fill="#ffffff">core.vector</text>
</g>
<!-- core_vector&#45;&gt;main_py -->
<g id="edge8" class="edge">
<title>core_vector&#45;&gt;main_py</title><style>.edge>path:hover{stroke-width:8}</style>
<path fill="none" stroke="black" d="M74.51,-117.32C99.24,-79.9 151.15,-15.32 214.86,-15.32 214.86,-15.32 214.86,-15.32 495.21,-15.32 593.96,-15.32 643.12,29.87 716.4,-36.32 754.07,-70.34 767.63,-226.53 771.73,-292.63"/>
<polygon fill="#000000" stroke="black" points="768.22,-292.59 772.3,-302.37 775.21,-292.18 768.22,-292.59"/>
</g>
<!-- core_window -->
<g id="node4" class="node">
<title>core_window</title><style>.edge>path:hover{stroke-width:8}</style>
<ellipse fill="#db2f2f" stroke="black" cx="57.86" cy="-251.32" rx="41.86" ry="18"/>
<text xml:space="preserve" text-anchor="middle" x="57.86" y="-247.44" font-family="Helvetica,sans-Serif" font-size="10.00" fill="#ffffff">core.window</text>
</g>
<!-- core_window&#45;&gt;main_py -->
<g id="edge9" class="edge">
<title>core_window&#45;&gt;main_py</title><style>.edge>path:hover{stroke-width:8}</style>
<path fill="none" stroke="black" d="M107.73,-224.32C161.87,-171.12 138.96,-91.32 214.86,-91.32 214.86,-91.32 214.86,-91.32 495.21,-91.32 594.36,-91.32 641.43,-55.44 716.4,-120.32 742.48,-142.88 761.1,-242.55 769.02,-292.94"/>
<polygon fill="#000000" stroke="black" points="765.52,-293.19 770.49,-302.54 772.44,-292.13 765.52,-293.19"/>
</g>
<!-- entities -->
<g id="node5" class="node">
<title>entities</title><style>.edge>path:hover{stroke-width:8}</style>
<ellipse fill="#f9d810" stroke="black" cx="367.7" cy="-603.32" rx="28.11" ry="18"/>
<text xml:space="preserve" text-anchor="middle" x="367.7" y="-599.44" font-family="Helvetica,sans-Serif" font-size="10.00" fill="#000000">entities</text>
</g>
<!-- entities&#45;&gt;gameplay_weapon -->
<g id="edge10" class="edge">
<title>entities&#45;&gt;gameplay_weapon</title><style>.edge>path:hover{stroke-width:8}</style>
<path fill="none" stroke="black" d="M382.95,-577.32C394.72,-556.84 412.51,-528.06 431.41,-505.32 433.02,-503.38 434.68,-501.45 436.39,-499.53"/>
<polygon fill="#000000" stroke="black" points="438.88,-501.99 443.11,-492.28 433.75,-497.23 438.88,-501.99"/>
</g>
<!-- entities&#45;&gt;systems_enemy_spawner -->
<g id="edge12" class="edge">
<title>entities&#45;&gt;systems_enemy_spawner</title><style>.edge>path:hover{stroke-width:8}</style>
<path fill="none" stroke="black" d="M367.8,-577.32C367.53,-528.19 374.08,-421.13 431.41,-359.32 469.06,-318.72 499.7,-343.73 549.4,-319.32 552.3,-317.89 555.23,-316.39 558.15,-314.82"/>
<polygon fill="#000000" stroke="black" points="559.72,-317.96 566.76,-310.05 556.32,-311.84 559.72,-317.96"/>
</g>
<!-- entities&#45;&gt;main_py -->
<g id="edge11" class="edge">
<title>entities&#45;&gt;main_py</title><style>.edge>path:hover{stroke-width:8}</style>
<path fill="none" stroke="black" d="M390.81,-577.32C401.97,-565.56 416.32,-552.31 431.41,-543.32 478.73,-515.11 499.12,-527.84 549.4,-505.32 627.94,-470.14 653.78,-466.34 716.4,-407.32 734.12,-390.62 749.17,-367.43 759.33,-349.49"/>
<polygon fill="#000000" stroke="black" points="762.28,-351.4 764.01,-340.95 756.14,-348.04 762.28,-351.4"/>
</g>
<!-- entities_bullet&#45;&gt;main_py -->
<g id="edge13" class="edge">
<title>entities_bullet&#45;&gt;main_py</title><style>.edge>path:hover{stroke-width:8}</style>
<path fill="none" stroke="black" d="M549.4,-719.13C600.31,-713.11 674.73,-695.93 716.4,-647.32 754.37,-603.01 767.93,-423.42 771.88,-351.9"/>
<polygon fill="#000000" stroke="black" points="775.37,-352.31 772.4,-342.14 768.38,-351.94 775.37,-352.31"/>
</g>
<!-- entities_enemy -->
<g id="node7" class="node">
<title>entities_enemy</title><style>.edge>path:hover{stroke-width:8}</style>
<ellipse fill="#918430" stroke="black" cx="494.21" cy="-603.32" rx="47.19" ry="18"/>
<text xml:space="preserve" text-anchor="middle" x="494.21" y="-599.44" font-family="Helvetica,sans-Serif" font-size="10.00" fill="#ffffff">entities.enemy</text>
</g>
<!-- entities_enemy&#45;&gt;main_py -->
<g id="edge14" class="edge">
<title>entities_enemy&#45;&gt;main_py</title><style>.edge>path:hover{stroke-width:8}</style>
<path fill="none" stroke="black" d="M549.4,-611.24C599.18,-615.27 671.81,-612.44 716.4,-571.32 748.42,-541.79 764.8,-410.93 770.68,-351.66"/>
<polygon fill="#000000" stroke="black" points="774.14,-352.28 771.6,-341.99 767.17,-351.62 774.14,-352.28"/>
</g>
<!-- entities_entity -->
<g id="node8" class="node">
<title>entities_entity</title><style>.edge>path:hover{stroke-width:8}</style>
<ellipse fill="#b89f09" stroke="black" cx="367.7" cy="-661.32" rx="35.71" ry="21.57"/>
<text xml:space="preserve" text-anchor="middle" x="367.7" y="-663.07" font-family="Helvetica,sans-Serif" font-size="10.00" fill="#000000">entities.</text>
<text xml:space="preserve" text-anchor="middle" x="367.7" y="-651.82" font-family="Helvetica,sans-Serif" font-size="10.00" fill="#000000">entity</text>
</g>
<!-- entities_entity&#45;&gt;entities_bullet -->
<g id="edge15" class="edge">
<title>entities_entity&#45;&gt;entities_bullet</title><style>.edge>path:hover{stroke-width:8}</style>
<path fill="none" stroke="black" d="M396.15,-674.94C407.11,-680.36 419.85,-686.65 431.41,-692.32 439.15,-696.11 447.46,-700.15 455.38,-704"/>
<polygon fill="#000000" stroke="black" points="453.62,-707.04 464.14,-708.26 456.67,-700.74 453.62,-707.04"/>
</g>
<!-- entities_entity&#45;&gt;entities_enemy -->
<g id="edge16" class="edge">
<title>entities_entity&#45;&gt;entities_enemy</title><style>.edge>path:hover{stroke-width:8}</style>
<path fill="none" stroke="black" d="M395.73,-647.61C406.74,-642.11 419.63,-635.8 431.41,-630.32 437.82,-627.33 444.64,-624.26 451.33,-621.29"/>
<polygon fill="#000000" stroke="black" points="452.51,-624.6 460.26,-617.37 449.69,-618.19 452.51,-624.6"/>
</g>
<!-- entities_player -->
<g id="node9" class="node">
<title>entities_player</title><style>.edge>path:hover{stroke-width:8}</style>
<ellipse fill="#8a7d2e" stroke="black" cx="494.21" cy="-661.32" rx="35.71" ry="21.57"/>
<text xml:space="preserve" text-anchor="middle" x="494.21" y="-663.07" font-family="Helvetica,sans-Serif" font-size="10.00" fill="#ffffff">entities.</text>
<text xml:space="preserve" text-anchor="middle" x="494.21" y="-651.82" font-family="Helvetica,sans-Serif" font-size="10.00" fill="#ffffff">player</text>
</g>
<!-- entities_entity&#45;&gt;entities_player -->
<g id="edge17" class="edge">
<title>entities_entity&#45;&gt;entities_player</title><style>.edge>path:hover{stroke-width:8}</style>
<path fill="none" stroke="black" d="M403.72,-661.32C417.11,-661.32 432.6,-661.32 446.89,-661.32"/>
<polygon fill="#000000" stroke="black" points="446.51,-664.82 456.51,-661.32 446.51,-657.82 446.51,-664.82"/>
</g>
<!-- entities_entity&#45;&gt;main_py -->
<g id="edge18" class="edge">
<title>entities_entity&#45;&gt;main_py</title><style>.edge>path:hover{stroke-width:8}</style>
<path fill="none" stroke="black" d="M430.26,-577.32C430.63,-576.98 431.01,-576.65 431.41,-576.32 473.48,-540.74 498.02,-558.2 549.4,-538.32 625.45,-508.88 659.94,-521.15 716.4,-462.32 746.2,-431.26 761.17,-382.52 768.07,-351.51"/>
<polygon fill="#000000" stroke="black" points="771.43,-352.55 770.03,-342.05 764.58,-351.13 771.43,-352.55"/>
</g>
<!-- entities_player&#45;&gt;main_py -->
<g id="edge19" class="edge">
<title>entities_player&#45;&gt;main_py</title><style>.edge>path:hover{stroke-width:8}</style>
<path fill="none" stroke="black" d="M549.4,-663.16C599.81,-661.78 673.43,-651.31 716.4,-606.32 751.15,-569.93 766.33,-416.91 771.3,-351.82"/>
<polygon fill="#000000" stroke="black" points="774.79,-352.12 772.03,-341.89 767.81,-351.61 774.79,-352.12"/>
</g>
<!-- gameplay -->
<g id="node10" class="node">
<title>gameplay</title><style>.edge>path:hover{stroke-width:8}</style>
<ellipse fill="#60db2f" stroke="black" cx="494.21" cy="-389.32" rx="34.32" ry="18"/>
<text xml:space="preserve" text-anchor="middle" x="494.21" y="-385.44" font-family="Helvetica,sans-Serif" font-size="10.00" fill="#000000">gameplay</text>
</g>
<!-- gameplay&#45;&gt;entities_enemy -->
<g id="edge20" class="edge">
<title>gameplay&#45;&gt;entities_enemy</title><style>.edge>path:hover{stroke-width:8}</style>
<path fill="none" stroke="black" d="M444.14,-401.85C433.23,-407.16 423.22,-414.68 417.41,-425.32 402.82,-452.04 402.82,-535.59 417.41,-562.32 418.78,-564.83 420.37,-567.19 422.13,-569.41"/>
<polygon fill="#000000" stroke="black" points="419.23,-571.44 428.69,-576.23 424.28,-566.59 419.23,-571.44"/>
</g>
<!-- gameplay&#45;&gt;systems_enemy_spawner -->
<g id="edge22" class="edge">
<title>gameplay&#45;&gt;systems_enemy_spawner</title><style>.edge>path:hover{stroke-width:8}</style>
<path fill="none" stroke="black" d="M541.34,-363.32C544.12,-361.37 546.83,-359.36 549.4,-357.32 564.26,-345.45 579.01,-331.34 592.34,-317.45"/>
<polygon fill="#000000" stroke="black" points="594.66,-320.09 598.98,-310.42 589.57,-315.29 594.66,-320.09"/>
</g>
<!-- gameplay&#45;&gt;main_py -->
<g id="edge21" class="edge">
<title>gameplay&#45;&gt;main_py</title><style>.edge>path:hover{stroke-width:8}</style>
<path fill="none" stroke="black" d="M544.28,-377.49C598.67,-364.39 685.25,-343.53 734.91,-331.56"/>
<polygon fill="#000000" stroke="black" points="735.68,-334.98 744.58,-329.23 734.04,-328.17 735.68,-334.98"/>
</g>
<!-- gameplay_weapon&#45;&gt;main_py -->
<g id="edge23" class="edge">
<title>gameplay_weapon&#45;&gt;main_py</title><style>.edge>path:hover{stroke-width:8}</style>
<path fill="none" stroke="black" d="M544.28,-434.09C590.38,-420.58 660.46,-397.22 716.4,-366.32 727.38,-360.25 738.51,-352.16 747.97,-344.58"/>
<polygon fill="#000000" stroke="black" points="750.18,-347.3 755.65,-338.22 745.72,-341.9 750.18,-347.3"/>
</g>
<!-- physics -->
<g id="node12" class="node">
<title>physics</title><style>.edge>path:hover{stroke-width:8}</style>
<ellipse fill="#538cb6" stroke="black" cx="215.86" cy="-406.32" rx="29.44" ry="18"/>
<text xml:space="preserve" text-anchor="middle" x="215.86" y="-402.44" font-family="Helvetica,sans-Serif" font-size="10.00" fill="#000000">physics</text>
</g>
<!-- physics&#45;&gt;entities_entity -->
<g id="edge24" class="edge">
<title>physics&#45;&gt;entities_entity</title><style>.edge>path:hover{stroke-width:8}</style>
<path fill="none" stroke="black" d="M261.16,-427.27C263.28,-429.14 265.25,-431.15 266.99,-433.32 321.79,-501.19 275.93,-551.27 317.8,-620.82"/>
<polygon fill="#000000" stroke="black" points="314.77,-622.58 323.17,-629.05 320.64,-618.76 314.77,-622.58"/>
</g>
<!-- render -->
<g id="node14" class="node">
<title>render</title><style>.edge>path:hover{stroke-width:8}</style>
<ellipse fill="#7053b6" stroke="black" cx="215.86" cy="-575.32" rx="27" ry="18"/>
<text xml:space="preserve" text-anchor="middle" x="215.86" y="-571.44" font-family="Helvetica,sans-Serif" font-size="10.00" fill="#ffffff">render</text>
</g>
<!-- render&#45;&gt;entities_entity -->
<g id="edge25" class="edge">
<title>render&#45;&gt;entities_entity</title><style>.edge>path:hover{stroke-width:8}</style>
<path fill="none" stroke="black" d="M266.99,-602.32C282.44,-611.04 299.08,-620.76 314.26,-629.75"/>
<polygon fill="#000000" stroke="black" points="312.31,-632.66 322.7,-634.76 315.89,-626.64 312.31,-632.66"/>
</g>
<!-- systems -->
<g id="node16" class="node">
<title>systems</title><style>.edge>path:hover{stroke-width:8}</style>
<ellipse fill="#ce3bb9" stroke="black" cx="494.21" cy="-197.32" rx="31.66" ry="18"/>
<text xml:space="preserve" text-anchor="middle" x="494.21" y="-193.44" font-family="Helvetica,sans-Serif" font-size="10.00" fill="#ffffff">systems</text>
</g>
<!-- systems&#45;&gt;gameplay_weapon -->
<g id="edge26" class="edge">
<title>systems&#45;&gt;gameplay_weapon</title><style>.edge>path:hover{stroke-width:8}</style>
<path fill="none" stroke="black" d="M431.41,-217.55C425.73,-221.84 420.84,-227.03 417.41,-233.32 398.88,-267.25 398.88,-373.38 417.41,-407.32 421.56,-414.91 427.72,-421.11 434.79,-426.17"/>
<polygon fill="#000000" stroke="black" points="432.51,-428.87 442.85,-431.17 436.2,-422.92 432.51,-428.87"/>
</g>
<!-- systems&#45;&gt;main_py -->
<g id="edge27" class="edge">
<title>systems&#45;&gt;main_py</title><style>.edge>path:hover{stroke-width:8}</style>
<path fill="none" stroke="black" d="M716.4,-204.31C716.4,-204.31 716.4,-204.31 716.4,-204.32 746.76,-224.06 761.36,-264.9 768.06,-292.95"/>
<polygon fill="#000000" stroke="black" points="764.61,-293.58 770.15,-302.61 771.46,-292.1 764.61,-293.58"/>
</g>
<!-- systems_enemy_spawner&#45;&gt;main_py -->
<g id="edge28" class="edge">
<title>systems_enemy_spawner&#45;&gt;main_py</title><style>.edge>path:hover{stroke-width:8}</style>
<path fill="none" stroke="black" d="M716.4,-291.97C724.97,-296.54 733.4,-301.04 741.03,-305.11"/>
<polygon fill="#000000" stroke="black" points="739.34,-308.17 749.81,-309.79 742.64,-302 739.34,-308.17"/>
</g>
<!-- systems_entity_registry -->
<g id="node18" class="node">
<title>systems_entity_registry</title><style>.edge>path:hover{stroke-width:8}</style>
<ellipse fill="#c431af" stroke="black" cx="494.21" cy="-255.32" rx="54.8" ry="21.57"/>
<text xml:space="preserve" text-anchor="middle" x="494.21" y="-257.07" font-family="Helvetica,sans-Serif" font-size="10.00" fill="#ffffff">systems.</text>
<text xml:space="preserve" text-anchor="middle" x="494.21" y="-245.82" font-family="Helvetica,sans-Serif" font-size="10.00" fill="#ffffff">entity_registry</text>
</g>
<!-- systems_entity_registry&#45;&gt;systems_enemy_spawner -->
<g id="edge30" class="edge">
<title>systems_entity_registry&#45;&gt;systems_enemy_spawner</title><style>.edge>path:hover{stroke-width:8}</style>
<path fill="none" stroke="black" d="M549.12,-255.32C556.97,-255.32 565.16,-255.32 573.31,-255.32"/>
<polygon fill="#000000" stroke="black" points="573.25,-258.82 583.25,-255.32 573.25,-251.82 573.25,-258.82"/>
</g>
<!-- systems_entity_registry&#45;&gt;main_py -->
<g id="edge29" class="edge">
<title>systems_entity_registry&#45;&gt;main_py</title><style>.edge>path:hover{stroke-width:8}</style>
<path fill="none" stroke="black" d="M716.4,-224.31C716.4,-224.31 716.4,-224.31 716.4,-224.32 742.04,-239.08 757.19,-270.32 765.32,-293.58"/>
<polygon fill="#000000" stroke="black" points="761.9,-294.37 768.3,-302.81 768.56,-292.22 761.9,-294.37"/>
</g>
</g>
</svg>
